<svg xmlns="http://www.w3.org/2000/svg" width="29" height="30" viewBox="0 0 29 30">
    <g fill="#232323" fill-rule="evenodd">
        <path d="M23.82 5.062a13.195 13.195 0 0 0-9.399-3.92 13.194 13.194 0 0 0-9.399 3.92 13.397 13.397 0 0 0-3.896 9.481c0 3.694 1.485 7.05 3.896 9.473a13.203 13.203 0 0 0 9.4 3.928c3.672 0 6.995-1.505 9.398-3.928a13.392 13.392 0 0 0 3.896-9.473c0-3.702-1.484-7.058-3.896-9.48zM14.421 0c3.985 0 7.586 1.634 10.198 4.257a14.56 14.56 0 0 1 4.224 10.286c0 4.008-1.613 7.646-4.224 10.278-2.612 2.624-6.213 4.258-10.198 4.258-3.985 0-7.586-1.634-10.197-4.258A14.555 14.555 0 0 1 0 14.543 14.56 14.56 0 0 1 4.224 4.257C6.835 1.634 10.436 0 14.42 0z"/>
        <path d="M16.646 14.024l-3.984 2.164v-4.345l1.805.99 2.18 1.19zm4.76-2.93s-.152-1.07-.591-1.537c-.559-.612-1.19-.62-1.47-.66-2.06-.153-5.15-.153-5.15-.153h-.016s-3.082 0-5.143.153c-.295.04-.918.048-1.477.66-.44.466-.59 1.537-.59 1.537s-.153 1.255-.153 2.495v1.183c0 1.255.153 2.495.153 2.495s.15 1.07.59 1.545c.56.62 1.294.596 1.63.66 1.173.121 5.006.161 5.006.161s3.09-.016 5.15-.16c.28-.041.911-.041 1.47-.66.44-.475.59-1.546.59-1.546s.144-1.24.144-2.495v-1.183c0-1.24-.143-2.495-.143-2.495z"/>
    </g>
</svg>
