<svg xmlns="http://www.w3.org/2000/svg" xmlns:xlink="http://www.w3.org/1999/xlink" width="34" height="34" viewBox="0 0 34 34">
    <defs>
        <path id="a" d="M.023.249H33.93v16.126H.023z"/>
    </defs>
    <g fill="none" fill-rule="evenodd">
        <g>
            <path fill="#5e5e5e" d="M15.543 2.88c6.12-.922 12.252-1.792 18.383-2.631.004 5.298 0 10.593.004 15.89-6.128.024-12.255.116-18.387.135-.004-4.467-.004-8.93 0-13.393M0 5.019c4.608-.701 9.236-1.307 13.864-1.878.004 4.395.004 8.785.008 13.179-4.624-.004-9.248.065-13.872.054V5.019" />
        </g>
        <path fill="#5e5e5e" d="M0 17.757c4.62-.016 9.24.057 13.86.05 0 4.405.012 8.81.004 13.216C9.248 30.35 4.624 29.76 0 29.143V17.756M15.516 17.933h18.41c.008 5.283 0 10.566 0 15.852a1349.72 1349.72 0 0 0-18.383-2.562c-.008-4.43-.02-8.858-.027-13.29"/>
    </g>
</svg>
