<svg xmlns="http://www.w3.org/2000/svg" xmlns:xlink="http://www.w3.org/1999/xlink" width="402" height="424" viewBox="0 0 402 424">
    <defs>
        <path id="a" d="M0 1h401.754v422.074H0z"/>
    </defs>
    <g fill="none" fill-rule="evenodd">
        <path fill="#5e5e5e" d="M227.825 151.919c9.213-5.974 18.496-11.841 27.615-17.954 7.344-4.923 6.732-13.835-1.343-17.404-33.366-14.747-66.939-16.048-100.662-1.046-4.038 1.796-7.262 4.175-7.624 8.97-.36 4.78 2.391 7.632 6.156 10.02 8.99 5.705 17.88 11.569 26.81 17.368-11.575 4.172-21.976 10.379-31.035 18.655-28.427 25.968-44.285 58.422-47.68 96.563-2.647 29.73 5.582 56.534 26.49 78.419 23.115 24.198 52.113 33.97 85.064 31.465 35.105-2.67 62.956-18.48 81.18-49.085 16.12-27.072 17.462-56.298 8.874-85.88-11.716-40.36-33.353-73.08-73.845-90.091m121.211 157.104c-23.7 76.304-75.556 114.656-154.353 114.044-63.625-.495-122.208-45.986-136.719-114.881-1.196.147-2.469.167-3.67.472-10.809 2.742-21.62 5.482-32.403 8.33-6.209 1.64-12.325 2.526-17.105-2.988-5.044-5.817-6.163-12.802-3.064-19.645 6.723-14.847 13.346-29.811 21.258-44.033 19.22-34.547 43.164-65.63 71.108-93.63 2.046-2.05 3.604-4.79 4.771-7.478 7.637-17.585 10.341-36.44 13.846-55.076 2.96-15.74 6.187-31.434 13.687-45.761 17.935-34.26 46.927-49.874 84.897-47.053 36.04 2.677 60.263 23 72.172 56.556 5.855 16.498 7.92 34.307 12.383 51.344 3.868 14.768 8.561 29.328 13.227 43.87.864 2.695 3.081 5.112 5.1 7.256 35.973 38.217 64.848 81.102 84.947 129.676 1.951 4.714 3.03 10.385 2.503 15.4-1.034 9.845-8.798 14.52-18.426 12.157-10.02-2.461-19.999-5.104-30-7.648-1.572-.4-3.17-.697-4.159-.912" />
    </g>
</svg>
