<svg xmlns="http://www.w3.org/2000/svg" width="16" height="13" viewBox="0 0 16 13">
    <path fill="#969696" fill-rule="evenodd" d="M11.747 12.435s-.483-.583-.885-1.098c1.756-.501 2.426-1.613 2.426-1.613a7.64 7.64 0 0 1-1.541.8 8.75 8.75 0 0 1-1.944.583 9.289 9.289 0 0 1-3.471-.014c-.765-.149-1.421-.366-1.97-.583a7.815 7.815 0 0 1-.98-.46c-.04-.028-.08-.041-.12-.068a.185.185 0 0 1-.054-.04 4.694 4.694 0 0 1-.375-.231s.643 1.084 2.346 1.599a86.398 86.398 0 0 1-.898 1.125c-2.963-.095-4.089-2.06-4.089-2.06 0-4.364 1.93-7.902 1.93-7.902C4.053 1.01 5.89 1.05 5.89 1.05l.134.163c-2.413.705-3.525 1.775-3.525 1.775s.295-.162.79-.393c1.435-.637 2.574-.813 3.044-.854.08-.013.147-.027.227-.027a11.218 11.218 0 0 1 2.708-.027c1.273.15 2.64.529 4.035 1.301 0 0-1.06-1.016-3.338-1.721l.188-.217s1.836-.04 3.766 1.423c0 0 1.93 3.538 1.93 7.902 0 0-1.139 1.965-4.101 2.06zm-1.34-6.33c-.765 0-1.368.678-1.368 1.505 0 .827.617 1.504 1.367 1.504.764 0 1.368-.677 1.368-1.504s-.604-1.505-1.368-1.505zm-4.893 0c-.764 0-1.367.678-1.367 1.505 0 .827.616 1.504 1.367 1.504.764 0 1.367-.677 1.367-1.504.013-.827-.603-1.505-1.367-1.505z"/>
</svg>
