<svg xmlns="http://www.w3.org/2000/svg" width="156" height="189" viewBox="0 0 156 189">
    <g fill="#5e5e5e" fill-rule="evenodd">
        <path d="M112.317 47.996c-15.216-1.128-28.132 8.503-35.334 8.503-7.312 0-18.578-8.259-30.528-8.035-15.686.23-30.147 9.133-38.236 23.177-16.296 28.284-4.16 70.196 11.714 93.15 7.759 11.218 17.024 23.852 29.186 23.392 11.704-.457 16.137-7.566 30.287-7.566 14.144 0 18.134 7.566 30.514 7.338 12.601-.229 20.584-11.446 28.29-22.726 8.918-13.016 12.588-25.621 12.803-26.284-.281-.1-24.559-9.423-24.805-37.401-.22-23.392 19.09-34.636 19.973-35.181-10.968-16.141-27.899-17.926-33.864-18.367M102.925 32.846c6.464-7.812 10.814-18.692 9.62-29.515-9.308.369-20.557 6.2-27.232 14.005-5.974 6.917-11.223 17.994-9.796 28.591 10.366.805 20.952-5.267 27.408-13.081"/>
    </g>
</svg>
