<svg xmlns="http://www.w3.org/2000/svg" xmlns:xlink="http://www.w3.org/1999/xlink" width="1154" height="354" viewBox="0 0 1154 354">
    <defs>
        <path id="a" d="M0 .511h332.002V353H0z"/>
        <path id="c" d="M0 .511h166.008v165.86H0z"/>
        <path id="e" d="M0 .687h46.064v83.375H0z"/>
        <path id="g" d="M.161 17.45v11.572l11.349 3.56 14.465-4.228 7.565-11.349-3.783-10.014L12.178.76"/>
        <path id="i" d="M.161 17.45v11.572l11.349 3.56 14.465-4.228 7.565-11.349-3.783-10.014L12.178.76"/>
        <path id="k" d="M.161 17.45v11.572l11.349 3.56 14.465-4.228 7.565-11.349-3.783-10.014L12.178.76"/>
        <path id="m" d="M.992.511h166.009v165.86H.992z"/>
        <path id="o" d="M.577.298h128.847V41H.577z"/>
        <path id="q" d="M4.243 6.991L.46 17.005l7.567 11.349 14.464 4.228 11.349-3.56V17.45L21.823.76"/>
        <path id="s" d="M4.243 6.991L.46 17.005l7.567 11.349 14.464 4.228 11.349-3.56V17.45L21.823.76"/>
        <path id="u" d="M4.243 6.991L.46 17.005l7.567 11.349 14.464 4.228 11.349-3.56V17.45L21.823.76"/>
    </defs>
    <g fill="none" fill-rule="evenodd">
        <g transform="translate(0 .489)">
            <mask id="b" fill="#fff">
                <use xlink:href="#a"/>
            </mask>
            <path fill="#B16B3A" d="M323.693 4.961L306.78.511l-24.033 12.758-40.65 32.045-20.472-5.935-22.253-3.857L166 39.378l-33.372-3.856-22.253 3.857-20.473 5.935-40.65-32.045L25.222.51 8.308 4.961 0 17.423V65.193l5.934 19.88.593 19.88 13.055 26.11.89 27.52-5.934 30.931-2.967 37.978 14.835 24.033 23.143 19.733 5.045 4.301 18.396 38.275 28.587 20.357 10.578 7.534 53.837 11.271V353l.008-.002.007.002v-.004l53.837-11.27 10.579-7.535 28.587-20.357 18.396-38.275 5.044-4.3 23.143-19.734 14.835-24.033-2.966-37.978-5.935-30.932.89-27.52 13.055-26.11.594-19.88 5.935-19.879V17.423z" mask="url(#b)"/>
        </g>
        <path fill="#CC8E58" d="M219.845 197.717l-12.98-42.207-14.54-9.717-26.318-12.455.001-.007-.008.004-.008-.004.002.007-26.318 12.455-14.539 9.717-12.981 42.207-6.342 33.231 33.565-35.16 17.526-5.785L166 133.38l9.096 56.623 17.526 5.785 33.566 35.16z"/>
        <path fill="#2D2113" d="M72.1 52.033l-24.034-27-25.516-7.715-10.089 2.374-3.857 16.616v29.967l13.65 24.33 23.81 14.836 23.662-20.473z"/>
        <path fill="#2C1800" d="M166.008 127.25l-6.083-59.267 6.083.963z"/>
        <g transform="translate(0 .489)">
            <mask id="d" fill="#fff">
                <use xlink:href="#c"/>
            </mask>
            <path fill="#A8633A" d="M112.823 44.127l-22.92 1.187-40.65-32.044L25.222.51 8.306 4.96.001 17.424v30.265l8.603 6.23v-18.1l3.857-16.614 10.09-2.374 25.515 7.714 24.034 27-2.373 32.936-23.664 20.472-15.503 50.07L59.64 166.37l23.365-25.221 8.456 1.855-6.601-18.767 8.547-8.955 3.914-4.1 15.726-2.67 6.527-27.001 15.28-1.187 12.964-12.83 10.773 15.798 7.418 49.55V51.545z" mask="url(#d)"/>
        </g>
        <path fill="#CC8E58" d="M26.407 252.015l-3.236-37.241 17.21-40.055 19.257-7.86-29.077-11.348 73.138-101.103-33.973 30.56-23.662 20.473-26.481 26.11-5.044 58.452-2.967 37.979z"/>
        <path fill="#A8633A" d="M93.76 106.628l25.813-24.627-6.527 27.001-15.725 2.67-5.267 5.517z"/>
        <path fill="#EBE8DB" d="M112.156 279.46l-18.397-15.874-15.428-55.188 8.382-28.483-3.709-24.405 29.151 42.207 20.474-9.198 24.276 1.484-2.024 13.945-16.911 8.011-5.341 13.352 2.67 11.869 4.886 5.48-12.007 29.679h-13.796l-10.683-14.39v10.385z"/>
        <path fill="#5D2900" d="M69.726 84.968L72.1 52.033l19.36 6.528 12.24-4.154z"/>
        <path fill="#5D2900" d="M66.76 56.188l2.966 28.78L72.1 52.035 58.75 37.347z"/>
        <g transform="translate(0 47.489)">
            <mask id="f" fill="#fff">
                <use xlink:href="#e"/>
            </mask>
            <path fill="#A8633A" d="M19.583 84.062L6.528 57.952 0 18.193V.687l8.605 6.231v11.868l13.648 24.33 23.81 14.836z" mask="url(#f)"/>
        </g>
        <path fill="#CC8E58" d="M91.46 143.494l-6.602-18.767 12.462-13.055 15.725-2.67L119.573 82l46.435 51.33-26.333 12.463-14.539 9.717-.296-11.572-12.017-16.69-17.58 6.23z"/>
        <path fill="#A8633A" d="M91.46 143.494v-14.242l24.48-11.168-3.117 9.165-17.58 6.23z"/>
        <path fill="#CC8E58" d="M139.675 145.793l-7.047-49.36 33.38 36.898z"/>
        <path fill="#D6B795" d="M113.491 159.07l-14.464-4.227-7.567-11.35-8.456-1.854-4.673 5.045 4.673 8.826 4.757 6.887 24.395 35.32 12.981-42.207z"/>
        <path fill="#DBD5C3" d="M130.403 306.164l-6.714-23.5-11.534-3.204-18.395-15.874-5.426-19.407-22.91 28.16-10.83 3.71 18.396 38.274 28.587 20.358 22.112-11.188 21.16-10.706z"/>
        <path fill="#2D2113" d="M259.9 52.033l24.034-27 25.518-7.715 10.088 2.374 3.857 16.616v29.967l-13.65 24.33-23.81 14.836-23.662-20.473z"/>
        <path fill="#2C1800" d="M207.161 155.51v-11.57l12.017-16.69 17.58 6.23 3.782 10.013-7.566 11.35-14.464 4.228z"/>
        <g>
            <g transform="translate(207 126.489)">
                <mask id="h" fill="#fff">
                    <use xlink:href="#g"/>
                </mask>
                <path fill="#4D2F00" d="M15.349 20.852c5.495 0 10.102-3.8 11.34-8.916.064.519.1 1.045.1 1.582 0 6.584-5.014 11.923-11.2 11.923-6.185 0-11.2-5.34-11.2-11.923 0-.101.005-.201.007-.301 1.642 4.456 5.927 7.635 10.953 7.635" mask="url(#h)"/>
            </g>
            <g transform="translate(207 126.489)">
                <mask id="j" fill="#fff">
                    <use xlink:href="#i"/>
                </mask>
                <path fill="#2C1800" d="M15.349 20.852c-5.026 0-9.311-3.18-10.953-7.635.15-6.446 5.102-11.622 11.193-11.622 5.682 0 10.372 4.505 11.1 10.34-1.238 5.117-5.845 8.917-11.34 8.917" mask="url(#j)"/>
            </g>
            <g transform="translate(207 126.489)">
                <mask id="l" fill="#fff">
                    <use xlink:href="#k"/>
                </mask>
                <path fill="#ECD9CB" d="M20.189 13.89l5.786-1.78S23.75 6.1 15.07 7.436c0 0 4.45 3.784 5.118 6.454" mask="url(#l)"/>
            </g>
        </g>
        <g>
            <path fill="#2C1800" d="M165.992 127.25l6.083-59.267-6.083.963z"/>
            <path fill="#262626" d="M194.031 211.959l-16.912-8.011h-22.238l-16.912 8.011-5.34 13.352 2.67 11.869 14.02 15.725 16.673 5.039v.005l.008-.003.008.003v-.005l16.674-5.039 14.02-15.725 2.67-11.869z"/>
            <path fill="#000" d="M173.41 234.212l5.86 2.077h7.64l5.638-9.94-10.83-7.714-15.71-3.26v-.004l-.008.002-.008-.002v.004l-15.71 3.26-10.83 7.715 5.638 9.939h7.64l5.86-2.077-5.044 6.677-13.36 1.77 9.132 10.246 16.674 5.039v.005l.008-.003.008.003v-.005l16.674-5.04 9.133-10.244-13.36-1.771z"/>
            <path fill="#000" d="M217.62 272.339h-13.798l-37.814-8.452v-.004l-.008.002-.008-.002v.004l-37.814 8.452h-13.797l-10.682-14.39v10.385l8.456 11.126 16.023 4.45 21.14-9.791 16.674 4.892v.005l.008-.003.008.003v-.005l16.674-4.892 21.14 9.792 16.023-4.451 8.456-11.126v-10.385z"/>
            <path fill="#918A85" d="M203.822 283.911l-21.14-9.792-16.681 4.894-16.683-4.894-21.14 9.792 21.14 11.423 16.675 3.261v.003h.016v-.003l16.674-3.26z"/>
            <path fill="#5C524A" d="M203.822 272.339l-12.007-29.68-9.132 10.246-16.683 5.04-16.681-5.04-9.133-10.245-12.009 29.679L166 263.885z"/>
            <path fill="#EBE8DB" d="M203.822 283.911l-21.14 11.423-16.681 3.263-16.683-3.263-21.14-11.423-4.49-1.247 6.716 23.5L152.73 316.4l13.262 3.557v.004l.007-.002.008.002v-.004l13.262-3.557 22.327-10.236 6.714-23.5z"/>
            <g transform="translate(165 .489)">
                <mask id="n" fill="#fff">
                    <use xlink:href="#m"/>
                </mask>
                <path fill="#A8633A" d="M54.178 44.127l22.92 1.187 40.649-32.044L141.781.51l16.912 4.45 8.308 12.463v30.265l-8.604 6.23v-18.1l-3.858-16.614-10.088-2.374-25.517 7.714-24.033 27 2.374 32.936 23.662 20.472 15.503 50.07-29.077 11.349-23.367-25.221-8.456 1.855 6.602-18.767-8.548-8.955-3.913-4.1-15.726-2.67-6.528-27.001-15.28-1.187-12.963-12.83L8.41 83.293l-7.418 49.55V51.545z" mask="url(#n)"/>
            </g>
            <path fill="#CC8E58" d="M305.594 252.015l3.235-37.241-17.209-40.055-19.257-7.86 29.077-11.348-73.139-101.103 33.974 30.56 23.662 20.473 26.481 26.11 5.044 58.452 2.967 37.979z"/>
            <path fill="#A8633A" d="M242.098 45.803l-20.473-5.935-22.253-3.857L166 39.868l-33.371-3.857-22.254 3.857-20.472 5.935 22.92-1.187 53.17 7.416h.015l53.17-7.416zM238.241 106.628l-25.814-24.627 6.528 27.001 15.725 2.67 5.267 5.517z"/>
            <path fill="#EBE8DB" d="M219.845 279.46l18.396-15.874 15.429-55.188-8.382-28.483 3.708-24.405-29.151 42.207-20.473-9.198-24.276 1.484 2.023 13.945 16.913 8.011 5.34 13.352-2.67 11.869-4.886 5.48 12.007 29.679h13.796l10.682-14.39v10.385z"/>
            <path fill="#A8633A" d="M166.008 133.315l46.419-51.313-15.28-1.188-12.963-12.83 2.375-10.313-20.551-5.633v-.004l-.008.002-.008-.002v.004l-20.55 5.633 2.375 10.313-12.963 12.83-15.281 1.188 46.419 51.313v.017l.008-.01.008.01z"/>
            <path fill="#5D2900" d="M262.275 84.968L259.9 52.033l-19.36 6.528-12.24-4.154z"/>
            <path fill="#5D2900" d="M265.241 56.188l-2.967 28.78-2.374-32.934 13.352-14.687z"/>
            <path fill="#A8633A" d="M312.418 131.551l13.055-26.11 6.528-39.759V48.176l-8.604 6.231v11.868l-13.65 24.33-23.81 14.836z"/>
            <path fill="#CC8E58" d="M240.54 143.494l6.602-18.767-12.46-13.055-15.727-2.67L212.427 82l-46.435 51.33 26.333 12.463 14.54 9.717.296-11.572 12.017-16.69 17.58 6.23z"/>
            <path fill="#A8633A" d="M240.54 143.494v-14.242l-24.479-11.168 3.117 9.165 17.58 6.23z"/>
            <path fill="#CC8E58" d="M192.325 145.793l7.047-49.36-33.38 36.898z"/>
            <g transform="translate(101 312.489)">
                <mask id="p" fill="#fff">
                    <use xlink:href="#o"/>
                </mask>
                <path fill="#807664" d="M129.424 22.192L86.154.298 78.27 3.912 65 7.47 51.731 3.912 43.848.298.578 22.192l10.577 7.533 53.837 11.272V41l.008-.002.008.002v-.004l53.837-11.272z" mask="url(#p)"/>
            </g>
            <path fill="#DBD5C3" d="M67.432 158.447l-7.794 8.412-19.258 7.86-17.209 40.055 3.236 37.24 23.143 19.733v-25.37l7.833-22.708 15.83-29.438-1.114-41.02zM291.62 174.718l-19.258-7.859-7.794-8.412-4.668-5.236-1.112 41.02 15.83 29.438 7.832 22.708v25.37l23.144-19.733 3.235-37.24z"/>
            <path fill="#D6B795" d="M248.997 141.64l-8.457 1.853-7.565 11.35-14.465 4.228-11.646-3.56 12.981 42.206 24.395-35.32 4.757-6.887 4.673-8.827z"/>
            <path fill="#CFC7AF" d="M259.9 153.211l-6.23-6.528-4.673 8.827-3.708 24.405 8.382 28.484-10.003 35.78 22.909 28.16 10.83 3.709 21.227-18.099z"/>
            <path fill="#DBD5C3" d="M266.576 272.339l-22.909-28.16-5.426 19.407-18.396 15.874-11.534 3.204-6.714 23.5-14.445 6.623 21.16 10.706 22.112 11.188 28.587-20.358 18.395-38.275z"/>
            <path fill="#CFC7AF" d="M72.1 153.211l6.23-6.528 4.674 8.827 3.709 24.405-8.382 28.484 10.003 35.78-22.91 28.16-10.83 3.709-21.227-18.099z"/>
            <path fill="#2C1800" d="M124.84 155.51v-11.57l-12.017-16.69-17.58 6.23-3.783 10.013 7.567 11.35 14.464 4.228z"/>
        </g>
        <g>
            <g transform="translate(91 126.489)">
                <mask id="r" fill="#fff">
                    <use xlink:href="#q"/>
                </mask>
                <path fill="#4D2F00" d="M18.652 20.852c-5.496 0-10.1-3.8-11.339-8.916a12.7 12.7 0 0 0-.1 1.582c0 6.584 5.013 11.923 11.2 11.923 6.184 0 11.2-5.34 11.2-11.923 0-.101-.006-.201-.008-.301-1.642 4.456-5.926 7.635-10.953 7.635" mask="url(#r)"/>
            </g>
            <g transform="translate(91 126.489)">
                <mask id="t" fill="#fff">
                    <use xlink:href="#s"/>
                </mask>
                <path fill="#2C1800" d="M18.652 20.852c5.027 0 9.311-3.18 10.953-7.635-.15-6.446-5.102-11.622-11.193-11.622-5.682 0-10.372 4.505-11.099 10.34 1.238 5.117 5.843 8.917 11.34 8.917" mask="url(#t)"/>
            </g>
            <g transform="translate(91 126.489)">
                <mask id="v" fill="#fff">
                    <use xlink:href="#u"/>
                </mask>
                <path fill="#ECD9CB" d="M13.812 13.89l-5.786-1.78S10.251 6.1 18.93 7.436c0 0-4.45 3.784-5.118 6.454" mask="url(#v)"/>
            </g>
        </g>
        <path fill="#D9AA8B" d="M165.992 133.338l-11.11 70.61H177.118z"/>
        <path fill="#F8F8F8" d="M447.448 124.25v-.065c16.695 0 29.764 6.609 38.833 15.57 9.495 9.504 14.242 21.996 14.242 37.479 0 15.482-4.747 27.93-14.242 37.347-10.46 10.336-23.405 15.504-38.833 15.504h-28.285V124.25h28.285zm31.779 52.82c0-18.95-12.702-31.797-31.845-31.797h-6.923v63.592h7.12c19.16 0 31.648-12.673 31.648-31.796zM561.012 123.331c14.813 0 27.515 5.278 38.108 15.833 10.593 10.554 15.89 23.234 15.89 38.037 0 14.847-5.297 27.504-15.89 37.971-10.549 10.424-23.252 15.635-38.108 15.635-14.9-.043-27.603-5.255-38.109-15.635-10.549-10.511-15.823-23.168-15.823-37.971 0-14.76 5.274-27.439 15.823-38.037 10.593-10.555 23.296-15.833 38.109-15.833zm0 21.482c-9.01 0-16.637 3.154-22.878 9.46-6.33 6.395-9.495 13.993-9.495 22.796 0 8.891 3.165 16.49 9.495 22.796 6.285 6.263 13.911 9.395 22.878 9.395 8.835 0 16.439-3.132 22.812-9.395 6.373-6.263 9.56-13.861 9.56-22.796 0-8.847-3.187-16.445-9.56-22.796-6.33-6.306-13.933-9.46-22.812-9.46zM675.301 123.331l.066.197c16.408 0 29.49 7.204 38.174 15.701l-15.23 15.176c-6.461-6.35-14.065-9.526-22.812-9.526-8.923 0-16.527 3.175-22.812 9.526-6.33 6.306-9.494 13.905-9.494 22.796 0 8.89 3.164 16.489 9.494 22.796 6.241 6.306 13.845 9.46 22.812 9.46 13.813 0 24.489-8.554 29.142-18.526h-30.329v-20.3h54.591c1.52 19.792-4.998 34.16-15.493 44.541-10.593 10.467-23.296 15.701-38.109 15.701-14.944 0-27.625-5.234-38.042-15.7-10.55-10.424-15.824-23.082-15.824-37.972 0-14.76 5.275-27.439 15.824-38.037 10.46-10.555 23.142-15.833 38.042-15.833zM739.614 123.922H803.7v21.22h-42.724v21.35h32.043v21.22h-32.043v21.35H803.7v21.154h-64.086zM858.014 123.857h5.67c3.64 0 7.23.33 10.774.989a51.335 51.335 0 0 1 9.995 3.178c3.355 1.507 6.426 3.178 9.214 5.014a86.248 86.248 0 0 1 4.678 3.461l-10.136 10.1a39.377 39.377 0 0 0-9.427-5.721c-4.678-1.93-9.663-2.896-14.956-2.896-5.292 0-10.301.965-15.026 2.896-4.679 2.025-8.884 4.897-12.617 8.616-3.78 3.767-6.64 7.981-8.577 12.642h-.07c-1.891 4.615-2.836 9.606-2.836 14.973 0 5.462.945 10.476 2.835 15.044 1.985 4.661 4.867 8.851 8.648 12.571 3.638 3.767 7.844 6.615 12.617 8.546 4.725 1.93 9.734 2.896 15.026 2.896 5.293 0 10.325-.966 15.098-2.896 3.544-1.46 6.686-3.343 9.427-5.65l10.065 10.1a54.67 54.67 0 0 1-4.678 3.46c-2.977 2.025-6.048 3.696-9.214 5.015-3.403 1.46-6.734 2.495-9.995 3.107-3.402.706-6.993 1.06-10.774 1.06-7.324 0-14.152-1.295-20.484-3.885-6.332-2.59-12.097-6.498-17.295-11.724-5.34-5.273-9.262-11.041-11.766-17.303-2.6-6.121-3.899-12.925-3.899-20.411 0-7.44 1.3-14.243 3.899-20.411 2.504-6.168 6.426-11.96 11.766-17.375 5.292-5.273 11.057-9.204 17.295-11.794 4.583-1.883 9.498-3.084 14.743-3.602zM950.731 123.433l45.293 106.01h-15.097l-7.797-17.303h-44.797l-7.797 17.303h-15.098l45.293-106.01zm-17.224 77.407h34.448c-2.882-6.592-5.753-13.678-8.612-21.259-2.859-7.58-5.706-14.69-8.54-21.329-2.883 6.639-5.778 13.749-8.684 21.33-2.906 7.58-5.777 14.666-8.612 21.258zM1033.956 216.268a21.526 21.526 0 0 0 6.426-1.496 22.1 22.1 0 0 0 5.674-3.281c1.686-1.352 3.045-3.017 4.075-4.997a13.546 13.546 0 0 0 1.547-6.347c.043-1.885-.35-3.648-1.18-5.288-.83-1.64-1.89-3.035-3.182-4.185-1.291-1.15-2.89-2.225-4.795-3.226-1.905-1.001-3.721-1.811-5.449-2.43a77.06 77.06 0 0 0-5.712-1.779c-4.666-1.29-8.815-2.95-12.448-4.981-3.633-2.03-6.82-4.694-9.563-7.99a25.167 25.167 0 0 1-4.336-7.583 25.569 25.569 0 0 1-1.534-8.801c0-4.128.78-8.035 2.341-11.722 1.56-3.688 3.74-6.916 6.539-9.685 2.815-2.805 6.082-4.987 9.8-6.547 3.719-1.559 7.651-2.339 11.797-2.339 3.764 0 7.353.649 10.766 1.945a30.641 30.641 0 0 1 9.213 5.479c4.59 3.953 7.7 8.84 9.332 14.658l-14.073 2.962c-.761-2.168-2.028-4.155-3.8-5.96-3.201-3.15-6.964-4.725-11.287-4.725-2.156 0-4.212.418-6.168 1.254a16.325 16.325 0 0 0-5.158 3.47 16.445 16.445 0 0 0-3.513 5.163 15.25 15.25 0 0 0-1.265 6.122c0 1.543.233 2.987.7 4.33.467 1.345 1.061 2.508 1.783 3.49.72.983 1.658 1.918 2.81 2.806 1.152.888 2.267 1.623 3.345 2.205 1.079.581 2.364 1.17 3.856 1.765a57.318 57.318 0 0 0 3.874 1.41c1.09.345 2.378.75 3.866 1.216 1.487.467 2.619.837 3.395 1.11 2.575.91 5.02 1.982 7.334 3.216a42.053 42.053 0 0 1 6.667 4.434c2.13 1.723 3.966 3.583 5.507 5.58 1.541 1.997 2.77 4.267 3.687 6.81a23.316 23.316 0 0 1 1.374 7.966c0 4.146-.9 8.11-2.7 11.892-1.8 3.783-4.179 7.01-7.136 9.683-2.956 2.673-6.391 4.8-10.304 6.382-3.912 1.582-7.922 2.373-12.03 2.373-4.525 0-8.901-.919-13.127-2.757a33.088 33.088 0 0 1-11.083-7.832c-3.163-3.383-5.414-7.227-6.756-11.53l14.148-3c1.316 3.16 3.566 5.743 6.75 7.75 3.184 2.007 6.515 3.01 9.993 3.01zM1077.476 124.422h14.035v45.554h46.994v-45.554h14.034v105.021h-14.034V183.89h-46.994v45.554h-14.035z"/>
    </g>
</svg>
