<?xml version="1.0" encoding="UTF-8"?>
<svg width="132px" height="141px" viewBox="0 0 132 141" version="1.1" xmlns="http://www.w3.org/2000/svg" xmlns:xlink="http://www.w3.org/1999/xlink">
    <!-- Generator: Sketch 50.2 (55047) - http://www.bohemiancoding.com/sketch -->
    <title>Slice 1</title>
    <desc>Created with Sketch.</desc>
    <defs>
        <polygon id="path-1" points="0 0.202 131.19 0.202 131.19 139.605 0 139.605"></polygon>
        <polygon id="path-3" points="0 0.202 65.598 0.202 65.598 65.796 0 65.796"></polygon>
        <polygon id="path-5" points="0 0.272 18.202 0.272 18.202 33.245 0 33.245"></polygon>
        <polyline id="path-7" points="0.064 6.901 0.064 11.478 4.548 12.886 10.264 11.213 13.254 6.725 11.758 2.765 4.812 0.3"></polyline>
        <polyline id="path-9" points="0.064 6.901 0.064 11.478 4.548 12.886 10.264 11.213 13.254 6.725 11.758 2.765 4.812 0.3"></polyline>
        <polyline id="path-11" points="0.064 6.901 0.064 11.478 4.548 12.886 10.264 11.213 13.254 6.725 11.758 2.765 4.812 0.3"></polyline>
        <polygon id="path-13" points="0.392 0.202 65.99 0.202 65.99 65.796 0.392 65.796"></polygon>
        <polygon id="path-15" points="0.228 0.118 51.142 0.118 51.142 16.215 0.228 16.215"></polygon>
        <polyline id="path-17" points="1.677 2.765 0.182 6.725 3.172 11.213 8.887 12.886 13.372 11.478 13.372 6.9 8.623 0.301"></polyline>
        <polyline id="path-19" points="1.677 2.765 0.182 6.725 3.172 11.213 8.887 12.886 13.372 11.478 13.372 6.9 8.623 0.301"></polyline>
        <polyline id="path-21" points="1.677 2.765 0.182 6.725 3.172 11.213 8.887 12.886 13.372 11.478 13.372 6.9 8.623 0.301"></polyline>
    </defs>
    <g id="Page-1" stroke="none" stroke-width="1" fill="none" fill-rule="evenodd">
        <g id="logo">
            <g id="Group" transform="translate(0.000000, 0.193000)">
                <g id="Clipped">
                    <mask id="mask-2" fill="white">
                        <use xlink:href="#path-1"></use>
                    </mask>
                    <g id="a"></g>
                    <polygon id="Shape" fill="#B16B3A" fill-rule="nonzero" mask="url(#mask-2)" points="127.906 1.962 121.224 0.202 111.727 5.248 95.664 17.92 87.574 15.573 78.782 14.047 65.595 15.572 52.408 14.047 43.615 15.573 35.525 17.92 19.462 5.248 9.966 0.202 3.283 1.962 0 6.891 0 25.783 2.345 33.644 2.579 41.507 7.738 51.833 8.09 62.716 5.745 74.95 4.572 89.97 10.434 99.474 19.579 107.278 21.573 108.979 28.842 124.116 40.138 132.167 44.318 135.147 65.592 139.604 65.592 139.606 65.595 139.605 65.597 139.605 65.597 139.604 86.871 135.147 91.051 132.167 102.347 124.117 109.617 108.979 111.61 107.279 120.754 99.474 126.617 89.97 125.444 74.95 123.099 62.717 123.451 51.834 128.61 41.508 128.844 33.645 131.19 25.784 131.19 6.89"></polygon>
                </g>
            </g>
            <polygon id="Shape" fill="#CC8E58" fill-rule="nonzero" points="86.871 78.193 81.742 61.501 75.997 57.658 65.597 52.733 65.597 52.73 65.594 52.731 65.591 52.73 65.592 52.733 55.192 57.658 49.448 61.501 44.318 78.193 41.812 91.335 55.075 77.43 62.001 75.143 65.594 52.749 69.189 75.143 76.114 77.43 89.378 91.335"></polygon>
            <polygon id="Shape" fill="#2D2113" fill-rule="nonzero" points="28.49 20.578 18.993 9.9 8.911 6.85 4.924 7.789 3.4 14.359 3.4 26.211 8.793 35.833 18.202 41.7 27.552 33.603"></polygon>
            <polygon id="Shape" fill="#2C1800" fill-rule="nonzero" points="65.598 50.325 63.194 26.886 65.598 27.266"></polygon>
            <g id="Group" transform="translate(0.000000, 0.193000)">
                <g id="Clipped">
                    <mask id="mask-4" fill="white">
                        <use xlink:href="#path-3"></use>
                    </mask>
                    <g id="c"></g>
                    <polygon id="Shape" fill="#A8633A" fill-rule="nonzero" mask="url(#mask-4)" points="44.582 17.451 35.525 17.921 19.462 5.248 9.966 0.202 3.283 1.962 0 6.89 0 18.86 3.4 21.324 3.4 14.166 4.924 7.595 8.911 6.655 18.993 9.707 28.49 20.385 27.552 33.41 18.202 41.506 12.076 61.308 23.566 65.796 32.799 55.822 36.14 56.556 33.532 49.134 36.909 45.592 38.456 43.971 44.67 42.915 47.25 32.236 53.287 31.766 58.41 26.693 62.667 32.941 65.597 52.537 65.597 20.385"></polygon>
                </g>
            </g>
            <polygon id="Shape" fill="#CC8E58" fill-rule="nonzero" points="10.435 99.667 9.156 84.939 15.956 69.098 23.566 65.99 12.076 61.501 40.976 21.517 27.552 33.603 18.202 41.7 7.738 52.026 5.745 75.142 4.573 90.162"></polygon>
            <polygon id="Shape" fill="#A8633A" fill-rule="nonzero" points="37.049 42.17 47.249 32.43 44.669 43.108 38.456 44.164 36.375 46.346"></polygon>
            <polygon id="Shape" fill="#EBE8DB" fill-rule="nonzero" points="44.318 110.52 37.048 104.243 30.952 82.417 34.265 71.153 32.799 61.501 44.318 78.193 52.408 74.556 62 75.142 61.201 80.657 54.518 83.826 52.408 89.106 53.463 93.8 55.393 95.967 50.649 107.705 45.198 107.705 40.977 102.014 40.977 106.121"></polygon>
            <polygon id="Shape" fill="#5D2900" fill-rule="nonzero" points="27.552 33.603 28.49 20.578 36.14 23.16 40.976 21.517"></polygon>
            <polygon id="Shape" fill="#5D2900" fill-rule="nonzero" points="26.38 22.221 27.552 33.603 28.49 20.578 23.214 14.77"></polygon>
            <g id="Group" transform="translate(0.000000, 18.781000)">
                <g id="Clipped">
                    <mask id="mask-6" fill="white">
                        <use xlink:href="#path-5"></use>
                    </mask>
                    <g id="e"></g>
                    <polygon id="Shape" fill="#A8633A" fill-rule="nonzero" mask="url(#mask-6)" points="7.738 33.245 2.58 22.919 0 7.195 0 0.272 3.4 2.736 3.4 7.43 8.793 17.052 18.202 22.919"></polygon>
                </g>
            </g>
            <polygon id="Shape" fill="#CC8E58" fill-rule="nonzero" points="36.14 56.749 33.531 49.327 38.456 44.164 44.67 43.108 47.249 32.43 65.598 52.73 55.192 57.659 49.447 61.501 49.33 56.925 44.582 50.325 37.635 52.789"></polygon>
            <polygon id="Shape" fill="#A8633A" fill-rule="nonzero" points="36.14 56.749 36.14 51.116 45.813 46.7 44.582 50.324 37.635 52.789"></polygon>
            <polygon id="Shape" fill="#CC8E58" fill-rule="nonzero" points="55.192 57.658 52.408 38.138 65.598 52.73"></polygon>
            <polygon id="Shape" fill="#D6B795" fill-rule="nonzero" points="44.846 62.91 39.13 61.237 36.14 56.749 32.799 56.015 30.952 58.011 32.8 61.5 34.68 64.224 44.32 78.192 49.449 61.5"></polygon>
            <polygon id="Shape" fill="#DBD5C3" fill-rule="nonzero" points="51.528 121.082 48.875 111.788 44.318 110.521 37.049 104.243 34.905 96.568 25.852 107.705 21.572 109.172 28.842 124.309 40.138 132.359 48.875 127.935 57.237 123.701"></polygon>
            <polygon id="Shape" fill="#2D2113" fill-rule="nonzero" points="102.699 20.578 112.196 9.9 122.279 6.849 126.265 7.788 127.789 14.359 127.789 26.211 122.396 35.833 112.987 41.7 103.637 33.603"></polygon>
            <polygon id="Shape" fill="#2C1800" fill-rule="nonzero" points="81.86 61.501 81.86 56.925 86.608 50.325 93.554 52.789 95.049 56.749 92.059 61.237 86.344 62.91"></polygon>
            <g id="Group" transform="translate(81.000000, 50.000000)">
                <g transform="translate(0.795000, 0.024000)" id="Clipped">
                    <g>
                        <mask id="mask-8" fill="white">
                            <use xlink:href="#path-7"></use>
                        </mask>
                        <g id="g"></g>
                        <path d="M6.065,8.247 C8.19348903,8.24591841 10.0449078,6.78866464 10.546,4.72 C10.571,4.926 10.586,5.134 10.586,5.346 C10.586,7.95 8.604,10.061 6.16,10.061 C3.716,10.061 1.734,7.95 1.734,5.346 C1.734,5.306 1.736,5.266 1.737,5.227 C2.40472706,7.04080296 4.13219377,8.24619793 6.065,8.247" id="Shape" fill="#4D2F00" fill-rule="nonzero" mask="url(#mask-8)"></path>
                    </g>
                </g>
                <g transform="translate(0.795000, 0.024000)" id="Clipped">
                    <g>
                        <mask id="mask-10" fill="white">
                            <use xlink:href="#path-9"></use>
                        </mask>
                        <g id="i"></g>
                        <path d="M6.065,8.247 C4.13219377,8.24619793 2.40472706,7.04080296 1.737,5.227 C1.797,2.677 3.753,0.631 6.16,0.631 C8.405,0.631 10.258,2.412 10.546,4.721 C10.0446037,6.78890494 8.19382213,8.24556922 6.066,8.247" id="Shape" fill="#2C1800" fill-rule="nonzero" mask="url(#mask-10)"></path>
                    </g>
                </g>
                <g transform="translate(0.795000, 0.024000)" id="Clipped">
                    <g>
                        <mask id="mask-12" fill="white">
                            <use xlink:href="#path-11"></use>
                        </mask>
                        <g id="k"></g>
                        <path d="M7.978,5.493 L10.264,4.789 C10.264,4.789 9.384,2.413 5.955,2.941 C5.955,2.941 7.714,4.437 7.978,5.493" id="Shape" fill="#ECD9CB" fill-rule="nonzero" mask="url(#mask-12)"></path>
                    </g>
                </g>
            </g>
            <g id="Group" transform="translate(9.000000, 0.000000)">
                <polygon id="Shape" fill="#2C1800" fill-rule="nonzero" points="56.591 50.325 58.995 26.886 56.591 27.266"></polygon>
                <polygon id="Shape" fill="#262626" fill-rule="nonzero" points="67.671 83.826 60.988 80.657 52.201 80.657 45.518 83.826 43.408 89.106 44.463 93.8 50.003 100.019 56.591 102.012 56.591 102.014 56.595 102.013 56.598 102.013 56.598 102.012 63.186 100.019 68.726 93.8 69.782 89.106"></polygon>
                <path d="M59.523,92.626 L61.838,93.448 L64.858,93.448 L67.085,89.517 L62.805,86.466 L56.598,85.176 L56.598,85.175 L56.591,85.175 L56.591,85.177 L50.384,86.466 L46.104,89.516 L48.332,93.448 L51.351,93.448 L53.667,92.626 L51.673,95.266 L46.393,95.967 L50.003,100.019 L56.591,102.012 L56.591,102.014 L56.595,102.013 L56.598,102.013 L56.598,102.012 L63.186,100.019 L66.796,95.967 L61.516,95.267 L59.523,92.626 Z M76.992,107.705 L71.54,107.705 L56.598,104.362 L56.598,104.36 L56.595,104.361 L56.591,104.361 L56.591,104.362 L41.649,107.705 L36.197,107.705 L31.977,102.014 L31.977,106.121 L35.317,110.521 L41.649,112.281 L50.003,108.409 L56.591,110.343 L56.591,110.345 L56.598,110.345 L56.598,110.343 L63.186,108.409 L71.54,112.281 L77.871,110.521 L81.213,106.121 L81.213,102.014 L76.992,107.705 Z" id="Shape" fill="#000000" fill-rule="nonzero"></path>
                <polygon id="Shape" fill="#918A85" fill-rule="nonzero" points="71.54 112.281 63.186 108.409 56.595 110.344 50.003 108.409 41.649 112.281 50.003 116.799 56.591 118.089 56.598 118.089 63.186 116.799"></polygon>
                <polygon id="Shape" fill="#5C524A" fill-rule="nonzero" points="71.54 107.705 66.795 95.967 63.186 100.019 56.595 102.013 50.003 100.019 46.393 95.967 41.649 107.705 56.595 104.361"></polygon>
                <polygon id="Shape" fill="#EBE8DB" fill-rule="nonzero" points="71.54 112.281 63.186 116.799 56.595 118.089 50.003 116.799 41.649 112.281 39.875 111.788 42.529 121.082 51.351 125.13 56.591 126.537 56.591 126.538 56.598 126.538 56.598 126.537 61.838 125.13 70.661 121.082 73.314 111.788"></polygon>
                <g transform="translate(56.200000, 0.193000)" id="Clipped">
                    <g>
                        <mask id="mask-14" fill="white">
                            <use xlink:href="#path-13"></use>
                        </mask>
                        <g id="m"></g>
                        <polygon id="Shape" fill="#A8633A" fill-rule="nonzero" mask="url(#mask-14)" points="21.408 17.451 30.465 17.921 46.527 5.248 56.024 0.202 62.707 1.962 65.99 6.89 65.99 18.86 62.59 21.324 62.59 14.166 61.066 7.595 57.079 6.655 46.996 9.707 37.5 20.385 38.438 33.41 47.788 41.506 53.914 61.308 42.424 65.796 33.191 55.822 29.849 56.556 32.459 49.134 29.08 45.592 27.534 43.971 21.32 42.915 18.74 32.236 12.703 31.766 7.581 26.693 3.323 32.941 0.392 52.537 0.392 20.385"></polygon>
                    </g>
                </g>
                <polygon id="Shape" fill="#CC8E58" fill-rule="nonzero" points="111.755 99.667 113.033 84.939 106.233 69.098 98.623 65.99 110.113 61.501 81.213 21.517 94.637 33.603 103.987 41.7 114.451 52.026 116.444 75.142 117.617 90.162"></polygon>
                <path d="M86.664,18.114 L78.574,15.767 L69.781,14.242 L56.594,15.767 L43.408,14.242 L34.614,15.767 L26.524,18.114 L35.582,17.644 L56.592,20.578 L56.598,20.578 L77.608,17.645 L86.664,18.114 Z M85.14,42.17 L74.94,32.43 L77.52,43.108 L83.733,44.164 L85.815,46.346 L85.14,42.17 Z" id="Shape" fill="#A8633A" fill-rule="nonzero"></path>
                <polygon id="Shape" fill="#EBE8DB" fill-rule="nonzero" points="77.871 110.52 85.141 104.243 91.237 82.417 87.925 71.153 89.39 61.5 77.871 78.193 69.781 74.556 60.189 75.142 60.989 80.657 67.671 83.826 69.781 89.106 68.726 93.8 66.796 95.967 71.54 107.705 76.992 107.705 81.212 102.014 81.212 106.121"></polygon>
                <polygon id="Shape" fill="#A8633A" fill-rule="nonzero" points="56.598 52.723 74.94 32.43 68.902 31.96 63.78 26.886 64.718 22.808 56.598 20.58 56.598 20.578 56.594 20.579 56.591 20.579 48.471 22.808 49.409 26.886 44.287 31.96 38.249 32.43 56.59 52.723 56.59 52.73 56.593 52.726 56.597 52.73"></polygon>
                <polygon id="Shape" fill="#5D2900" fill-rule="nonzero" points="94.637 33.603 93.699 20.578 86.049 23.16 81.212 21.517"></polygon>
                <polygon id="Shape" fill="#5D2900" fill-rule="nonzero" points="95.81 22.221 94.637 33.603 93.699 20.578 98.975 14.77"></polygon>
                <polygon id="Shape" fill="#A8633A" fill-rule="nonzero" points="114.451 52.026 119.61 41.7 122.19 25.976 122.19 19.053 118.79 21.517 118.79 26.211 113.396 35.833 103.987 41.7"></polygon>
                <polygon id="Shape" fill="#CC8E58" fill-rule="nonzero" points="86.049 56.749 88.658 49.327 83.734 44.164 77.52 43.108 74.94 32.43 56.591 52.73 66.997 57.659 72.742 61.501 72.859 56.925 77.608 50.325 84.554 52.789"></polygon>
                <polygon id="Shape" fill="#A8633A" fill-rule="nonzero" points="86.049 56.749 86.049 51.116 76.376 46.7 77.608 50.324 84.554 52.789"></polygon>
                <polygon id="Shape" fill="#CC8E58" fill-rule="nonzero" points="66.997 57.658 69.781 38.138 56.591 52.73"></polygon>
                <g transform="translate(30.910000, 123.583000)" id="Clipped">
                    <g>
                        <mask id="mask-16" fill="white">
                            <use xlink:href="#path-15"></use>
                        </mask>
                        <g id="o"></g>
                        <polygon id="Shape" fill="#807664" fill-rule="nonzero" mask="url(#mask-16)" points="51.142 8.776 34.043 0.118 30.928 1.547 25.685 2.954 20.441 1.547 17.326 0.117 0.228 8.778 4.408 11.757 25.681 16.214 25.681 16.216 25.688 16.216 25.688 16.214 46.961 11.757"></polygon>
                    </g>
                </g>
                <path d="M17.646,62.663 L14.566,65.99 L6.956,69.098 L0.156,84.939 L1.435,99.667 L10.58,107.471 L10.58,97.437 L13.675,88.457 L19.93,76.815 L19.49,60.592 L17.646,62.663 Z M106.233,69.098 L98.623,65.99 L95.543,62.663 L93.699,60.592 L93.259,76.815 L99.514,88.457 L102.61,97.437 L102.61,107.471 L111.755,99.667 L113.033,84.939 L106.233,69.098 Z" id="Shape" fill="#DBD5C3" fill-rule="nonzero"></path>
                <polygon id="Shape" fill="#D6B795" fill-rule="nonzero" points="89.39 56.016 86.049 56.749 83.059 61.237 77.344 62.91 72.742 61.501 77.872 78.193 87.511 64.225 89.391 61.501 91.237 58.011"></polygon>
                <polygon id="Shape" fill="#CFC7AF" fill-rule="nonzero" points="93.699 60.592 91.237 58.01 89.39 61.501 87.925 71.153 91.237 82.418 87.285 96.568 96.337 107.705 100.617 109.172 109.004 102.014"></polygon>
                <polygon id="Shape" fill="#DBD5C3" fill-rule="nonzero" points="96.337 107.705 87.285 96.568 85.14 104.243 77.871 110.521 73.314 111.788 70.661 121.082 64.953 123.701 73.313 127.935 82.052 132.36 93.348 124.308 100.616 109.171"></polygon>
                <polygon id="Shape" fill="#CFC7AF" fill-rule="nonzero" points="19.49 60.592 21.952 58.01 23.799 61.501 25.264 71.153 21.952 82.418 25.905 96.568 16.852 107.705 12.573 109.172 4.185 102.014"></polygon>
                <polygon id="Shape" fill="#2C1800" fill-rule="nonzero" points="40.33 61.501 40.33 56.925 35.582 50.325 28.635 52.789 27.14 56.749 30.13 61.237 35.846 62.91"></polygon>
            </g>
            <g id="Group" transform="translate(35.000000, 50.000000)">
                <g transform="translate(0.958000, 0.024000)" id="Clipped">
                    <g>
                        <mask id="mask-18" fill="white">
                            <use xlink:href="#path-17"></use>
                        </mask>
                        <g id="q"></g>
                        <path d="M7.37,8.247 C5.24175855,8.24581988 3.39068101,6.78850951 2.89,4.72 C2.864,4.926 2.85,5.134 2.85,5.346 C2.85,7.95 4.831,10.061 7.275,10.061 C9.719,10.061 11.701,7.95 11.701,5.346 C11.701,5.306 11.699,5.266 11.698,5.227 C11.0305154,7.04099 9.30289813,8.24649003 7.37,8.247" id="Shape" fill="#4D2F00" fill-rule="nonzero" mask="url(#mask-18)"></path>
                    </g>
                </g>
                <g transform="translate(0.958000, 0.024000)" id="Clipped">
                    <g>
                        <mask id="mask-20" fill="white">
                            <use xlink:href="#path-19"></use>
                        </mask>
                        <g id="s"></g>
                        <path d="M7.37,8.247 C9.30289813,8.24649003 11.0305154,7.04099 11.698,5.227 C11.638,2.677 9.682,0.631 7.275,0.631 C5.03,0.63 3.177,2.412 2.89,4.72 C3.39107337,6.78811231 5.24205218,8.2449318 7.37,8.246" id="Shape" fill="#2C1800" fill-rule="nonzero" mask="url(#mask-20)"></path>
                    </g>
                </g>
                <g transform="translate(0.958000, 0.024000)" id="Clipped">
                    <g>
                        <mask id="mask-22" fill="white">
                            <use xlink:href="#path-21"></use>
                        </mask>
                        <g id="u"></g>
                        <path d="M5.458,5.493 L3.172,4.789 C3.172,4.789 4.05,2.413 7.48,2.941 C7.48,2.941 5.721,4.437 5.458,5.493" id="Shape" fill="#ECD9CB" fill-rule="nonzero" mask="url(#mask-22)"></path>
                    </g>
                </g>
            </g>
            <polygon id="Shape" fill="#D9AA8B" fill-rule="nonzero" points="65.591 52.733 61.201 80.658 69.988 80.658"></polygon>
        </g>
    </g>
</svg>