<?xml version="1.0" encoding="UTF-8"?>
<svg width="541px" height="140px" viewBox="0 0 541 140" version="1.1" xmlns="http://www.w3.org/2000/svg" xmlns:xlink="http://www.w3.org/1999/xlink">
    <!-- Generator: Sketch 50.2 (55047) - http://www.bohemiancoding.com/sketch -->
    <title>logo2</title>
    <desc>Created with Sketch.</desc>
    <defs>
        <polygon id="path-1" points="0.000237088388 0.202090395 131.18954 0.202090395 131.18954 139.60452 0.000237088388 139.60452"></polygon>
        <polygon id="path-3" points="0.000197573657 0.202090395 65.5978128 0.202090395 65.5978128 65.796322 0.000197573657 65.796322"></polygon>
        <polygon id="path-5" points="0 0.271813559 18.2019473 0.271813559 18.2019473 33.2449774 0 33.2449774"></polygon>
        <polyline id="path-7" points="0.0636187175 6.90112994 0.0636187175 11.4776271 4.54814558 12.8855367 10.2639515 11.2134463 13.2532409 6.72514124 11.7583986 2.76480226 4.81210399 0.300564972"></polyline>
        <polyline id="path-9" points="0.0636187175 6.90112994 0.0636187175 11.4776271 4.54814558 12.8855367 10.2639515 11.2134463 13.2532409 6.72514124 11.7583986 2.76480226 4.81210399 0.300564972"></polyline>
        <polyline id="path-11" points="0.0636187175 6.90112994 0.0636187175 11.4776271 4.54814558 12.8855367 10.2639515 11.2134463 13.2532409 6.72514124 11.7583986 2.76480226 4.81210399 0.300564972"></polyline>
        <polygon id="path-13" points="0.391986135 0.202090395 65.9899965 0.202090395 65.9899965 65.796322 0.391986135 65.796322"></polygon>
        <polygon id="path-15" points="0.228039515 0.117734463 51.1415854 0.117734463 51.1415854 16.2146893 0.228039515 16.2146893"></polygon>
        <polyline id="path-17" points="1.67661005 2.76480226 0.181767764 6.72514124 3.17184749 11.2134463 8.88725823 12.8855367 13.3717851 11.4776271 13.3717851 6.90112994 8.62329983 0.300564972"></polyline>
        <polyline id="path-19" points="1.67661005 2.76480226 0.181767764 6.72514124 3.17184749 11.2134463 8.88725823 12.8855367 13.3717851 11.4776271 13.3717851 6.90112994 8.62329983 0.300564972"></polyline>
        <polyline id="path-21" points="1.67661005 2.76480226 0.181767764 6.72514124 3.17184749 11.2134463 8.88725823 12.8855367 13.3717851 11.4776271 13.3717851 6.90112994 8.62329983 0.300564972"></polyline>
    </defs>
    <g id="Page-1" stroke="none" stroke-width="1" fill="none" fill-rule="evenodd">
        <g id="Home-Copy-2" transform="translate(-740.000000, -314.000000)">
            <g id="logo2" transform="translate(740.000000, 314.000000)">
                <g id="Group-136" stroke-width="1">
                    <g id="Group-56" transform="translate(0.000000, 0.193390)">
                        <path d="M169.481613,50.7781864 L166.580442,50.7781864 L166.580442,77.5478475 L169.564594,77.5478475 C177.593988,77.5478475 182.827319,72.2128192 182.827319,64.1628192 C182.827319,56.1863785 177.504289,50.7781864 169.481613,50.7781864 Z M169.508878,41.9012373 C176.505752,41.9012373 181.983284,44.6830452 185.784206,48.4551356 C189.762944,52.4558136 191.752511,57.7149096 191.752511,64.2324237 C191.752511,70.7499379 189.762944,75.9900508 185.784206,79.9539492 C181.400046,84.3046271 175.975069,86.4805593 169.508878,86.4805593 L157.655249,86.4805593 L157.655249,41.9289209 L169.508878,41.9289209 L169.508878,41.9012373 Z" id="Fill-1" fill="#703B1E"></path>
                        <path d="M206.976628,54.5669266 C204.324004,57.2589605 202.99789,60.4576045 202.99789,64.1628588 C202.99789,67.9056836 204.324004,71.1043277 206.976628,73.7595819 C209.611075,76.3958531 212.807027,77.7139887 216.564878,77.7139887 C220.267408,77.7139887 223.453876,76.3958531 226.125467,73.7595819 C228.796268,71.1229153 230.131866,67.9242712 230.131866,64.1628588 C230.131866,60.4390169 228.796268,57.2403729 226.125467,54.5669266 C223.472843,51.9120678 220.28598,50.5848362 216.564878,50.5848362 C212.788455,50.5848362 209.592503,51.9120678 206.976628,54.5669266 M232.535942,48.2064181 C236.975422,52.6496384 239.194964,57.9866441 239.194964,64.218226 C239.194964,70.4683955 236.975422,75.7967006 232.535942,80.2027458 C228.114638,84.5905989 222.790819,86.7847232 216.564878,86.7847232 C210.319969,86.7665311 204.996545,84.5724068 200.593814,80.2027458 C196.172905,75.7777175 193.962056,70.4502034 193.962056,64.218226 C193.962056,58.0052316 196.172905,52.668226 200.593814,48.2064181 C205.033294,43.7631977 210.357113,41.5413898 216.564878,41.5413898 C222.772642,41.5413898 228.096067,43.7631977 232.535942,48.2064181" id="Fill-3" fill="#703B1E"></path>
                        <path d="M263.951536,41.6247966 C270.828285,41.6247966 276.310559,44.6569435 279.950261,48.2336667 L273.567446,54.6222542 C270.859502,51.9492034 267.672638,50.6124802 264.007252,50.6124802 C260.267578,50.6124802 257.080715,51.9492034 254.446268,54.6222542 C251.793644,57.277113 250.467529,60.4757571 250.467529,64.2181864 C250.467529,67.9610113 251.793644,71.1596554 254.446268,73.8149096 C257.062143,76.4693729 260.249006,77.7966045 264.007252,77.7966045 C269.795765,77.7966045 274.270018,74.1961525 276.22007,69.9981299 L263.509762,69.9981299 L263.509762,61.4529887 L286.388396,61.4529887 C287.025768,69.7845706 284.293325,75.8326497 279.895335,80.2027062 C275.45546,84.6091469 270.132035,86.8123672 263.924271,86.8123672 C257.660791,86.8123672 252.346455,84.6091469 247.980472,80.2027062 C243.559959,75.8152486 241.34911,70.486548 241.34911,64.2181864 C241.34911,58.0051921 243.559959,52.6681864 247.980472,48.2063785 C252.365027,43.7631582 257.679363,41.5417458 263.924271,41.5417458 L263.951536,41.6247966 Z" id="Fill-5" fill="#703B1E"></path>
                        <polygon id="Fill-7" fill="#703B1E" points="317.196491 41.7904633 317.196491 50.7227797 299.291181 50.7227797 299.291181 59.7104633 312.720262 59.7104633 312.720262 68.6431751 299.291181 68.6431751 299.291181 77.6308588 317.196491 77.6308588 317.196491 86.535887 290.338723 86.535887 290.338723 41.7904633"></polygon>
                        <path d="M341.981158,86.7846441 C335.754821,86.766452 330.440485,84.5723277 326.037754,80.2026667 C321.616846,75.7776384 319.406392,70.4501243 319.406392,64.2181469 C319.406392,58.005548 321.616846,52.6681469 326.037754,48.206339 C330.477629,43.7631186 335.79157,41.5417062 341.981158,41.5417062 L341.953497,41.6520452 C348.831432,41.6520452 354.299085,44.7095028 357.979882,48.2617062 L351.596672,54.6498983 C348.9073,51.9950395 345.711348,50.6674124 342.008818,50.6674124 C338.250967,50.6674124 335.064104,51.9950395 332.448229,54.6498983 C329.795605,57.3415367 328.46949,60.5405763 328.46949,64.246226 C328.46949,67.9886554 329.795605,71.1876949 332.448229,73.8421582 C335.082676,76.4788249 338.269144,77.796565 342.008818,77.796565 C345.766669,77.796565 348.971709,76.4693333 351.624333,73.8148701 L358.007542,80.2026667 C354.35164,83.8288249 348.929033,86.7846441 341.981158,86.7846441" id="Fill-9" fill="#2A150A"></path>
                        <path d="M383.731356,71.7959831 L379.669637,62.3657571 L375.552992,71.7959831 L383.731356,71.7959831 Z M379.641976,40.9884689 L399.978628,86.4805593 L390.280132,86.4805593 L387.26832,79.7047966 L372.016028,79.7047966 L369.00382,86.4805593 L359.332985,86.4805593 L379.641976,40.9884689 Z" id="Fill-11" fill="#2A150A"></path>
                        <path d="M414.04848,77.7046158 C416.520917,77.7046158 419.249805,75.6493051 419.249805,73.1747853 C419.249805,69.1048983 413.79203,68.5373842 410.711856,67.4691921 C405.280952,65.6167627 400.485049,61.1545593 400.485049,55.0835424 C400.485049,47.5658588 406.577825,41.5086836 414.089181,41.5086836 C420.938664,41.5086836 426.612584,46.5925819 427.531302,53.2042203 L418.642068,55.0835424 C418.642068,52.6363107 416.588487,50.5813955 414.142921,50.5813955 C411.657444,50.5813955 409.603863,52.6363107 409.603863,55.110435 C409.603863,59.1261412 414.683482,60.1947288 417.777486,61.1138249 C423.397271,62.7368757 428.355184,67.0226949 428.355184,73.2289661 C428.355184,80.7466497 421.613971,86.8176667 414.116051,86.8176667 C407.225867,86.8176667 400.99795,81.7610565 399.984792,75.1217345 L408.874026,73.2289661 C408.874026,75.7169322 411.576439,77.7453503 414.089181,77.7453503 L414.04848,77.7046158 Z" id="Fill-13" fill="#2A150A"></path>
                        <polygon id="Fill-15" fill="#2A150A" points="441.148078 41.9013164 441.148078 59.738661 456.041576 59.738661 456.041576 41.9013164 464.966373 41.9013164 464.966373 86.4806384 456.041576 86.4806384 456.041576 68.6152147 441.148078 68.6152147 441.148078 86.4806384 432.223281 86.4806384 432.223281 41.9013164"></polygon>
                        <g id="Group-19">
                            <mask id="mask-2" fill="white">
                                <use xlink:href="#path-1"></use>
                            </mask>
                            <g id="Clip-18"></g>
                            <polygon id="Fill-17" fill="#B16B3A" mask="url(#mask-2)" points="127.906261 1.9620565 121.22353 0.201774011 111.726955 5.24770621 95.6642163 17.9208701 87.5747605 15.5736949 78.7815473 14.0483277 65.5946912 15.5732994 52.407835 14.0483277 43.6146218 15.5736949 35.5247709 17.9208701 19.4624277 5.24770621 9.96585234 0.201774011 3.28272582 1.9620565 0.000237088388 6.89053107 0.000237088388 18.8593446 0.000237088388 25.7826215 2.34504125 33.6443729 2.5793636 41.5065198 7.73801179 51.8325085 8.08969289 62.7161243 5.74488873 74.9491186 4.57248666 89.9686667 10.4344971 99.4732429 19.5793913 107.277254 21.5729095 108.978215 28.8420395 124.11522 40.1381158 132.166011 44.3179841 135.145559 65.59153 139.603017 65.59153 139.604599 65.5946912 139.603808 65.5974572 139.604599 65.5974572 139.603017 86.8710031 135.145559 91.0512666 132.166011 102.347343 124.11522 109.616473 108.978215 111.609596 107.277254 120.75449 99.4732429 126.616501 89.9686667 125.444494 74.9491186 123.099294 62.7161243 123.451371 51.8325085 128.609624 41.5065198 128.844341 33.6443729 131.18954 25.7826215 131.18954 18.8593446 131.18954 6.89053107"></polygon>
                        </g>
                        <polygon id="Fill-20" fill="#CC8E58" points="86.8711612 77.9998927 81.742149 61.3078588 75.9967071 57.4649774 65.5972201 52.5392712 65.5976153 52.5365028 65.5944541 52.5380847 65.5912929 52.5365028 65.5920832 52.5392712 55.1925962 57.4649774 49.4475494 61.3078588 44.3181421 77.9998927 41.8121179 91.142096 55.0752374 77.2370113 62.0005893 74.9491582 65.5944541 52.5558814 69.188714 74.9491582 76.1140659 77.2370113 89.3775806 91.142096"></polygon>
                        <polygon id="Fill-22" fill="#2D2113" points="28.4902399 20.3847119 18.9932693 9.70674576 8.91069047 6.65561582 4.92404922 7.59448588 3.39996603 14.1657853 3.39996603 26.0171412 8.79333172 35.6391751 18.2017893 41.5065198 27.5521601 33.4098531"></polygon>
                        <polygon id="Fill-24" fill="#2C1800" points="65.5976153 50.131113 63.1939341 26.6925819 65.5976153 27.0734294"></polygon>
                        <g id="Group-28">
                            <mask id="mask-4" fill="white">
                                <use xlink:href="#path-3"></use>
                            </mask>
                            <g id="Clip-27"></g>
                            <polygon id="Fill-26" fill="#A8633A" mask="url(#mask-4)" points="44.5819029 17.4512373 35.5247314 17.9206723 19.4623882 5.24790395 9.96581282 0.201971751 3.28268631 1.96185876 0.000197573657 6.89033333 0.000197573657 18.8595424 3.40004506 21.3237797 3.40004506 14.1655876 4.92412825 7.59468362 8.9107695 6.65581356 18.9933484 9.70654802 28.4903189 20.3849096 27.5522392 33.4100508 18.2018683 41.506322 12.0758995 61.3080169 23.5659931 65.796322 32.7990052 55.8219153 36.1403709 56.5555311 33.5316083 49.1335537 36.9093276 45.5920282 38.4559341 43.9705593 44.6696256 42.9146271 47.2491473 32.2362655 53.2869983 31.7668305 58.409688 26.6928192 62.6666101 32.9406158 65.5978128 52.536661 65.5978128 20.3849096"></polygon>
                        </g>
                        <polygon id="Fill-29" fill="#CC8E58" points="10.4346551 99.4734407 9.15595841 84.7453616 15.9564437 68.9044011 23.5657955 65.796322 12.0760971 61.3080169 40.9763813 21.3237797 27.5520416 33.4100508 18.2020659 41.506322 7.73816984 51.8327062 5.74504679 74.9489209 4.57264471 89.9688644"></polygon>
                        <polygon id="Fill-31" fill="#A8633A" points="37.0490121 41.9758757 47.2489497 32.2363842 44.6698232 42.9147458 38.4561317 43.970678 36.3748908 46.1525424"></polygon>
                        <polygon id="Fill-33" fill="#EBE8DB" points="44.3179445 110.327514 37.0488146 104.049661 30.9520867 82.2238983 34.2646066 70.959435 32.7990052 61.3077401 44.3179445 77.999774 52.4077955 74.3621469 62.0003917 74.9490395 61.2010087 80.4640113 54.5182773 83.6322034 52.4077955 88.9126554 53.463234 93.6066102 55.3939237 95.7738418 50.6489948 107.511299 45.1975425 107.511299 40.9765789 101.820339 40.9765789 105.927401"></polygon>
                        <polygon id="Fill-35" fill="#5D2900" points="27.5521601 33.4098927 28.4902399 20.3847514 36.1402919 22.9664463 40.9764998 21.3236215"></polygon>
                        <polygon id="Fill-37" fill="#5D2900" points="26.3798371 22.0276554 27.5522392 33.4099718 28.4903189 20.3848305 23.214312 14.5764124"></polygon>
                        <g id="Group-41" transform="translate(0.000000, 18.587571)">
                            <mask id="mask-6" fill="white">
                                <use xlink:href="#path-5"></use>
                            </mask>
                            <g id="Clip-40"></g>
                            <polygon id="Fill-39" fill="#A8633A" mask="url(#mask-6)" points="7.7380513 33.2449774 2.57940312 22.9189887 -0.000118544194 7.1950904 -0.000118544194 0.271813559 3.40012409 2.73605085 3.40012409 7.42961017 8.79309463 17.0516441 18.2019473 22.9189887"></polygon>
                        </g>
                        <polygon id="Fill-42" fill="#CC8E58" points="36.1402523 56.5555311 33.5314898 49.1335537 38.4558156 43.9705593 44.6695071 42.9146271 47.2490288 32.2362655 65.5976943 52.536661 55.1922801 57.4651356 49.4472333 61.3080169 49.3302697 56.7315198 44.5817844 50.1309548 37.6350946 52.5951921"></polygon>
                        <polygon id="Fill-44" fill="#A8633A" points="36.1402523 56.5555311 36.1402523 50.9231017 45.8130634 46.5063785 44.5817844 50.1309548 37.6350946 52.5951921"></polygon>
                        <polygon id="Fill-46" fill="#CC8E58" points="55.1923986 57.4650565 52.4077955 37.9437571 65.5978128 52.5365819"></polygon>
                        <polygon id="Fill-48" fill="#D6B795" points="44.8456638 62.7159661 39.130253 61.0438757 36.1401733 56.5555706 32.7988076 55.8219548 30.9522842 57.8171525 32.7988076 61.307661 34.6785234 64.0313333 44.3181421 77.9996949 49.4475494 61.307661"></polygon>
                        <polygon id="Fill-50" fill="#DBD5C3" points="51.5284347 120.888458 48.8754156 111.594672 44.3177865 110.327554 37.0490516 104.049701 34.9049823 96.3746158 25.8521574 107.511339 21.572712 108.978175 28.8418419 124.115181 40.1379182 132.166367 48.8754156 127.741734 57.2367328 123.507723"></polygon>
                        <polygon id="Fill-52" fill="#2D2113" points="102.699024 20.3847119 112.195599 9.70674576 122.278968 6.65561582 126.265215 7.59448588 127.789298 14.1657853 127.789298 26.0171412 122.395932 35.6391751 112.987079 41.5065198 103.637104 33.4098531"></polygon>
                        <polygon id="Fill-54" fill="#2C1800" points="81.8592707 61.3078588 81.8592707 56.7317571 86.607756 50.1311921 93.5540506 52.5954294 95.0488929 56.5553729 92.0592083 61.0440734 86.3437976 62.7161638"></polygon>
                    </g>
                    <g id="Group-66" transform="translate(81.795494, 50.023898)">
                        <g id="Group-59">
                            <mask id="mask-8" fill="white">
                                <use xlink:href="#path-7"></use>
                            </mask>
                            <g id="Clip-58"></g>
                            <path d="M6.0650766,8.24651412 C8.23641109,8.24651412 10.0568548,6.74368927 10.5460471,4.72041243 C10.5713366,4.92566667 10.5855619,5.13368927 10.5855619,5.34606215 C10.5855619,7.94990395 8.60429324,10.0613729 6.15991196,10.0613729 C3.71592582,10.0613729 1.73426205,7.94990395 1.73426205,5.34606215 C1.73426205,5.30611864 1.73623778,5.26657062 1.73702808,5.2270226 C2.38585997,6.98928249 4.0790662,8.24651412 6.0650766,8.24651412" id="Fill-57" fill="#4D2F00" mask="url(#mask-8)"></path>
                        </g>
                        <g id="Group-62">
                            <mask id="mask-10" fill="white">
                                <use xlink:href="#path-9"></use>
                            </mask>
                            <g id="Clip-61"></g>
                            <path d="M6.0650766,8.24651412 C4.0790662,8.24651412 2.38585997,6.98928249 1.73702808,5.2270226 C1.79669532,2.67775706 3.75306967,0.630751412 6.15991196,0.630751412 C8.40513899,0.630751412 10.2583799,2.41238983 10.5460471,4.72041243 C10.0568548,6.74368927 8.23641109,8.24651412 6.0650766,8.24651412" id="Fill-60" fill="#2C1800" mask="url(#mask-10)"></path>
                        </g>
                        <g id="Group-65">
                            <mask id="mask-12" fill="white">
                                <use xlink:href="#path-11"></use>
                            </mask>
                            <g id="Clip-64"></g>
                            <path d="M7.97751057,5.4930226 L10.2638329,4.7890678 C10.2638329,4.7890678 9.38463016,2.41262712 5.95514662,2.94059322 C5.95514662,2.94059322 7.71355217,4.4370904 7.97751057,5.4930226" id="Fill-63" fill="#ECD9CB" mask="url(#mask-12)"></path>
                        </g>
                    </g>
                    <g id="Group-123" transform="translate(9.088388, 0.193390)">
                        <polygon id="Fill-67" fill="#2C1800" points="56.5030627 50.131113 58.9067438 26.6925819 56.5030627 27.0734294"></polygon>
                        <polygon id="Fill-69" fill="#262626" points="67.5826378 83.6322034 60.8999064 80.4640113 56.5094246 80.4640113 56.5031023 80.4640113 52.1126205 80.4640113 45.4298891 83.6322034 43.3194073 88.9126554 44.3748458 93.6066102 49.9144159 99.8255367 56.5031023 101.818362 56.5031023 101.820339 56.5062634 101.819153 56.5094246 101.820339 56.5094246 101.818362 63.0981109 99.8255367 68.6380763 93.6066102 69.6931196 88.9126554"></polygon>
                        <polygon id="Fill-71" fill="#000000" points="59.4342655 92.4327853 61.7498288 93.2541977 64.7687542 93.2541977 66.9965948 89.3235198 62.7171494 86.2723898 56.5093851 84.9831243 56.5093851 84.9815424 56.5062239 84.9823333 56.5030627 84.9815424 56.5030627 84.9831243 50.2952984 86.2723898 46.015853 89.3235198 48.2436936 93.2541977 51.2626191 93.2541977 53.5781823 92.4327853 51.5850593 95.0734068 46.305496 95.7738023 49.9143764 99.8254972 56.5030627 101.818322 56.5030627 101.820299 56.5062239 101.819113 56.5093851 101.820299 56.5093851 101.818322 63.0980714 99.8254972 66.7069518 95.7738023 61.4273886 95.0734068"></polygon>
                        <polygon id="Fill-73" fill="#000000" points="76.9036887 107.51126 71.4514461 107.51126 56.5093456 104.168661 56.5093456 104.167079 56.5061844 104.16787 56.5030232 104.167079 56.5030232 104.168661 41.5609227 107.51126 36.1090752 107.51126 31.8881116 101.820299 31.8881116 105.927362 35.2294773 110.327475 41.5609227 112.087757 49.9143369 108.215215 56.5030232 110.149904 56.5030232 110.151881 56.5061844 110.150695 56.5093456 110.151881 56.5093456 110.149904 63.0980319 108.215215 71.4514461 112.087757 77.7828915 110.327475 81.1242572 105.927362 81.1242572 101.820299"></polygon>
                        <polygon id="Fill-75" fill="#918A85" points="71.4515251 112.087836 63.0981109 108.215294 56.5062634 110.150774 49.9144159 108.215294 41.5606066 112.087836 49.9144159 116.605407 56.5031023 117.895068 56.5031023 117.896254 56.5062634 117.895859 56.5094246 117.896254 56.5094246 117.895068 63.0981109 116.605407"></polygon>
                        <polygon id="Fill-77" fill="#5C524A" points="71.4515251 107.51126 66.7069913 95.7738023 63.0981109 99.8254972 56.5062634 101.819113 49.9144159 99.8254972 46.3055355 95.7738023 41.5606066 107.51126 56.5062634 104.16787"></polygon>
                        <polygon id="Fill-79" fill="#EBE8DB" points="71.4515251 112.087836 63.0981109 116.605407 56.5062634 117.895859 49.9144159 116.605407 41.5606066 112.087836 39.7867903 111.594672 42.4402045 120.888458 51.2626586 124.936593 56.5031023 126.343316 56.5031023 126.344898 56.5062634 126.344107 56.5094246 126.344898 56.5094246 126.343316 61.7498683 124.936593 70.5723224 120.888458 73.2253414 111.594672"></polygon>
                        <g id="Group-83" transform="translate(56.110919, 0.000000)">
                            <mask id="mask-14" fill="white">
                                <use xlink:href="#path-13"></use>
                            </mask>
                            <g id="Clip-82"></g>
                            <polygon id="Fill-81" fill="#A8633A" mask="url(#mask-14)" points="21.4082912 17.4512373 30.4650676 17.9206723 46.5274107 5.24790395 56.0243813 0.201971751 62.7071127 1.96185876 65.9899965 6.89033333 65.9899965 18.8595424 62.590149 21.3237797 62.590149 14.1655876 61.0656707 7.59468362 57.0794246 6.65581356 46.9964506 9.70654802 37.4998752 20.3849096 38.4379549 33.4100508 47.7879307 41.506322 53.9138995 61.3080169 42.424201 65.796322 33.1907938 55.8219153 29.8494281 56.5555311 32.4581906 49.1335537 29.0804714 45.5920282 27.53426 43.9705593 21.3201733 42.9146271 18.7406516 32.2362655 12.7028007 31.7668305 7.58050607 26.6928192 3.32318891 32.9406158 0.391986135 52.536661 0.391986135 20.3849096"></polygon>
                        </g>
                        <polygon id="Fill-84" fill="#CC8E58" points="111.66626 99.4734407 112.944562 84.7453616 106.144471 68.9044011 98.5351196 65.796322 110.024818 61.3080169 81.1241386 21.3237797 94.5488735 33.4100508 103.898849 41.506322 114.362745 51.8327062 116.355868 74.9489209 117.52827 89.9688644"></polygon>
                        <polygon id="Fill-86" fill="#A8633A" points="86.5759466 17.9207119 78.4860957 15.5735367 69.6928825 14.0481695 56.5060263 15.5735367 43.3195653 14.0481695 34.525957 15.5735367 26.4365012 17.9207119 35.4936728 17.4512768 56.5032603 20.3841582 56.5032603 20.3845537 56.5060263 20.3841582 56.5091875 20.3845537 56.5091875 20.3841582 77.5191702 17.4512768"></polygon>
                        <polygon id="Fill-88" fill="#A8633A" points="85.052061 41.9758757 74.8517282 32.2363842 77.4312499 42.9147458 83.6449414 43.970678 85.7261823 46.1525424"></polygon>
                        <polygon id="Fill-90" fill="#EBE8DB" points="77.782773 110.327514 85.0519029 104.049661 91.1486308 82.2238983 87.8365061 70.959435 89.3017123 61.3077401 77.782773 77.999774 69.692922 74.3621469 60.1003258 74.9490395 60.8997088 80.4640113 67.5828354 83.6322034 69.692922 88.9126554 68.6378787 93.6066102 66.7071889 95.7738418 71.4517227 107.511299 76.903175 107.511299 81.1241386 101.820339 81.1241386 105.927401"></polygon>
                        <polygon id="Fill-92" fill="#A8633A" points="56.509227 52.5298588 74.8515702 32.2365819 68.8137192 31.7667514 63.6914246 26.6927401 64.6298995 22.6141525 56.509227 20.3864124 56.509227 20.3848305 56.5060659 20.3856215 56.5029047 20.3848305 56.5029047 20.3864124 48.3826274 22.6141525 49.3211023 26.6927401 44.1988076 31.7667514 38.1605615 32.2365819 56.5029047 52.5298588 56.5029047 52.5365819 56.5060659 52.5330226 56.509227 52.5365819"></polygon>
                        <polygon id="Fill-94" fill="#5D2900" points="94.5487549 33.4098927 93.6106752 20.3847514 85.9606232 22.9664463 81.1240201 21.3236215"></polygon>
                        <polygon id="Fill-96" fill="#5D2900" points="95.721078 22.0276554 94.5486759 33.4099718 93.6105962 20.3848305 98.8866031 14.5764124"></polygon>
                        <polygon id="Fill-98" fill="#A8633A" points="114.362824 51.832548 119.521472 41.5065593 122.100994 25.782661 122.100994 18.8593842 118.701147 21.3236215 118.701147 26.0171808 113.307386 35.6392147 103.898928 41.5065593"></polygon>
                        <polygon id="Fill-100" fill="#CC8E58" points="85.9604652 56.5555311 88.5692277 49.1335537 83.6452971 43.9705593 77.4312104 42.9146271 74.8516887 32.2362655 56.5030232 52.536661 66.9084374 57.4651356 72.6534842 61.3080169 72.770843 56.7315198 77.5193282 50.1309548 84.4656229 52.5951921"></polygon>
                        <polygon id="Fill-102" fill="#A8633A" points="85.9604652 56.5555311 85.9604652 50.9231017 76.2876541 46.5063785 77.5193282 50.1309548 84.4656229 52.5951921"></polygon>
                        <polygon id="Fill-104" fill="#CC8E58" points="66.9084769 57.4650565 69.6930801 37.9437571 56.5030627 52.5365819"></polygon>
                        <g id="Group-108" transform="translate(30.821490, 123.389831)">
                            <mask id="mask-16" fill="white">
                                <use xlink:href="#path-15"></use>
                            </mask>
                            <g id="Clip-107"></g>
                            <polygon id="Fill-106" fill="#807664" mask="url(#mask-16)" points="51.1415854 8.77637853 34.043166 0.117734463 30.9282198 1.547 25.6846149 2.95411864 20.4414052 1.547 17.3264589 0.117734463 0.228039515 8.77637853 4.4079078 11.7555311 25.6814537 16.2133842 25.6814537 16.2149661 25.6846149 16.2141751 25.6877761 16.2149661 25.6877761 16.2133842 46.961322 11.7555311"></polygon>
                        </g>
                        <polygon id="Fill-109" fill="#DBD5C3" points="17.5573435 62.4693842 14.4775653 65.7961638 6.86781837 68.9042429 0.0677282496 84.7455989 1.34642496 99.4732825 10.4913192 107.277294 10.4913192 97.2439605 13.5865081 88.2633955 19.841295 76.6212486 19.401496 60.3986497"></polygon>
                        <polygon id="Fill-111" fill="#DBD5C3" points="106.144629 68.9042429 98.5348825 65.7961638 95.4551043 62.4693842 93.6105567 60.3986497 93.1711529 76.6212486 99.4259397 88.2633955 102.521129 97.2439605 102.521129 107.277294 111.666418 99.4732825 112.94472 84.7455989"></polygon>
                        <polygon id="Fill-113" fill="#D6B795" points="89.302226 55.822113 85.9604652 56.5553333 82.9711757 61.0440339 77.2553698 62.7161243 72.6534842 61.3078192 77.7828915 77.9998531 87.4225102 64.0314915 89.302226 61.3078192 91.1487494 57.8169153"></polygon>
                        <polygon id="Fill-115" fill="#CFC7AF" points="93.6106357 60.3985311 91.1488679 57.8168362 89.3019494 61.3077401 87.8367432 70.959435 91.1488679 82.2242938 87.1962094 96.3745763 96.2486392 107.511299 100.528085 108.978136 108.915877 101.820339"></polygon>
                        <polygon id="Fill-117" fill="#DBD5C3" points="96.2485601 107.51126 87.1961303 96.3745367 85.052061 104.049621 77.782931 110.327475 73.2253019 111.594593 70.5722828 120.888379 64.8643799 123.507644 73.2253019 127.741655 81.9631945 132.166288 93.2592707 124.115102 100.528006 108.978096"></polygon>
                        <polygon id="Fill-119" fill="#CFC7AF" points="19.4016541 60.3985311 21.863817 57.8168362 23.7103404 61.3077401 25.1759418 70.959435 21.863817 82.2242938 25.8164756 96.3745763 16.7636506 107.511299 12.4846003 108.978136 4.09641317 101.820339"></polygon>
                        <polygon id="Fill-121" fill="#2C1800" points="40.2418419 61.3078588 40.2418419 56.7317571 35.4933567 50.1311921 28.5466669 52.5954294 27.0518246 56.5553729 30.0419043 61.0440734 35.7573151 62.7161638"></polygon>
                    </g>
                    <g id="Group-133" transform="translate(35.958406, 50.023898)">
                        <g id="Group-126">
                            <mask id="mask-18" fill="white">
                                <use xlink:href="#path-17"></use>
                            </mask>
                            <g id="Clip-125"></g>
                            <path d="M7.37032721,8.24651412 C5.19859757,8.24651412 3.37894419,6.74368927 2.88975182,4.72041243 C2.86406724,4.92566667 2.84984194,5.13368927 2.84984194,5.34606215 C2.84984194,7.94990395 4.83111057,10.0613729 7.27549185,10.0613729 C9.71947799,10.0613729 11.7011418,7.94990395 11.7011418,5.34606215 C11.7011418,5.30611864 11.699166,5.26657062 11.6983757,5.2270226 C11.0495438,6.98928249 9.35673276,8.24651412 7.37032721,8.24651412" id="Fill-124" fill="#4D2F00" mask="url(#mask-18)"></path>
                        </g>
                        <g id="Group-129">
                            <mask id="mask-20" fill="white">
                                <use xlink:href="#path-19"></use>
                            </mask>
                            <g id="Clip-128"></g>
                            <path d="M7.37032721,8.24651412 C9.35673276,8.24651412 11.0495438,6.98928249 11.6983757,5.2270226 C11.6387085,2.67775706 9.68233414,0.630751412 7.27549185,0.630751412 C5.03026482,0.630751412 3.17702392,2.41238983 2.88975182,4.72041243 C3.37894419,6.74368927 5.19859757,8.24651412 7.37032721,8.24651412" id="Fill-127" fill="#2C1800" mask="url(#mask-20)"></path>
                        </g>
                        <g id="Group-132">
                            <mask id="mask-22" fill="white">
                                <use xlink:href="#path-21"></use>
                            </mask>
                            <g id="Clip-131"></g>
                            <path d="M5.45785373,5.4930226 L3.17153137,4.7890678 C3.17153137,4.7890678 4.05073414,2.41262712 7.48021768,2.94059322 C7.48021768,2.94059322 5.72141698,4.4370904 5.45785373,5.4930226" id="Fill-130" fill="#ECD9CB" mask="url(#mask-22)"></path>
                        </g>
                    </g>
                    <polygon id="Fill-134" fill="#D9AA8B" points="65.591451 52.7327006 65.591451 52.7327006 61.2009692 80.6575593 65.591451 80.6575593 65.5977733 80.6575593 69.9882551 80.6575593"></polygon>
                </g>
                <path d="M166.954,103.652 L166.954,105.254 L163.084,105.254 L163.084,116 L161.32,116 L161.32,105.254 L157.45,105.254 L157.45,103.652 L166.954,103.652 Z M179.858364,103.652 L179.858364,116 L178.094364,116 L178.094364,110.492 L172.460364,110.492 L172.460364,116 L170.696364,116 L170.696364,103.652 L172.460364,103.652 L172.460364,108.89 L178.094364,108.89 L178.094364,103.652 L179.858364,103.652 Z M192.906728,103.652 L192.672728,105.254 L186.570728,105.254 L186.570728,108.89 L192.096728,108.89 L192.096728,110.492 L186.570728,110.492 L186.570728,114.398 L192.780728,114.398 L193.032728,116 L184.806728,116 L184.806728,103.652 L192.906728,103.652 Z M207.429456,103.652 C208.461461,103.652 209.361452,103.876998 210.129456,104.327 C210.89746,104.777002 211.491454,105.418996 211.911456,106.253 C212.331458,107.087004 212.541456,108.067994 212.541456,109.196 L212.541456,110.456 C212.541456,111.584006 212.331458,112.564996 211.911456,113.399 C211.491454,114.233004 210.89746,114.874998 210.129456,115.325 C209.361452,115.775002 208.461461,116 207.429456,116 L203.145456,116 L203.145456,103.652 L207.429456,103.652 Z M204.909456,105.254 L204.909456,114.398 L207.429456,114.398 C208.497461,114.398 209.322453,114.065003 209.904456,113.399 C210.486459,112.732997 210.777456,111.752006 210.777456,110.456 L210.777456,109.196 C210.777456,107.923994 210.492459,106.949003 209.922456,106.271 C209.352453,105.592997 208.521461,105.254 207.429456,105.254 L204.909456,105.254 Z M221.48582,103.472 C222.505825,103.472 223.399816,103.693998 224.16782,104.138 C224.935824,104.582002 225.532818,105.220996 225.95882,106.055 C226.384822,106.889004 226.59782,107.875994 226.59782,109.016 L226.59782,110.636 C226.59782,111.776006 226.384822,112.762996 225.95882,113.597 C225.532818,114.431004 224.935824,115.069998 224.16782,115.514 C223.399816,115.958002 222.505825,116.18 221.48582,116.18 C220.465815,116.18 219.571824,115.958002 218.80382,115.514 C218.035816,115.069998 217.438822,114.431004 217.01282,113.597 C216.586818,112.762996 216.37382,111.776006 216.37382,110.636 L216.37382,109.016 C216.37382,107.875994 216.586818,106.889004 217.01282,106.055 C217.438822,105.220996 218.035816,104.582002 218.80382,104.138 C219.571824,103.693998 220.465815,103.472 221.48582,103.472 Z M221.48582,105.074 C220.429815,105.074 219.607823,105.409997 219.01982,106.082 C218.431817,106.754003 218.13782,107.731994 218.13782,109.016 L218.13782,110.636 C218.13782,111.920006 218.422817,112.897997 218.99282,113.57 C219.562823,114.242003 220.393815,114.578 221.48582,114.578 C222.541825,114.578 223.363817,114.245003 223.95182,113.579 C224.539823,112.912997 224.83382,111.932006 224.83382,110.636 L224.83382,109.016 C224.83382,107.731994 224.548823,106.754003 223.97882,106.082 C223.408817,105.409997 222.577825,105.074 221.48582,105.074 Z M235.524184,103.472 C236.484189,103.472 237.32118,103.657998 238.035184,104.03 C238.749188,104.402002 239.298182,104.929997 239.682184,105.614 C240.066186,106.298003 240.258184,107.089996 240.258184,107.99 L238.494184,107.99 C238.494184,107.065995 238.239187,106.349003 237.729184,105.839 C237.219181,105.328997 236.484189,105.074 235.524184,105.074 C234.444179,105.074 233.622187,105.406997 233.058184,106.073 C232.494181,106.739003 232.212184,107.719994 232.212184,109.016 L232.212184,110.636 C232.212184,111.932006 232.491181,112.912997 233.049184,113.579 C233.607187,114.245003 234.432179,114.578 235.524184,114.578 C236.568189,114.578 237.330182,114.317003 237.810184,113.795 C238.290186,113.272997 238.530184,112.442006 238.530184,111.302 L238.530184,111.068 L235.038184,111.068 L235.038184,109.484 L240.258184,109.484 L240.258184,113.696 C240.258184,114.692005 240.294184,115.459997 240.366184,116 L239.322184,116 C239.166183,115.507998 239.046184,115.016002 238.962184,114.524 C238.18218,115.628006 237.036192,116.18 235.524184,116.18 C233.928176,116.18 232.683188,115.691005 231.789184,114.713 C230.89518,113.734995 230.448184,112.376009 230.448184,110.636 L230.448184,109.016 C230.448184,107.287991 230.89518,105.932005 231.789184,104.948 C232.683188,103.963995 233.928176,103.472 235.524184,103.472 Z M252.910548,103.652 L252.676548,105.254 L246.574548,105.254 L246.574548,108.89 L252.100548,108.89 L252.100548,110.492 L246.574548,110.492 L246.574548,114.398 L252.784548,114.398 L253.036548,116 L244.810548,116 L244.810548,103.652 L252.910548,103.652 Z" id="The-Doge" fill="#703B1E"></path>
                <path d="M267.598,103.652 L267.598,105.254 L266.158,105.254 L266.158,114.398 L267.598,114.398 L267.598,116 L262.954,116 L262.954,114.398 L264.394,114.398 L264.394,105.254 L262.954,105.254 L262.954,103.652 L267.598,103.652 Z M275.840364,103.472 C277.196371,103.472 278.26136,103.771997 279.035364,104.372 C279.809368,104.972003 280.196364,105.823994 280.196364,106.928 L280.196364,107.144 L278.432364,107.144 L278.432364,106.874 C278.432364,106.297997 278.198366,105.854002 277.730364,105.542 C277.262362,105.229998 276.644368,105.074 275.876364,105.074 C275.02436,105.074 274.361366,105.214999 273.887364,105.497 C273.413362,105.779001 273.176364,106.183997 273.176364,106.712 C273.176364,107.108002 273.311363,107.431999 273.581364,107.684 C273.851365,107.936001 274.187362,108.133999 274.589364,108.278 C274.991366,108.422001 275.54636,108.583999 276.254364,108.764 C277.166369,109.004001 277.904361,109.237999 278.468364,109.466 C279.032367,109.694001 279.515362,110.035998 279.917364,110.492 C280.319366,110.948002 280.520364,111.553996 280.520364,112.31 C280.520364,113.654007 280.109368,114.634997 279.287364,115.253 C278.46536,115.871003 277.310371,116.18 275.822364,116.18 C274.334357,116.18 273.179368,115.865003 272.357364,115.235 C271.53536,114.604997 271.124364,113.690006 271.124364,112.49 L271.142364,112.13 L272.906364,112.13 L272.888364,112.508 C272.888364,113.204003 273.149361,113.722998 273.671364,114.065 C274.193367,114.407002 274.916359,114.578 275.840364,114.578 C276.740368,114.578 277.451361,114.413002 277.973364,114.083 C278.495367,113.752998 278.756364,113.300003 278.756364,112.724 C278.756364,112.267998 278.615365,111.899001 278.333364,111.617 C278.051363,111.334999 277.697366,111.116001 277.271364,110.96 C276.845362,110.803999 276.266368,110.630001 275.534364,110.438 C274.63436,110.197999 273.914367,109.970001 273.374364,109.754 C272.834361,109.537999 272.372366,109.205002 271.988364,108.755 C271.604362,108.304998 271.412364,107.714004 271.412364,106.982 C271.412364,105.793994 271.81436,104.912003 272.618364,104.336 C273.422368,103.759997 274.496357,103.472 275.840364,103.472 Z M299.975092,103.652 L299.975092,116 L298.481092,116 L292.451092,106.964 L292.397092,106.982 L292.397092,116 L290.795092,116 L290.795092,103.652 L292.343092,103.652 L298.319092,112.58 L298.373092,112.562 L298.373092,103.652 L299.975092,103.652 Z M309.477456,103.472 C310.497461,103.472 311.391452,103.693998 312.159456,104.138 C312.92746,104.582002 313.524454,105.220996 313.950456,106.055 C314.376458,106.889004 314.589456,107.875994 314.589456,109.016 L314.589456,110.636 C314.589456,111.776006 314.376458,112.762996 313.950456,113.597 C313.524454,114.431004 312.92746,115.069998 312.159456,115.514 C311.391452,115.958002 310.497461,116.18 309.477456,116.18 C308.457451,116.18 307.56346,115.958002 306.795456,115.514 C306.027452,115.069998 305.430458,114.431004 305.004456,113.597 C304.578454,112.762996 304.365456,111.776006 304.365456,110.636 L304.365456,109.016 C304.365456,107.875994 304.578454,106.889004 305.004456,106.055 C305.430458,105.220996 306.027452,104.582002 306.795456,104.138 C307.56346,103.693998 308.457451,103.472 309.477456,103.472 Z M309.477456,105.074 C308.421451,105.074 307.599459,105.409997 307.011456,106.082 C306.423453,106.754003 306.129456,107.731994 306.129456,109.016 L306.129456,110.636 C306.129456,111.920006 306.414453,112.897997 306.984456,113.57 C307.554459,114.242003 308.385451,114.578 309.477456,114.578 C310.533461,114.578 311.355453,114.245003 311.943456,113.579 C312.531459,112.912997 312.825456,111.932006 312.825456,110.636 L312.825456,109.016 C312.825456,107.731994 312.540459,106.754003 311.970456,106.082 C311.400453,105.409997 310.569461,105.074 309.477456,105.074 Z M333.57782,103.652 L329.95982,116 L328.15982,116 L325.63982,107.072 L325.51382,107.072 L322.90382,116 L321.10382,116 L317.57582,103.652 L319.46582,103.652 L322.07582,112.958 L322.18382,112.958 L324.81182,103.652 L326.52182,103.652 L329.13182,112.958 L329.23982,112.958 L331.86782,103.652 L333.57782,103.652 Z M351.430548,103.652 L351.430548,105.254 L347.560548,105.254 L347.560548,116 L345.796548,116 L345.796548,105.254 L341.926548,105.254 L341.926548,103.652 L351.430548,103.652 Z M364.334912,103.652 L364.334912,116 L362.570912,116 L362.570912,110.492 L356.936912,110.492 L356.936912,116 L355.172912,116 L355.172912,103.652 L356.936912,103.652 L356.936912,108.89 L362.570912,108.89 L362.570912,103.652 L364.334912,103.652 Z M377.383276,103.652 L377.149276,105.254 L371.047276,105.254 L371.047276,108.89 L376.573276,108.89 L376.573276,110.492 L371.047276,110.492 L371.047276,114.398 L377.257276,114.398 L377.509276,116 L369.283276,116 L369.283276,103.652 L377.383276,103.652 Z M401.194004,103.652 L401.194004,116 L399.430004,116 L399.430004,105.722 L399.322004,105.722 L395.056004,116 L393.562004,116 L389.314004,105.722 L389.224004,105.722 L389.224004,116 L387.622004,116 L387.622004,103.652 L390.394004,103.652 L394.372004,113.372 L394.444004,113.372 L398.440004,103.652 L401.194004,103.652 Z M411.326368,103.652 L416.150368,116 L414.242368,116 L413.198368,113.318 L407.294368,113.318 L406.268368,116 L404.558368,116 L409.382368,103.652 L411.326368,103.652 Z M410.318368,105.776 L410.210368,105.776 L407.924368,111.716 L412.586368,111.716 L410.318368,105.776 Z M423.510732,103.472 C424.866739,103.472 425.931728,103.771997 426.705732,104.372 C427.479736,104.972003 427.866732,105.823994 427.866732,106.928 L427.866732,107.144 L426.102732,107.144 L426.102732,106.874 C426.102732,106.297997 425.868734,105.854002 425.400732,105.542 C424.93273,105.229998 424.314736,105.074 423.546732,105.074 C422.694728,105.074 422.031734,105.214999 421.557732,105.497 C421.08373,105.779001 420.846732,106.183997 420.846732,106.712 C420.846732,107.108002 420.981731,107.431999 421.251732,107.684 C421.521733,107.936001 421.85773,108.133999 422.259732,108.278 C422.661734,108.422001 423.216728,108.583999 423.924732,108.764 C424.836737,109.004001 425.574729,109.237999 426.138732,109.466 C426.702735,109.694001 427.18573,110.035998 427.587732,110.492 C427.989734,110.948002 428.190732,111.553996 428.190732,112.31 C428.190732,113.654007 427.779736,114.634997 426.957732,115.253 C426.135728,115.871003 424.980739,116.18 423.492732,116.18 C422.004725,116.18 420.849736,115.865003 420.027732,115.235 C419.205728,114.604997 418.794732,113.690006 418.794732,112.49 L418.812732,112.13 L420.576732,112.13 L420.558732,112.508 C420.558732,113.204003 420.819729,113.722998 421.341732,114.065 C421.863735,114.407002 422.586727,114.578 423.510732,114.578 C424.410737,114.578 425.121729,114.413002 425.643732,114.083 C426.165735,113.752998 426.426732,113.300003 426.426732,112.724 C426.426732,112.267998 426.285733,111.899001 426.003732,111.617 C425.721731,111.334999 425.367734,111.116001 424.941732,110.96 C424.51573,110.803999 423.936736,110.630001 423.204732,110.438 C422.304728,110.197999 421.584735,109.970001 421.044732,109.754 C420.504729,109.537999 420.042734,109.205002 419.658732,108.755 C419.27473,108.304998 419.082732,107.714004 419.082732,106.982 C419.082732,105.793994 419.484728,104.912003 420.288732,104.336 C421.092736,103.759997 422.166725,103.472 423.510732,103.472 Z M440.735096,103.652 L440.735096,105.254 L436.865096,105.254 L436.865096,116 L435.101096,116 L435.101096,105.254 L431.231096,105.254 L431.231096,103.652 L440.735096,103.652 Z M452.57746,103.652 L452.34346,105.254 L446.24146,105.254 L446.24146,108.89 L451.76746,108.89 L451.76746,110.492 L446.24146,110.492 L446.24146,114.398 L452.45146,114.398 L452.70346,116 L444.47746,116 L444.47746,103.652 L452.57746,103.652 Z M462.043824,103.652 C463.135829,103.652 464.03282,103.909997 464.734824,104.426 C465.436828,104.942003 465.787824,105.649996 465.787824,106.55 C465.787824,107.354004 465.574826,108.037997 465.148824,108.602 C464.722822,109.166003 464.197827,109.507999 463.573824,109.628 L463.573824,109.718 C464.149827,109.946001 464.623822,110.341997 464.995824,110.906 C465.367826,111.470003 465.553824,112.147996 465.553824,112.94 C465.553824,113.600003 465.589824,114.097998 465.661824,114.434 C465.733824,114.770002 465.829823,115.003999 465.949824,115.136 C466.069825,115.268001 466.243823,115.37 466.471824,115.442 L466.471824,115.946 C466.207823,116.054001 465.925826,116.108 465.625824,116.108 C465.049821,116.108 464.599826,115.937002 464.275824,115.595 C463.951822,115.252998 463.789824,114.608005 463.789824,113.66 C463.789824,112.687995 463.588826,111.929003 463.186824,111.383 C462.784822,110.836997 462.283827,110.564 461.683824,110.564 L458.551824,110.564 L458.551824,116 L456.787824,116 L456.787824,103.652 L462.043824,103.652 Z M458.551824,105.254 L458.551824,108.962 L462.061824,108.962 C462.577827,108.962 463.033822,108.788002 463.429824,108.44 C463.825826,108.091998 464.023824,107.660003 464.023824,107.144 L464.023824,107.072 C464.023824,106.543997 463.843826,106.109002 463.483824,105.767 C463.123822,105.424998 462.649827,105.254 462.061824,105.254 L458.551824,105.254 Z M479.536552,103.652 C478.804548,104.792006 478.234554,106.015993 477.826552,107.324 C477.41855,108.632007 477.214552,109.933994 477.214552,111.23 C477.214552,112.526006 477.41855,113.818994 477.826552,115.109 C478.234554,116.399006 478.804548,117.637994 479.536552,118.826 L478.600552,118.826 C477.676547,117.769995 476.968554,116.594006 476.476552,115.298 C475.98455,114.001994 475.738552,112.652007 475.738552,111.248 C475.738552,109.843993 475.98455,108.491007 476.476552,107.189 C476.968554,105.886993 477.676547,104.708005 478.600552,103.652 L479.536552,103.652 Z M492.530916,103.652 L492.530916,116 L491.036916,116 L485.006916,106.964 L484.952916,106.982 L484.952916,116 L483.350916,116 L483.350916,103.652 L484.898916,103.652 L490.874916,112.58 L490.928916,112.562 L490.928916,103.652 L492.530916,103.652 Z M502.03328,103.472 C503.053285,103.472 503.947276,103.693998 504.71528,104.138 C505.483284,104.582002 506.080278,105.220996 506.50628,106.055 C506.932282,106.889004 507.14528,107.875994 507.14528,109.016 L507.14528,110.636 C507.14528,111.776006 506.932282,112.762996 506.50628,113.597 C506.080278,114.431004 505.483284,115.069998 504.71528,115.514 C503.947276,115.958002 503.053285,116.18 502.03328,116.18 C501.013275,116.18 500.119284,115.958002 499.35128,115.514 C498.583276,115.069998 497.986282,114.431004 497.56028,113.597 C497.134278,112.762996 496.92128,111.776006 496.92128,110.636 L496.92128,109.016 C496.92128,107.875994 497.134278,106.889004 497.56028,106.055 C497.986282,105.220996 498.583276,104.582002 499.35128,104.138 C500.119284,103.693998 501.013275,103.472 502.03328,103.472 Z M502.03328,105.074 C500.977275,105.074 500.155283,105.409997 499.56728,106.082 C498.979277,106.754003 498.68528,107.731994 498.68528,109.016 L498.68528,110.636 C498.68528,111.920006 498.970277,112.897997 499.54028,113.57 C500.110283,114.242003 500.941275,114.578 502.03328,114.578 C503.089285,114.578 503.911277,114.245003 504.49928,113.579 C505.087283,112.912997 505.38128,111.932006 505.38128,110.636 L505.38128,109.016 C505.38128,107.731994 505.096283,106.754003 504.52628,106.082 C503.956277,105.409997 503.125285,105.074 502.03328,105.074 Z M515.819644,103.652 C516.851649,103.652 517.75164,103.876998 518.519644,104.327 C519.287648,104.777002 519.881642,105.418996 520.301644,106.253 C520.721646,107.087004 520.931644,108.067994 520.931644,109.196 L520.931644,110.456 C520.931644,111.584006 520.721646,112.564996 520.301644,113.399 C519.881642,114.233004 519.287648,114.874998 518.519644,115.325 C517.75164,115.775002 516.851649,116 515.819644,116 L511.535644,116 L511.535644,103.652 L515.819644,103.652 Z M513.299644,105.254 L513.299644,114.398 L515.819644,114.398 C516.887649,114.398 517.712641,114.065003 518.294644,113.399 C518.876647,112.732997 519.167644,111.752006 519.167644,110.456 L519.167644,109.196 C519.167644,107.923994 518.882647,106.949003 518.312644,106.271 C517.742641,105.592997 516.911649,105.254 515.819644,105.254 L513.299644,105.254 Z M533.422008,103.652 L533.188008,105.254 L527.086008,105.254 L527.086008,108.89 L532.612008,108.89 L532.612008,110.492 L527.086008,110.492 L527.086008,114.398 L533.296008,114.398 L533.548008,116 L525.322008,116 L525.322008,103.652 L533.422008,103.652 Z M537.434372,103.652 C538.358377,104.708005 539.06637,105.886993 539.558372,107.189 C540.050374,108.491007 540.296372,109.837993 540.296372,111.23 C540.296372,112.634007 540.050374,113.986993 539.558372,115.289 C539.06637,116.591007 538.358377,117.769995 537.434372,118.826 L536.498372,118.826 C537.218376,117.685994 537.78237,116.462007 538.190372,115.154 C538.598374,113.845993 538.802372,112.538007 538.802372,111.23 C538.802372,109.957994 538.595374,108.662007 538.181372,107.342 C537.76737,106.021993 537.206376,104.792006 536.498372,103.652 L537.434372,103.652 Z" id="IS-NOW-THE-MASTER-(N" fill="#000000"></path>
            </g>
        </g>
    </g>
</svg>