<svg xmlns="http://www.w3.org/2000/svg" xmlns:xlink="http://www.w3.org/1999/xlink" width="268" height="85" viewBox="0 0 268 85">
    <defs>
        <path id="a" d="M0 .122h77.103v84.093H0z"/>
        <path id="c" d="M0 .122h38.553v39.57H0z"/>
        <path id="e" d="M0 .164h10.698v19.89H0z"/>
        <path id="g" d="M.037 4.168v2.764l2.631.85 3.354-1.01 1.754-2.71-.877-2.392L2.823.182"/>
        <path id="i" d="M.037 4.168v2.764l2.631.85 3.354-1.01 1.754-2.71-.877-2.392L2.823.182"/>
        <path id="k" d="M.037 4.168v2.764l2.631.85 3.354-1.01 1.754-2.71-.877-2.392L2.823.182"/>
        <path id="m" d="M.23.12h38.594v39.153H.23z"/>
        <path id="o" d="M.134.07h29.954v9.608H.134z"/>
        <path id="q" d="M.984 1.67L.107 4.062l1.754 2.71 3.353 1.01 2.631-.85V4.168L5.06.182"/>
        <path id="s" d="M.984 1.67L.107 4.062l1.754 2.71 3.353 1.01 2.631-.85V4.168L5.06.182"/>
        <path id="u" d="M.984 1.67L.107 4.062l1.754 2.71 3.353 1.01 2.631-.85V4.168L5.06.182"/>
    </defs>
    <g fill="none" fill-rule="evenodd">
        <path fill="#18171D" d="M94.318 34.25h-1.705V50.4h1.754c4.719 0 7.795-3.219 7.795-8.075 0-4.812-3.129-8.074-7.844-8.074zm.016-5.354c4.112 0 7.332 1.678 9.565 3.954 2.339 2.413 3.508 5.585 3.508 9.517 0 3.932-1.17 7.093-3.508 9.484-2.576 2.624-5.765 3.937-9.565 3.937h-6.966V28.913h6.966v-.017zM116.355 36.536c-1.56 1.624-2.339 3.554-2.339 5.79 0 2.257.78 4.187 2.339 5.788 1.548 1.59 3.426 2.386 5.635 2.386 2.176 0 4.049-.795 5.619-2.386 1.57-1.59 2.354-3.52 2.354-5.789 0-2.246-.784-4.176-2.354-5.789-1.56-1.601-3.432-2.402-5.62-2.402-2.219 0-4.097.801-5.634 2.402m15.021-3.836c2.61 2.68 3.914 5.9 3.914 9.659 0 3.77-1.304 6.984-3.914 9.642-2.598 2.647-5.727 3.97-9.386 3.97-3.67-.01-6.799-1.334-9.387-3.97-2.598-2.67-3.897-5.883-3.897-9.642 0-3.748 1.3-6.968 3.897-9.66 2.61-2.68 5.738-4.02 9.387-4.02 3.648 0 6.777 1.34 9.386 4.02M149.84 28.73c4.042 0 7.264 1.828 9.403 3.986l-3.752 3.854c-1.591-1.613-3.464-2.419-5.618-2.419-2.198 0-4.071.806-5.62 2.419-1.558 1.601-2.338 3.53-2.338 5.789 0 2.257.78 4.187 2.339 5.789 1.537 1.6 3.41 2.402 5.619 2.402 3.402 0 6.031-2.172 7.177-4.705h-7.47V40.69h13.447c.374 5.026-1.232 8.675-3.817 11.311-2.609 2.658-5.738 3.987-9.386 3.987-3.681 0-6.805-1.329-9.37-3.987-2.599-2.647-3.898-5.861-3.898-9.642 0-3.748 1.3-6.968 3.897-9.66 2.577-2.68 5.7-4.02 9.37-4.02l.017.05zM181.133 28.83v5.388H170.61v5.421h7.892v5.389h-7.892v5.422h10.523v5.371h-15.785V28.83zM195.7 55.972c-3.66-.011-6.783-1.335-9.37-3.971-2.599-2.67-3.898-5.883-3.898-9.643 0-3.747 1.299-6.967 3.897-9.658 2.61-2.68 5.733-4.02 9.37-4.02l-.016.066c4.042 0 7.256 1.844 9.42 3.987l-3.752 3.854c-1.58-1.602-3.46-2.403-5.635-2.403-2.209 0-4.082.801-5.62 2.403-1.558 1.623-2.338 3.553-2.338 5.788 0 2.258.78 4.188 2.339 5.79 1.548 1.59 3.42 2.385 5.619 2.385 2.208 0 4.092-.801 5.65-2.402L205.119 52c-2.148 2.187-5.335 3.97-9.419 3.97M220.237 46.93l-2.387-5.689-2.42 5.689h4.807zm-2.404-18.585l11.953 27.443h-5.7l-1.77-4.087h-8.964l-1.77 4.087h-5.685l11.936-27.443zM238.055 50.494c1.453 0 3.057-1.24 3.057-2.732 0-2.456-3.208-2.798-5.018-3.442-3.192-1.118-6.01-3.81-6.01-7.472 0-4.535 3.58-8.189 7.995-8.189 4.025 0 7.36 3.067 7.9 7.055l-5.224 1.134c0-1.476-1.207-2.716-2.645-2.716-1.46 0-2.667 1.24-2.667 2.732 0 2.423 2.985 3.067 4.803 3.622 3.303.979 6.217 3.564 6.217 7.308 0 4.535-3.962 8.197-8.368 8.197-4.05 0-7.71-3.05-8.306-7.055l5.225-1.142c0 1.501 1.588 2.725 3.065 2.725l-.024-.025zM253.982 28.896v10.76h8.753v-10.76h5.245v26.892h-5.245V45.011h-8.753v10.777h-5.246V28.896z"/>
        <g>
            <mask id="b" fill="#fff">
                <use xlink:href="#a"/>
            </mask>
            <path fill="#CC8E58" d="M75.173 1.184L71.245.122l-5.58 3.044-9.441 7.645-4.755-1.416-5.168-.92-7.75.92-7.75-.92-5.168.92-4.754 1.416-9.44-7.645L5.856.122 1.93 1.184 0 4.157v11.396l1.378 4.743.138 4.742 3.032 6.23.206 6.565-1.378 7.38-.689 9.06 3.446 5.733 5.374 4.708 1.172 1.026 4.272 9.131 6.639 4.857 2.457 1.797 12.502 2.69h.004l12.503-2.69 2.457-1.797 6.639-4.857 4.272-9.13 1.171-1.027 5.375-4.708 3.445-5.733-.689-9.06-1.378-7.38.207-6.565 3.031-6.23.138-4.742 1.379-4.743V4.157z" mask="url(#b)"/>
        </g>
        <path fill="#CC8E58" d="M54.501 26.525l-3.652-.637-1.516-6.442L38.551 31.69l-7.75-8.8-3.032-3.444-1.516 6.442-3.652.637-2.894 3.114 1.533 4.478.879-2.39 4.083-1.486 2.79 3.982.07 2.76-3.015 10.07-1.473 7.928 7.795-8.388 4.07-1.38 2.112-13.51 2.113 13.51 4.07 1.38 7.795 8.388-1.473-7.928-3.015-10.07.07-2.76 2.79-3.982 4.082 1.487.879 2.389 1.533-4.478z"/>
        <path fill="#2D2113" d="M16.744 12.297l-5.581-6.441-5.926-1.841-2.343.566-.896 3.964v7.15l3.17 5.804 5.53 3.54 5.495-4.885z"/>
        <path fill="#2C1800" d="M38.553 30.241L37.14 16.102l1.413.23z"/>
        <g>
            <mask id="d" fill="#fff">
                <use xlink:href="#c"/>
            </mask>
            <path fill="#A8633A" d="M26.202 10.527l-5.323.283-9.44-7.644L5.856.122 1.93 1.183 0 4.157v7.22l1.998 1.486V8.545l.896-3.964 2.343-.566 5.926 1.84 5.581 6.442-.551 7.857-5.495 4.884-3.6 11.946 6.752 2.707 5.427-6.017 1.963.443-1.533-4.478 1.985-2.136.91-.978 3.651-.637 1.516-6.442 3.549-.283 3.01-3.06 2.502 3.768 1.723 11.821V12.297z" mask="url(#d)"/>
        </g>
        <path fill="#CC8E58" d="M6.133 60.006l-.752-8.884 3.997-9.556 4.472-1.875-6.753-2.707 16.986-24.12-7.89 7.29-5.495 4.884-6.15 6.23-1.172 13.944-.689 9.06z"/>
        <path fill="#A8633A" d="M21.774 25.322l5.995-5.876-1.516 6.442-3.652.637-1.223 1.316z"/>
        <path fill="#EBE8DB" d="M26.047 66.554l-4.273-3.787-3.583-13.166 1.947-6.795-.861-5.823 6.77 10.07 4.754-2.195 5.638.354-.47 3.327-3.928 1.911-1.24 3.186.62 2.831 1.135 1.308-2.789 7.08h-3.204l-2.48-3.433V63.9z"/>
        <path fill="#5D2900" d="M16.193 20.154l.551-7.857 4.496 1.557 2.843-.99zM15.504 13.288l.689 6.866.551-7.857-3.1-3.504z"/>
        <g transform="translate(0 11.213)">
            <mask id="f" fill="#fff">
                <use xlink:href="#e"/>
            </mask>
            <path fill="#A8633A" d="M4.548 20.055l-3.032-6.23L0 4.34V.164L1.998 1.65v2.832l3.17 5.804 5.53 3.54z" mask="url(#f)"/>
        </g>
        <path fill="#A8633A" d="M21.24 34.117v-3.398l5.685-2.664-.723 2.186-4.083 1.487z"/>
        <path fill="#D6B795" d="M26.357 37.833l-3.36-1.009-1.757-2.707-1.964-.443-1.085 1.204 1.085 2.105 1.105 1.643 5.666 8.427 3.014-10.07z"/>
        <path fill="#DBD5C3" d="M30.284 72.925l-1.559-5.606-2.679-.765-4.272-3.787-1.26-4.63-5.32 6.718-2.515.885 4.272 9.131 6.639 4.857 5.135-2.669 4.914-2.554z"/>
        <path fill="#2D2113" d="M60.358 12.297l5.582-6.441 5.926-1.841 2.343.566.895 3.964v7.15l-3.17 5.804-5.53 3.54-5.494-4.885z"/>
        <path fill="#2C1800" d="M48.11 36.983v-2.76l2.791-3.982 4.083 1.487.878 2.389-1.757 2.707-3.36 1.009z"/>
        <g>
            <g transform="translate(48.42 30.403)">
                <mask id="h" fill="#fff">
                    <use xlink:href="#g"/>
                </mask>
                <path fill="#4D2F00" d="M3.558 4.98c1.274 0 2.342-.907 2.63-2.129.014.124.023.25.023.378 0 1.573-1.163 2.848-2.597 2.848S1.017 4.802 1.017 3.229l.002-.072c.38 1.064 1.374 1.824 2.54 1.824" mask="url(#h)"/>
            </g>
            <g transform="translate(48.42 30.403)">
                <mask id="j" fill="#fff">
                    <use xlink:href="#i"/>
                </mask>
                <path fill="#2C1800" d="M3.558 4.98c-1.165 0-2.158-.759-2.539-1.823C1.054 1.617 2.202.381 3.614.381c1.317 0 2.405 1.076 2.573 2.47-.287 1.222-1.355 2.13-2.629 2.13" mask="url(#j)"/>
            </g>
            <g transform="translate(48.42 30.403)">
                <mask id="l" fill="#fff">
                    <use xlink:href="#k"/>
                </mask>
                <path fill="#ECD9CB" d="M4.68 3.318l1.342-.426s-.516-1.435-2.528-1.116c0 0 1.032.904 1.186 1.542" mask="url(#l)"/>
            </g>
        </g>
        <g>
            <path fill="#2C1800" d="M38.872 29.922l1.415-13.99-1.415.228z"/>
            <path fill="#262626" d="M45.39 49.919l-3.93-1.891h-5.171l-3.931 1.89-1.242 3.153.621 2.801 3.26 3.712 3.875 1.19v.001h.004v-.001l3.876-1.19 3.26-3.712.62-2.801z"/>
            <path fill="#000" d="M40.597 55.172l1.362.49h1.776l1.311-2.346-2.518-1.821-3.652-.77h-.004l-3.652.77-2.517 1.82 1.31 2.347h1.776l1.363-.49-1.173 1.576-3.106.418 2.123 2.418 3.876 1.19h.004l3.876-1.19 2.124-2.418-3.106-.418zM50.875 64.172h-3.208l-8.79-1.995v-.001h-.005l-8.79 1.996h-3.208l-2.483-3.397v2.451l1.966 2.627 3.725 1.05 4.914-2.311 3.876 1.155h.004l3.876-1.155 4.915 2.311 3.725-1.05 1.966-2.627v-2.451z"/>
            <path fill="#918A85" d="M47.667 66.903l-4.915-2.311-3.878 1.155-3.878-1.155-4.915 2.311 4.915 2.697 3.876.77h.004l3.876-.77z"/>
            <path fill="#5C524A" d="M47.667 64.172l-2.791-7.006-2.124 2.418-3.878 1.19-3.878-1.19-2.123-2.418-2.792 7.006 8.793-1.996z"/>
            <path fill="#EBE8DB" d="M47.667 66.903L42.752 69.6l-3.878.77-3.878-.77-4.915-2.697-1.043-.294 1.56 5.547 5.191 2.417 3.083.84h.004l3.083-.84 5.19-2.417 1.562-5.547z"/>
            <g transform="translate(38.642)">
                <mask id="n" fill="#fff">
                    <use xlink:href="#m"/>
                </mask>
                <path fill="#A8633A" d="M12.595 10.416l5.328.28 9.45-7.564L32.961.121l3.931 1.05 1.932 2.942v7.144l-2 1.47V8.456l-.898-3.922-2.345-.56-5.932 1.82-5.587 6.374.552 7.775 5.5 4.832 3.605 11.82-6.76 2.679-5.432-5.954-1.966.438 1.535-4.43-1.987-2.114-.91-.968-3.656-.63-1.517-6.374-3.553-.28-3.013-3.028-2.505 3.729L.231 31.358v-19.19z" mask="url(#n)"/>
            </g>
            <path fill="#CC8E58" d="M71.326 59.374l.752-8.79-4-9.456-4.477-1.855 6.76-2.68-17.003-23.865 7.898 7.214 5.5 4.832 6.157 6.164 1.172 13.798.69 8.965z"/>
            <path fill="#A8633A" d="M56.565 10.697l-4.76-1.401-5.173-.91-7.758.91-7.758-.91-5.173.91-4.76 1.4 5.33-.28 12.36 1.751h.003l12.36-1.75zM55.668 25.055l-6-5.814 1.517 6.374 3.656.63 1.224 1.303z"/>
            <path fill="#EBE8DB" d="M51.392 65.853l4.276-3.747 3.587-13.028-1.948-6.723.862-5.761-6.777 9.963-4.76-2.171-5.643.35.47 3.292 3.932 1.89 1.241 3.153-.62 2.801-1.136 1.294 2.791 7.006h3.207l2.484-3.397v2.451z"/>
            <path fill="#A8633A" d="M38.876 31.354l10.791-12.112-3.552-.28-3.014-3.03.553-2.434-4.778-1.33h-.004l-4.777 1.33.552 2.434-3.013 3.03-3.553.28 10.791 12.112v.004l.002-.002.002.002z"/>
            <path fill="#5D2900" d="M61.256 19.942l-.552-7.775-4.501 1.541-2.845-.98z"/>
            <path fill="#5D2900" d="M61.945 13.148l-.69 6.794-.551-7.775L63.808 8.7z"/>
            <path fill="#A8633A" d="M72.913 30.938l3.035-6.163 1.517-9.386v-4.132l-2 1.47v2.802l-3.173 5.743-5.535 3.503zM56.203 33.757v-3.362l-5.69-2.636.724 2.163 4.086 1.471z"/>
            <path fill="#CC8E58" d="M44.994 34.3l1.638-11.652-7.76 8.71z"/>
            <g transform="translate(23.763 73.65)">
                <mask id="p" fill="#fff">
                    <use xlink:href="#o"/>
                </mask>
                <path fill="#807664" d="M30.088 5.238L20.028.07l-1.832.853-3.085.84-3.085-.84L10.194.07.134 5.238l2.46 1.779 12.515 2.66v.001h.004l12.516-2.661z" mask="url(#p)"/>
            </g>
            <path fill="#DBD5C3" d="M15.96 37.287l-1.812 1.986-4.477 1.855-4 9.455.751 8.791 5.38 4.658v-5.989l1.822-5.36 3.68-6.949-.26-9.683zM68.078 41.128L63.6 39.273l-1.812-1.986-1.085-1.236-.259 9.683 3.68 6.949 1.821 5.36v5.99l5.38-4.659.752-8.79z"/>
            <path fill="#D6B795" d="M58.169 33.32l-1.966.437-1.759 2.68-3.363.997-2.707-.84 3.018 9.963 5.671-8.338 1.106-1.625 1.086-2.084z"/>
            <path fill="#CFC7AF" d="M60.704 36.05l-1.449-1.54-1.086 2.084-.862 5.76 1.948 6.724-2.325 8.446 5.326 6.648 2.517.875 4.935-4.272z"/>
            <path fill="#DBD5C3" d="M62.256 64.172l-5.326-6.648-1.262 4.582-4.276 3.747-2.681.756-1.561 5.547-3.358 1.564 4.919 2.527 5.14 2.641 6.646-4.806 4.276-9.035z"/>
            <path fill="#CFC7AF" d="M17.045 36.05l1.448-1.54 1.087 2.084.862 5.76-1.949 6.724 2.326 8.446-5.326 6.648-2.518.875-4.935-4.272z"/>
            <path fill="#2C1800" d="M29.306 36.594v-2.732l-2.794-3.94-4.087 1.471-.88 2.364 1.76 2.68 3.362.997z"/>
        </g>
        <g>
            <g transform="translate(21.395 30.403)">
                <mask id="r" fill="#fff">
                    <use xlink:href="#q"/>
                </mask>
                <path fill="#4D2F00" d="M4.324 4.98c-1.274 0-2.342-.907-2.629-2.129-.015.124-.023.25-.023.378 0 1.573 1.162 2.848 2.597 2.848 1.433 0 2.596-1.275 2.596-2.848l-.002-.072c-.38 1.064-1.373 1.824-2.539 1.824" mask="url(#r)"/>
            </g>
            <g transform="translate(21.395 30.403)">
                <mask id="t" fill="#fff">
                    <use xlink:href="#s"/>
                </mask>
                <path fill="#2C1800" d="M4.324 4.98c1.166 0 2.159-.759 2.54-1.823C6.827 1.617 5.68.381 4.268.381c-1.318 0-2.405 1.076-2.574 2.47.287 1.222 1.355 2.13 2.63 2.13" mask="url(#t)"/>
            </g>
            <g transform="translate(21.395 30.403)">
                <mask id="v" fill="#fff">
                    <use xlink:href="#u"/>
                </mask>
                <path fill="#ECD9CB" d="M3.202 3.318l-1.341-.426s.516-1.435 2.528-1.116c0 0-1.032.904-1.187 1.542" mask="url(#v)"/>
            </g>
        </g>
        <g>
            <path fill="#D9AA8B" d="M38.862 31.731l-2.62 16.764h5.244z"/>
            <path fill="#CC8E58" d="M67.142 68.08v-.325h1.05v.325h-.345v1.098h-.357V68.08zM69.665 67.75h.13v1.428h-.37v-.634l-.301.317h-.04l-.3-.317v.634h-.37v-1.427h.134l.553.618z"/>
            <path fill="#CC8E58" d="M68.468 66.414c-1.123 0-2.037.92-2.037 2.05 0 1.131.914 2.051 2.037 2.051 1.124 0 2.038-.92 2.038-2.05a2.047 2.047 0 0 0-2.038-2.051m0 4.374a2.319 2.319 0 0 1-2.308-2.323 2.319 2.319 0 0 1 2.308-2.324 2.319 2.319 0 0 1 2.309 2.324 2.319 2.319 0 0 1-2.309 2.323"/>
        </g>
    </g>
</svg>
