<svg xmlns="http://www.w3.org/2000/svg" xmlns:xlink="http://www.w3.org/1999/xlink" width="199" height="37" viewBox="0 0 199 37">
    <defs>
        <path id="a" d="M0 .101h35.238v36.216H0z"/>
    </defs>
    <g fill="none" fill-rule="evenodd">
        <g transform="translate(0 .012)">
            <mask id="b" fill="#fff">
                <use xlink:href="#a"/>
            </mask>
            <path fill="#5B5B5B" d="M17.615 21.457l1.842-3.241-1.84-3.233-1.827 3.215 1.825 3.259m11.666-.676c-.896 1.58-1.736 3.045-2.553 4.525a.683.683 0 0 0-.002.555 63 63 0 0 0 1.59 2.853c.69 1.153 2.09 1.516 3.206.874 1.131-.65 1.533-2.092.903-3.29-.28-.531-.588-1.048-.887-1.57-.733-1.284-1.467-2.566-2.257-3.947M5.947 15.667c.911-1.607 1.769-3.105 2.604-4.616.07-.127.044-.371-.031-.508-.533-.974-1.065-1.95-1.644-2.894-.678-1.104-2.08-1.427-3.186-.782-1.075.629-1.536 2.03-.935 3.146 1.007 1.869 2.084 3.699 3.192 5.654m8.378 5.115c-.898 1.583-1.726 3.057-2.574 4.521-.139.24-.088.411.03.62 1.244 2.192 2.482 4.385 3.72 6.578.288.508.68.89 1.23 1.098 1.203.454 2.387-.01 3.072-1.217 3.24-5.707 6.478-11.415 9.717-17.122.956-1.684 1.927-3.36 2.864-5.055.707-1.277.28-2.752-.944-3.399-1.157-.612-2.507-.18-3.201 1.04-2.77 4.872-5.535 9.745-8.302 14.618l-2.314 4.079-3.298-5.761m6.58-5.119c.914-1.611 1.776-3.109 2.605-4.625.078-.143.001-.433-.093-.602A734.73 734.73 0 0 0 19.772 4a3.037 3.037 0 0 0-.581-.752c-1.199-1.074-2.96-.65-3.775.802-3.405 6.073-6.86 12.117-10.296 18.172-.78 1.375-1.57 2.744-2.328 4.13-.493.904-.378 1.802.225 2.605.58.773 1.383 1.063 2.325.884.783-.15 1.317-.64 1.709-1.334 2.947-5.207 5.902-10.41 8.855-15.614.556-.98 1.115-1.959 1.712-3.007l3.286 5.776M10.142 8.269l1.844-3.239c.446-.784.885-1.574 1.336-2.355 1.989-3.443 6.626-3.43 8.607.027.973 1.697 1.933 3.401 2.9 5.102.074.13.153.256.27.45.375-.652.712-1.268 1.078-1.865.947-1.55 2.345-2.358 4.122-2.393 3.764-.076 6.142 4.038 4.29 7.416-1.204 2.193-2.463 4.355-3.697 6.531l-.133.244c.262.484.53.996.814 1.498 1.008 1.786 2.037 3.559 3.029 5.354 1.575 2.85.095 6.394-3.002 7.235-2.075.563-4.279-.33-5.41-2.199-.359-.594-.701-1.198-1.096-1.875-.127.208-.233.369-.327.535-.94 1.651-1.881 3.301-2.814 4.956-.959 1.7-2.397 2.62-4.323 2.626-1.951.006-3.393-.937-4.364-2.653-.962-1.703-1.94-3.396-2.912-5.093-.063-.11-.137-.212-.236-.362-.368.64-.702 1.249-1.06 1.842-1.525 2.516-4.748 3.15-7.094 1.404-1.98-1.473-2.539-4.262-1.286-6.494 1.16-2.067 2.336-4.125 3.505-6.186.102-.18.202-.36.315-.563-1.056-1.862-2.114-3.725-3.17-5.589-.278-.49-.572-.974-.82-1.48C-.66 8.774.252 5.869 2.55 4.592c2.264-1.258 5.152-.475 6.495 1.767.366.61.709 1.235 1.096 1.911" mask="url(#b)"/>
        </g>
        <path fill="#5B5B5B" d="M128.17 16.658c.114.013.203.031.291.031 1.599.001 3.198.023 4.796-.012a11.021 11.021 0 0 0 2.043-.24c1.007-.214 1.648-.855 1.767-1.923.067-.597.12-1.21.064-1.804-.14-1.488-.811-2.254-2.175-2.567a5.364 5.364 0 0 0-1.102-.15c-1.784-.03-3.567-.038-5.351-.05-.105 0-.21.036-.334.059v6.656zm-.004 8.896c.164.02.274.043.383.043 1.86.002 3.72.014 5.58-.006a8.702 8.702 0 0 0 1.605-.175c1.105-.221 1.723-.874 1.893-2.017.08-.537.112-1.097.06-1.635-.172-1.816-1.031-2.724-2.825-2.801-2.19-.095-4.386-.057-6.58-.074-.03 0-.06.036-.116.071v6.594zm9.519-7.904c.068.046.11.092.16.105 1.477.38 2.227 1.427 2.505 2.873.252 1.312.26 2.63-.056 3.938-.351 1.455-1.233 2.42-2.622 2.917-.995.356-2.03.5-3.071.49-2.9-.025-5.8-.096-8.699-.159-.525-.011-.571-.07-.571-.601-.003-6.299 0-12.597-.007-18.895 0-.392.1-.586.527-.603 2.917-.115 5.834-.3 8.751-.091.717.05 1.44.198 2.132.398 1.804.522 2.865 1.751 3.143 3.645.174 1.186.173 2.374-.089 3.55-.263 1.185-.882 2.07-2.103 2.433zM181.299 15.12c-1.633 0-3.197-.072-4.752.021-1.41.085-2.096.743-2.33 2.157a19.93 19.93 0 0 0-.01 6.38c.238 1.502.868 2.072 2.39 2.23.993.103 2.004.055 3.006.039.565-.01 1.13-.092 1.696-.142V15.12zm.047 13.081c-2.02.216-3.913.295-5.807.064a7.15 7.15 0 0 1-1.252-.267c-1.318-.41-2.12-1.335-2.503-2.663-.337-1.172-.44-2.375-.452-3.587-.02-1.852-.094-3.708.327-5.533.47-2.043 1.562-3.135 3.624-3.357 1.491-.161 3.006-.168 4.507-.133 1.167.028 2.332.206 3.494.355.69.088.729.167.729.873.001 4.483.026 8.966-.017 13.449-.01 1.124-.163 2.262-.39 3.364-.288 1.401-1.226 2.248-2.586 2.604-1.33.348-2.688.38-4.046.336-1.059-.034-2.115-.135-3.171-.22-.516-.042-.597-.139-.62-.67a9.462 9.462 0 0 1 .002-.907c.027-.5.105-.574.615-.576 1.433-.004 2.867.017 4.3-.01.571-.011 1.147-.09 1.71-.195.804-.15 1.27-.686 1.405-1.492.077-.456.087-.923.131-1.435zM80.81 28.202c-2 .215-3.912.306-5.822.057a7.28 7.28 0 0 1-1.664-.44c-1.064-.412-1.73-1.247-2.025-2.335-.221-.814-.418-1.664-.437-2.502-.07-3.194-.067-6.39-.082-9.585-.003-.513.079-.576.596-.582.484-.006.968-.005 1.452 0 .55.006.59.045.59.627.003 2.175-.02 4.35.01 6.525.017 1.188.06 2.382.204 3.56.188 1.532.874 2.185 2.381 2.384 1.577.208 3.15.058 4.777-.11v-.708-11.518c0-.74.022-.76.76-.761.484-.001.968.007 1.452-.002.33-.007.485.139.469.475-.006.113 0 .227 0 .34 0 4.597.021 9.193-.017 13.788a17.799 17.799 0 0 1-.352 3.255c-.29 1.478-1.254 2.415-2.701 2.674a23.064 23.064 0 0 1-3.656.332c-1.167.02-2.337-.115-3.505-.203-.7-.054-.749-.128-.75-.824-.002-.227-.003-.454 0-.68.005-.624.033-.654.682-.655 1.414-.003 2.829.015 4.243-.009.573-.01 1.15-.076 1.717-.166.916-.147 1.463-.698 1.576-1.648.048-.41.066-.821.102-1.29M166.618 25.782V15.115c-1.59 0-3.136-.065-4.673.02-1.437.08-2.156.741-2.38 2.17a21.139 21.139 0 0 0-.006 6.435c.213 1.412.863 1.97 2.263 2.167 1.597.225 3.186.033 4.796-.125m.048-12.97v-1.028c0-1.135-.004-2.27.001-3.404.003-.621.056-.67.68-.673.52-.003 1.041.01 1.562-.003.308-.007.444.145.462.435.011.17.013.34.013.51v18.265c0 .151-.002.303-.006.454-.009.328-.152.506-.494.563-2.042.338-4.095.528-6.164.451-.76-.028-1.527-.064-2.273-.202-2.12-.392-3.13-1.448-3.511-3.61-.336-1.909-.345-3.838-.22-5.763a19.24 19.24 0 0 1 .438-3.071c.35-1.52 1.369-2.422 2.852-2.784 1.39-.34 2.804-.316 4.217-.269.794.027 1.587.082 2.443.128M89.067 15.065v10.711c1.603.172 3.19.353 4.785.13 1.433-.199 2.096-.836 2.313-2.26.288-1.896.222-3.804.081-5.709a5.638 5.638 0 0 0-.222-1.107c-.249-.877-.833-1.422-1.708-1.599a8.309 8.309 0 0 0-1.492-.159c-1.241-.022-2.484-.007-3.757-.007m-.032 13.187v3.574c0 .302.004.605 0 .907-.01.576-.082.651-.65.659-.503.007-1.005-.006-1.507.003-.368.006-.564-.144-.542-.537.007-.132 0-.264 0-.397V14.087c0-.868.036-.89.884-1.024 2.286-.362 4.583-.508 6.891-.335.607.045 1.216.164 1.807.318 1.356.353 2.273 1.244 2.602 2.61.263 1.092.415 2.226.478 3.35.105 1.865.12 3.742-.258 5.585a6.755 6.755 0 0 1-.635 1.798c-.688 1.294-1.923 1.777-3.258 1.859-1.683.104-3.376.043-5.065.049-.222 0-.444-.026-.747-.045M196.225 19.48c.03-.933-.04-1.825-.283-2.699-.246-.883-.818-1.411-1.707-1.582a8.048 8.048 0 0 0-3.149.017c-.541.11-1.034.347-1.338.84-.649 1.056-.633 2.235-.654 3.425h7.13zm-7.194 2.263c.138.906.22 1.693.385 2.462.21.977.884 1.503 1.828 1.667.438.076.886.116 1.33.12 1.508.015 3.015.004 4.522.007.596 0 .68.086.689.68.004.322.007.644-.006.965-.012.274-.137.472-.43.504-2.39.264-4.783.408-7.175.058-2.035-.298-3.177-1.569-3.486-3.578-.434-2.817-.472-5.647.065-8.46.348-1.822 1.434-2.953 3.25-3.283a15.076 15.076 0 0 1 5.328-.014c1.77.31 2.83 1.404 3.23 3.168.377 1.653.388 3.335.368 5.019-.005.413-.213.626-.616.649-.222.013-.444.034-.667.034-2.605.003-5.21.002-7.815.002h-.8zM119.83 20.74c-.078-1.21-.1-2.175-.209-3.13-.188-1.64-1.015-2.411-2.637-2.502a16.624 16.624 0 0 0-2.001.003c-1.576.102-2.389.843-2.588 2.432-.25 1.992-.251 3.997 0 5.99.194 1.528.858 2.205 2.383 2.372.878.096 1.782.063 2.663-.027 1.196-.123 1.867-.736 2.072-1.95.19-1.128.232-2.283.317-3.187m2.723-.226c-.12 1.353-.17 2.716-.375 4.056-.333 2.171-1.372 3.234-3.497 3.617-1.881.338-3.78.32-5.657-.055-1.93-.386-2.888-1.711-3.213-3.597-.323-1.873-.326-3.762-.227-5.65.05-.939.158-1.884.345-2.804.354-1.746 1.416-2.822 3.161-3.16a14.952 14.952 0 0 1 5.71-.028c2.049.394 3.029 1.503 3.399 3.664.086.502.174 1.008.194 1.516.033.81.009 1.623.009 2.434l.151.007M56.151 10.047c-1.37.09-2.75.118-4.11.287-1.655.205-2.725 1.22-3.07 2.86-.255 1.213-.387 2.463-.447 3.703-.09 1.812-.057 3.63.308 5.42.45 2.208 1.614 3.324 3.814 3.444 2.041.111 4.09.075 6.136.104.168.002.335.003.503.002.27-.003.426.13.43.405.008.454.01.908 0 1.362-.01.35-.231.493-.547.522-.74.066-1.481.186-2.222.187-1.747.005-3.498.024-5.239-.098-1.566-.11-3.031-.605-4.136-1.849-.892-1.005-1.29-2.24-1.527-3.534-.454-2.489-.45-5.002-.266-7.512a20.2 20.2 0 0 1 .48-3.071c.6-2.592 2.272-4.022 4.83-4.447 1.98-.328 3.968-.242 5.956-.146.687.032 1.373.1 2.057.17.51.052.606.17.62.679.007.321.005.643 0 .965-.01.563-.063.624-.606.626-.986.005-1.972.002-2.959.002l-.005-.08M102.194 15.008c-.525 0-.986-.015-1.445.004-.389.017-.541-.158-.53-.538.011-.378.005-.757.002-1.135-.003-.354.16-.517.513-.509.462.011.924.003 1.46.003v-.816c0-1.23-.004-2.46.002-3.689.002-.57.05-.615.605-.62a62.968 62.968 0 0 1 1.508 0c.511.007.579.071.581.594.007 1.324.003 2.648.003 3.972v.559h2.597c.728.001.751.026.753.769 0 .302-.01.605.002.907.014.368-.157.507-.507.502-.744-.01-1.488-.003-2.233-.003h-.582c-.012.233-.029.416-.029.6-.002 2.95-.001 5.901 0 8.852 0 .17-.006.342.016.51.074.585.288.873.864.944.662.08 1.335.067 2.003.082.653.014.686.041.689.719.001.321-.01.643.003.964.013.326-.15.506-.44.556-1.35.235-2.707.287-4.037-.096-1.093-.314-1.681-1.164-1.773-2.418a12.466 12.466 0 0 1-.024-.907c-.002-3.045-.001-6.09-.001-9.136v-.67zM61.619 21.514c0-1.777-.01-3.554.002-5.33.016-2.087.842-3.126 2.808-3.42 1.499-.225 3.006-.12 4.494.156.598.111.656.222.663.845.016 1.546.01 1.263-1.251 1.282-.78.012-1.562.015-2.342.044a3.913 3.913 0 0 0-.878.136c-.454.124-.731.434-.775.926-.021.244-.037.49-.037.734-.003 3.46-.002 6.918-.002 10.377 0 .17 0 .34-.004.51-.009.316-.156.494-.482.492-.576-.002-1.153 0-1.73-.002-.297 0-.44-.165-.455-.456-.009-.17-.01-.34-.01-.51-.002-1.928-.001-3.856-.001-5.784M142.731 21.57c0-1.813.036-3.629-.01-5.442-.056-2.232 1.2-3.284 3.128-3.39 1.291-.07 2.596.031 3.89.128.847.063.916.212.922 1.07.008 1.253.022 1.11-1.074 1.113-.873.003-1.747.01-2.619.052a3.19 3.19 0 0 0-.97.216c-.357.136-.534.458-.573.84-.03.3-.048.602-.048.904-.003 3.458-.001 6.916-.002 10.374 0 .815-.017.83-.807.832-.409.001-.818.007-1.227-.001-.544-.01-.607-.072-.608-.63-.004-2.022-.002-4.043-.002-6.065M154.234 20.553l-.001 6.975c0 .678-.06.735-.74.74-.409.001-.818.002-1.227-.001-.678-.005-.711-.04-.712-.754-.002-1.266 0-2.533 0-3.8v-10.15c0-.747.001-.748.753-.75.446 0 .893-.005 1.34.002.508.008.583.078.584.593.006 1.568.003 3.137.003 4.706v2.439zM154.344 9.169c0 .301.002.602 0 .903-.003.395-.207.585-.59.585-.593 0-1.185.003-1.778-.002-.327-.003-.528-.163-.53-.514-.006-.64-.004-1.28-.002-1.92.001-.348.183-.513.521-.513.612 0 1.223.002 1.834-.001.373-.002.54.197.544.558.004.302.001.603.001.904"/>
    </g>
</svg>
