<?xml version="1.0" encoding="UTF-8"?>
<svg width="310px" height="181px" viewBox="0 0 310 181" version="1.1" xmlns="http://www.w3.org/2000/svg" xmlns:xlink="http://www.w3.org/1999/xlink">
    <!-- Generator: Sketch 50.2 (55047) - http://www.bohemiancoding.com/sketch -->
    <title>Group 30</title>
    <desc>Created with Sketch.</desc>
    <defs>
        <polyline id="path-1" points="0.0422004028 4.3399072 0.0422004028 7.32179451 2.94735146 8.23937784 6.64994461 7.14979072 8.58654079 4.22512311 7.6182427 1.64472159 3.11820745 0.0389507576"></polyline>
        <polyline id="path-3" points="0.0422004028 4.3399072 0.0422004028 7.32179451 2.94735146 8.23937784 6.64994461 7.14979072 8.58654079 4.22512311 7.6182427 1.64472159 3.11820745 0.0389507576"></polyline>
        <polyline id="path-5" points="0.0422004028 4.3399072 0.0422004028 7.32179451 2.94735146 8.23937784 6.64994461 7.14979072 8.58654079 4.22512311 7.6182427 1.64472159 3.11820745 0.0389507576"></polyline>
        <polyline id="path-7" points="1.01144008 1.64472159 0.0429707956 4.22512311 1.97973817 7.14979072 5.68233132 8.23937784 8.58748238 7.32179451 8.58748238 4.3399072 5.51138973 0.0389507576"></polyline>
        <polyline id="path-9" points="1.01144008 1.64472159 0.0429707956 4.22512311 1.97973817 7.14979072 5.68233132 8.23937784 8.58748238 7.32179451 8.58748238 4.3399072 5.51138973 0.0389507576"></polyline>
        <polyline id="path-11" points="1.01144008 1.64472159 0.0429707956 4.22512311 1.97973817 7.14979072 5.68233132 8.23937784 8.58748238 7.32179451 8.58748238 4.3399072 5.51138973 0.0389507576"></polyline>
    </defs>
    <g id="Page-1" stroke="none" stroke-width="1" fill="none" fill-rule="evenodd">
        <g id="Mobile" transform="translate(-33.000000, -84.000000)">
            <g id="Group-30" transform="translate(33.000000, 84.000000)">
                <g id="Group-27" transform="translate(41.000000, 0.000000)">
                    <g id="doge" transform="translate(71.000000, 0.000000)">
                        <g id="Group-67">
                            <polygon id="Fill-1" fill="#B16B3A" points="78.5283671 0.0858640152 72.376353 3.37366989 61.9712573 11.6314028 56.7307034 10.1021547 51.0344194 9.10822102 42.4920478 10.1019824 33.9497618 9.10822102 28.2534778 10.1021547 23.0128384 11.6314028 12.6077427 3.37366989 6.4557286 0.0858640152 2.12663494 1.23275701 8.55991943e-06 4.4442125 8.55991943e-06 12.2430676 8.55991943e-06 16.754203 1.51896626 21.8770894 1.67090483 26.9999758 5.01269738 33.7284606 5.24056244 40.8200837 3.72151913 48.791115 2.96208308 58.5780098 6.75952014 64.7712665 12.6836692 69.8563223 13.9747618 70.9646093 18.6837447 80.8279407 26.0012774 86.0739701 28.7091224 88.0152172 42.4900791 90.9198924 42.4900791 90.9207542 42.4920478 90.9203233 42.4941022 90.9207542 42.4941022 90.9198924 56.2749733 88.0152172 58.9828182 86.0739701 66.3004366 80.8279407 71.0093338 70.9646093 72.3004265 69.8563223 78.2245755 64.7712665 82.0220982 58.5780098 81.2625765 48.791115 79.7436188 40.8200837 79.9713983 33.7284606 83.3132764 26.9999758 83.4651294 21.8770894 84.9841727 16.754203 84.9841727 4.4442125 82.8574607 1.23275701"></polygon>
                            <polygon id="Fill-2" fill="#CC8E58" points="56.2749904 50.7790686 52.9522009 39.9025866 49.2306047 37.3985354 42.4937769 34.1888896 42.4941193 34.1871661 42.492065 34.188114 42.4900962 34.1871661 42.490353 34.1888896 35.7535252 37.3985354 32.031929 39.9025866 28.7091395 50.7790686 27.0857508 59.3426339 35.6775987 50.2820155 40.1637669 48.791115 42.492065 34.1996614 44.820363 48.791115 49.3066168 50.2820155 57.8984648 59.3426339"></polygon>
                            <polygon id="Fill-3" fill="#2D2113" points="18.455854 13.2370616 12.3039255 6.27918097 5.77219335 4.29114119 3.18992246 4.90289214 2.20253575 9.18463172 2.20253575 16.9071365 5.69626687 23.1769158 11.7912719 26.9998637 17.8482709 21.7241043"></polygon>
                            <polygon id="Fill-4" fill="#2C1800" points="42.4941022 32.6197428 40.9371385 17.3472542 42.4941022 17.5952636"></polygon>
                            <polygon id="Fill-5" fill="#A8633A" points="6.45573716 0.0858640152 2.1266435 1.23275701 1.71198389e-05 4.4442125 1.71198389e-05 12.2430676 2.20256999 13.8487523 2.20256999 9.18465758 3.1899567 4.90283182 5.77222759 4.29116705 12.3039597 6.27920682 18.4558026 13.2370875 17.8483051 21.7241301 11.7912205 26.9999758 7.82284189 39.9025866 15.2659486 42.827168 21.2470211 36.328079 23.411568 36.8060013 21.7217543 31.9698167 23.9098409 29.6621566 24.9116939 28.6055742 28.9369104 27.9174729 30.6078922 20.9595061 34.5192618 20.6536737 37.8375146 17.3472542 40.5953494 21.4182977 42.4941108 34.1872523 42.4941108 13.2370875 28.8799013 11.3255705 23.0128469 11.6314028 12.6076657 3.37366989"></polygon>
                            <polygon id="Fill-6" fill="#CC8E58" points="6.7595287 64.7712751 5.9312709 55.1745668 10.3363766 44.8524437 15.2659486 42.8271766 7.82284189 39.9025952 26.5445841 13.8487609 17.8483051 21.7241387 11.7912205 26.9998982 5.01270594 33.728383 3.72161329 48.7911236 2.96209164 58.5780185"></polygon>
                            <polygon id="Fill-7" fill="#A8633A" points="24.0002422 27.3057651 30.6079008 20.9595491 28.9370045 27.9174298 24.9116168 28.6055312 23.5635151 30.0274062"></polygon>
                            <polygon id="Fill-8" fill="#EBE8DB" points="28.7091138 71.8438709 24.0002165 67.7532658 20.0508409 53.5316721 22.1963847 46.1914363 21.247004 39.9025262 28.7091138 50.7790944 33.9497533 48.4087857 40.1637412 48.7910546 39.6459517 52.3846929 35.3167724 54.4491692 33.9497533 57.8898482 34.6332628 60.9482582 35.8840383 62.3607402 32.810428 70.0088766 29.2786908 70.0088766 26.544567 66.3004543 26.544567 68.9765954"></polygon>
                            <polygon id="Fill-9" fill="#5D2900" points="17.8483051 21.7241301 18.4558882 13.2370875 23.411568 14.9192087 26.5445841 13.8487523"></polygon>
                            <polygon id="Fill-10" fill="#5D2900" points="17.0887749 14.3075095 17.8482966 21.7240956 18.4558797 13.237053 15.0381606 9.4522803"></polygon>
                            <polygon id="Fill-11" fill="#A8633A" points="0 16.7542203 1.67089627 26.9999068 5.01268882 33.7283917 11.7912034 26.9999068 5.69619839 23.1768727 2.20255287 16.9071795 2.20255287 13.8486833 0 12.2430848"></polygon>
                            <polygon id="Fill-12" fill="#CC8E58" points="23.4115765 36.8059669 21.7217628 31.9697822 24.9116168 28.6055398 28.9370045 27.9174384 30.6079008 20.9595578 42.4941193 34.1872178 35.7535252 37.3985009 32.031929 39.9025521 31.9560025 36.9206648 28.8799955 32.6197083 24.3799602 34.225393"></polygon>
                            <polygon id="Fill-13" fill="#A8633A" points="23.4115765 36.8059669 23.4115765 33.135892 29.6774376 30.2579309 28.8799955 32.6197083 24.3799602 34.225393"></polygon>
                            <polygon id="Fill-14" fill="#CC8E58" points="35.7534995 37.3985009 33.9497533 24.6784934 42.4940937 34.1872178"></polygon>
                            <polygon id="Fill-15" fill="#D6B795" points="29.0509285 40.8200923 25.3483353 39.7305052 23.411568 36.8059238 21.2470211 36.3280876 20.0507724 37.6279399 21.2470211 39.9025952 22.4645841 41.6772675 28.7091309 50.7790772 32.0319204 39.9025952"></polygon>
                            <polygon id="Fill-16" fill="#DBD5C3" points="33.3800393 78.7253151 31.6613787 72.6694202 28.709148 71.8438709 24.0002508 67.7532658 22.6113182 62.7520575 16.747003 70.0087904 13.9747875 70.964549 18.6837704 80.8279666 26.0013031 86.0739959 31.6613787 83.1908643 37.0776677 80.4319959"></polygon>
                            <polygon id="Fill-17" fill="#2D2113" points="66.5282503 13.2370616 72.6802644 6.27918097 79.2119965 4.29114119 81.7942674 4.90289214 82.7815685 9.18463172 82.7815685 16.9071365 79.2878374 23.1769158 73.1928323 26.9998637 67.1359189 21.7241043"></polygon>
                            <polygon id="Fill-18" fill="#2C1800" points="53.0281531 39.9025607 53.0281531 36.9205872 56.1041601 32.619717 60.6041954 34.2254016 61.5724935 36.8058893 59.6358117 39.7305569 55.9332185 40.8200579"></polygon>
                            <g id="Group-28" transform="translate(52.985901, 32.580758)">
                                <g id="Group-21">
                                    <mask id="mask-2" fill="white">
                                        <use xlink:href="#path-1"></use>
                                    </mask>
                                    <g id="Clip-20"></g>
                                    <path d="M3.92999597,5.21650606 C5.33673313,5.21650606 6.51560524,4.23722197 6.83257905,2.91910076 C6.8491853,3.05249848 6.85843001,3.18839527 6.85843001,3.32661875 C6.85843001,5.02347576 5.57487009,6.39907519 3.99154179,6.39907519 C2.4081279,6.39907519 1.12456798,5.02347576 1.12456798,3.32661875 C1.12456798,3.30059413 1.12576636,3.2749142 1.12636556,3.24897576 C1.5467432,4.39741989 2.64326888,5.21650606 3.92999597,5.21650606" id="Fill-19" fill="#4D2F00" mask="url(#mask-2)"></path>
                                </g>
                                <g id="Group-24">
                                    <mask id="mask-4" fill="white">
                                        <use xlink:href="#path-3"></use>
                                    </mask>
                                    <g id="Clip-23"></g>
                                    <path d="M3.92999597,5.21650606 C2.64326888,5.21650606 1.5467432,4.39741989 1.12636556,3.24897576 C1.1648852,1.58813958 2.43243807,0.254162311 3.99154179,0.254162311 C5.4458721,0.254162311 6.64640081,1.41501553 6.83257905,2.91910076 C6.51560524,4.23722197 5.33673313,5.21650606 3.92999597,5.21650606" id="Fill-22" fill="#2C1800" mask="url(#mask-4)"></path>
                                </g>
                                <g id="Group-27">
                                    <mask id="mask-6" fill="white">
                                        <use xlink:href="#path-5"></use>
                                    </mask>
                                    <g id="Clip-26"></g>
                                    <path d="M5.16883887,3.42233248 L6.64996173,2.96354081 C6.64996173,2.96354081 6.08021349,1.4152482 3.8587432,1.75934195 C3.8587432,1.75934195 4.99798288,2.73423116 5.16883887,3.42233248" id="Fill-25" fill="#ECD9CB" mask="url(#mask-6)"></path>
                                </g>
                            </g>
                            <polygon id="Fill-29" fill="#2C1800" points="42.4900876 32.6197428 44.0470514 17.3472542 42.4900876 17.5952636"></polygon>
                            <polygon id="Fill-30" fill="#262626" points="49.6673832 54.4491692 45.3382039 52.3846929 42.4940851 52.3846929 42.4900619 52.3846929 39.6459431 52.3846929 35.3168494 54.4491692 33.9497447 57.8898482 34.6332543 60.9482582 38.2219149 65.0006882 42.4900619 66.2992478 42.4900619 66.3004543 42.4921163 66.2999372 42.4940851 66.3004543 42.4940851 66.2992478 46.7623177 65.0006882 50.3508927 60.9482582 51.0344879 57.8898482"></polygon>
                            <polygon id="Fill-31" fill="#000000" points="44.3888233 60.1836773 45.8887779 60.7189055 47.8445483 60.7189055 49.2875796 58.1574623 46.5154496 56.1695087 42.4940851 55.3292237 42.4940851 55.3284481 42.4921163 55.328879 42.4900619 55.3284481 42.4900619 55.3292237 38.4686974 56.1695087 35.6965675 58.1574623 37.1395131 60.7189055 39.0952835 60.7189055 40.5953238 60.1836773 39.3042311 61.9040598 35.8841153 62.3607833 38.2219149 65.0006451 42.4900619 66.2992909 42.4900619 66.3004973 42.4921163 66.2998941 42.4940851 66.3004973 42.4940851 66.2992909 46.7623177 65.0006451 49.1001173 62.3607833 45.6800015 61.9040598"></polygon>
                            <polygon id="Fill-32" fill="#000000" points="55.7053877 70.0087991 52.1737362 70.0087991 42.4940937 67.8305727 42.4940937 67.829711 42.4921249 67.8301419 42.4900705 67.829711 42.4900705 67.8305727 32.810428 70.0087991 29.2786908 70.0087991 26.544567 66.3004629 26.544567 68.976604 28.7091138 71.8438795 32.810428 72.9907725 38.2219235 70.4675907 42.4900705 71.7279752 42.4900705 71.7291816 42.4921249 71.7285784 42.4940937 71.7291816 42.4940937 71.7279752 46.7622407 70.4675907 52.1737362 72.9907725 56.2749648 71.8438795 58.4395972 68.976604 58.4395972 66.3004629"></polygon>
                            <polygon id="Fill-33" fill="#918A85" points="52.1737447 72.9907725 46.7622492 70.4675907 42.4920478 71.7285784 38.221932 70.4675907 32.8104366 72.9907725 38.221932 75.9344847 42.4900791 76.7747697 42.4900791 76.7755453 42.4920478 76.7752006 42.4941022 76.7755453 42.4941022 76.7747697 46.7622492 75.9344847"></polygon>
                            <polygon id="Fill-34" fill="#5C524A" points="52.1737447 70.0087991 49.1001344 62.3607489 46.7622492 65.0006968 42.4920478 66.2998597 38.221932 65.0006968 35.8840468 62.3607489 32.8104366 70.0087991 42.4920478 67.8301419"></polygon>
                            <polygon id="Fill-35" fill="#EBE8DB" points="52.1737447 72.9907725 46.7622492 75.9344847 42.4920478 76.7752006 38.221932 75.9344847 32.8104366 72.9907725 31.661353 72.6694288 33.3800136 78.7253237 39.0953006 81.3632034 42.4900791 82.2796665 42.4900791 82.2807006 42.4920478 82.2801835 42.4941022 82.2807006 42.4941022 82.2796665 45.8887951 81.3632034 51.6040821 78.7253237 53.3228283 72.6694288"></polygon>
                            <polygon id="Fill-36" fill="#A8633A" points="78.5283671 0.0858640152 72.376353 3.37366989 61.9712573 11.6314028 56.1041173 11.3255705 42.4900791 13.2370875 42.4900791 34.1872523 44.3887548 21.4182977 47.1466752 17.3472542 50.4648424 20.6536737 54.376212 20.9595061 56.0471939 27.9174729 60.072496 28.6055742 61.0742633 29.6621566 63.2624355 31.9698167 61.5724507 36.8060013 63.7370831 36.328079 69.7181556 42.827168 77.1612623 39.9025866 73.1928837 26.9999758 67.1358847 21.7241301 66.5283016 13.2370875 72.6802301 6.27920682 79.2118766 4.29116705 81.7942331 4.90283182 82.7816198 9.18465758 82.7816198 13.8487523 84.9841727 12.2430676 84.9841727 4.4442125 82.8575463 1.23275701"></polygon>
                            <polygon id="Fill-37" fill="#CC8E58" points="78.2245755 64.7712751 79.0528333 55.1745668 74.6477276 44.8524437 69.7181556 42.8271766 77.1612623 39.9025952 58.4396057 13.8487609 67.1358847 21.7241387 73.1928837 26.9998982 79.9713983 33.728383 81.2625765 48.7911236 82.0220982 58.5780185"></polygon>
                            <polygon id="Fill-38" fill="#A8633A" points="61.9712659 11.6313942 56.730712 10.1021461 51.034428 9.10821241 42.4920564 10.1018876 33.9497704 9.10821241 28.2534864 10.1021461 23.0128469 11.6313942 28.8799869 11.3255618 42.4900876 13.2364757 42.4900876 13.2370789 42.4920564 13.2367342 42.4941108 13.2370789 42.4941108 13.2364757 56.1041259 11.3255618"></polygon>
                            <polygon id="Fill-39" fill="#A8633A" points="60.9839476 27.3057651 54.376289 20.9595491 56.0471853 27.9174298 60.072573 28.6055312 61.4206747 30.0274062"></polygon>
                            <polygon id="Fill-40" fill="#EBE8DB" points="56.2749904 71.8438709 60.9839733 67.7532658 64.9332633 53.5316721 62.7877195 46.1914363 63.7371002 39.9025262 56.2749904 50.7790944 51.0344366 48.4087857 44.820363 48.7910546 45.3381526 52.3846929 49.6674174 54.4491692 51.0344366 57.8898482 50.350927 60.9482582 49.1001516 62.3607402 52.1737618 70.0088766 55.7054134 70.0088766 58.4396229 66.3004543 58.4396229 68.9765954"></polygon>
                            <polygon id="Fill-41" fill="#A8633A" points="42.4941022 34.1827884 54.3762976 20.9595233 50.4648424 20.6536909 47.1466752 17.3472714 47.7545151 14.6897439 42.4941022 13.2381388 42.4941022 13.2370186 42.4921334 13.2376218 42.4900791 13.2370186 42.4900791 13.2381388 37.2295806 14.6897439 37.8375916 17.3472714 34.5193389 20.6536909 30.6079693 20.9595233 42.4900791 34.1827884 42.4900791 34.1871833 42.4921334 34.1849428 42.4941022 34.1871833"></polygon>
                            <polygon id="Fill-42" fill="#5D2900" points="67.1358847 21.7241301 66.528216 13.2370875 61.5725363 14.9192087 58.4396057 13.8487523"></polygon>
                            <polygon id="Fill-43" fill="#5D2900" points="67.8954149 14.3075095 67.1358933 21.7240956 66.5282246 13.237053 69.9460292 9.4522803"></polygon>
                            <polygon id="Fill-44" fill="#A8633A" points="82.7816284 13.8487092 82.7815428 16.9072054 79.2878973 23.1768124 73.1928922 26.9999327 79.9714068 33.7284175 83.3131994 26.9999327 84.9841813 16.7542461 84.9841813 12.2430245"></polygon>
                            <polygon id="Fill-45" fill="#CC8E58" points="61.5725277 36.8059669 63.262427 31.9697822 60.072573 28.6055398 56.0471853 27.9174384 54.376289 20.9595578 42.4900705 34.1872178 49.2305791 37.3985009 52.9521752 39.9025521 53.0281873 36.9206648 56.1041088 32.6197083 60.604144 34.225393"></polygon>
                            <polygon id="Fill-46" fill="#A8633A" points="61.5725277 36.8059669 61.5725277 33.135892 55.3066667 30.2579309 56.1041088 32.6197083 60.604144 34.225393"></polygon>
                            <polygon id="Fill-47" fill="#CC8E58" points="49.2306047 37.3985009 51.0344366 24.6784934 42.4900962 34.1872178"></polygon>
                            <polygon id="Fill-48" fill="#807664" points="45.8888293 81.3631603 42.4920821 82.2802266 39.0952492 81.3631603 37.0776762 80.4319615 26.0013117 86.0739615 28.7091566 88.0152086 42.4901133 90.9198838 42.4901133 90.9207455 42.4920821 90.9202285 42.4941365 90.9207455 42.4941365 90.9198838 56.274922 88.0152086 58.9828525 86.0739615 47.9064023 80.4319615"></polygon>
                            <polygon id="Fill-49" fill="#DBD5C3" points="17.2609748 40.6593601 15.2659144 42.8271594 10.3363424 44.8524264 5.93132226 55.1745495 6.75949446 64.771344 12.6836435 69.8563137 12.6836435 63.3185325 14.688719 57.4666982 18.7406425 49.8806935 18.455854 39.3099577"></polygon>
                            <polygon id="Fill-50" fill="#DBD5C3" points="74.647719 44.8524006 69.718147 42.8272197 67.7230866 40.6593343 66.5282931 39.310018 66.2434189 49.8806676 70.295428 57.4666723 72.3005035 63.3185928 72.3005035 69.8562879 78.224567 64.7713182 79.0528248 55.1745237"></polygon>
                            <polygon id="Fill-51" fill="#D6B795" points="63.7371601 36.3280531 61.5725277 36.8059755 59.6358459 39.7305569 55.9332528 40.8200579 52.9521752 39.9025607 56.2749648 50.7790427 62.5195116 41.677233 63.7371601 39.9025607 64.9333233 37.6279054"></polygon>
                            <polygon id="Fill-52" fill="#CFC7AF" points="66.5282503 39.3099835 64.9332805 37.6278623 63.7371173 39.9026038 62.7877367 46.1914277 64.9332805 53.5316634 62.3727518 62.7520489 68.2371526 70.008868 71.0093681 70.9645403 76.4430337 66.3004456"></polygon>
                            <polygon id="Fill-53" fill="#DBD5C3" points="68.2371354 70.0087991 62.3727346 62.7520661 60.9839733 67.7532744 56.2749904 71.8438795 53.3228454 72.6694288 51.6040992 78.7253237 47.9063852 80.4320045 53.3228454 83.1908729 58.9828353 86.0740045 66.3004537 80.8279752 71.009351 70.9645576"></polygon>
                            <polygon id="Fill-54" fill="#CFC7AF" points="18.455854 39.3099835 20.0508238 37.6278623 21.2469869 39.9026038 22.1963676 46.1914277 20.0508238 53.5316634 22.6113525 62.7520489 16.7469517 70.008868 13.9748218 70.9645403 8.54115609 66.3004456"></polygon>
                            <polygon id="Fill-55" fill="#2C1800" points="31.9560368 39.9025607 31.9560368 36.9205872 28.8799441 32.619717 24.3799945 34.2254016 23.4116108 36.8058893 25.3483781 39.7305569 29.0509713 40.8200579"></polygon>
                            <g id="Group-65" transform="translate(23.368580, 32.580758)">
                                <g id="Group-58">
                                    <mask id="mask-8" fill="white">
                                        <use xlink:href="#path-7"></use>
                                    </mask>
                                    <g id="Clip-57"></g>
                                    <path d="M4.69971249,5.21650606 C3.29288973,5.21650606 2.11401762,4.23722197 1.79704381,2.91910076 C1.78052316,3.05249848 1.77119285,3.18839527 1.77119285,3.32661875 C1.77119285,5.02347576 3.05475277,6.39907519 4.63816667,6.39907519 C6.22149496,6.39907519 7.50505488,5.02347576 7.50505488,3.32661875 C7.50505488,3.30059413 7.50394209,3.2749142 7.5033429,3.24897576 C7.08296526,4.39741989 5.98635398,5.21650606 4.69971249,5.21650606" id="Fill-56" fill="#4D2F00" mask="url(#mask-8)"></path>
                                </g>
                                <g id="Group-61">
                                    <mask id="mask-10" fill="white">
                                        <use xlink:href="#path-9"></use>
                                    </mask>
                                    <g id="Clip-60"></g>
                                    <path d="M4.69971249,5.21650606 C5.98635398,5.21650606 7.08296526,4.39741989 7.5033429,3.24897576 C7.46473766,1.58813958 6.19727039,0.254162311 4.63816667,0.254162311 C3.18383635,0.254162311 1.98322205,1.41501553 1.79704381,2.91910076 C2.11401762,4.23722197 3.29288973,5.21650606 4.69971249,5.21650606" id="Fill-59" fill="#2C1800" mask="url(#mask-10)"></path>
                                </g>
                                <g id="Group-64">
                                    <mask id="mask-12" fill="white">
                                        <use xlink:href="#path-11"></use>
                                    </mask>
                                    <g id="Clip-63"></g>
                                    <path d="M3.46078399,3.42233248 L1.97974673,2.96354081 C1.97974673,2.96354081 2.54940937,1.4152482 4.77096526,1.75934195 C4.77096526,1.75934195 3.63163998,2.73423116 3.46078399,3.42233248" id="Fill-62" fill="#ECD9CB" mask="url(#mask-12)"></path>
                                </g>
                            </g>
                            <polygon id="Fill-66" fill="#D9AA8B" points="42.4900876 34.1889327 42.4900876 34.1889327 39.6458832 52.3847101 42.4900876 52.3847101 42.4941108 52.3847101 45.338144 52.3847101"></polygon>
                        </g>
                    </g>
                    <g id="Group-2" transform="translate(0.000000, 115.000000)">
                        <g id="dogeword">
                            <g id="Group-71">
                                <path d="M9.23963572,7.4256419 L7.09201521,7.4256419 L7.09201521,27.3604959 L9.30106317,27.3604959 C15.2448999,27.3604959 19.1189241,23.3876025 19.1189241,17.3929216 C19.1189241,11.453019 15.1784997,7.4256419 9.23963572,7.4256419 Z M9.25981903,0.815147854 C14.4393228,0.815147854 18.4941192,2.88670694 21.3077888,5.69571042 C24.2530886,8.67493869 25.7258847,12.5912868 25.7258847,17.4447548 C25.7258847,22.2982227 24.2530886,26.2004345 21.3077888,29.1522737 C18.062372,32.3921403 14.0464796,34.0125153 9.25981903,34.0125153 L0.485054617,34.0125153 L0.485054617,0.835763313 L9.25981903,0.835763313 L9.25981903,0.815147854 Z" id="Fill-1" fill="#703B1E"></path>
                                <path d="M36.9956857,10.2470441 C35.032055,12.2517502 34.0503859,14.6337192 34.0503859,17.3929511 C34.0503859,20.1801611 35.032055,22.5621301 36.9956857,24.539447 C38.9458609,26.5026277 41.3116951,27.4842181 44.0934809,27.4842181 C46.834315,27.4842181 49.1931289,26.5026277 51.1708002,24.539447 C53.1478864,22.5759719 54.1365758,20.1940029 54.1365758,17.3929511 C54.1365758,14.6198774 53.1478864,12.2379084 51.1708002,10.2470441 C49.2071695,8.27002164 46.848063,7.28165765 44.0934809,7.28165765 C41.297947,7.28165765 38.9321128,8.27002164 36.9956857,10.2470441 M55.9162166,5.51049525 C59.202585,8.81927636 60.8456229,12.7936423 60.8456229,17.434182 C60.8456229,22.0885635 59.202585,26.0564503 55.9162166,29.3375478 C52.6433038,32.605098 48.7022944,34.2390203 44.0934809,34.2390203 C39.4706268,34.225473 35.5299099,32.5915507 32.2707451,29.3375478 C28.9981248,26.042314 27.3615221,22.0750162 27.3615221,17.434182 C27.3615221,12.8074841 28.9981248,8.83311816 32.2707451,5.51049525 C35.5571134,2.20171415 39.4981229,0.547176343 44.0934809,0.547176343 C48.6888388,0.547176343 52.6295558,2.20171415 55.9162166,5.51049525" id="Fill-3" fill="#703B1E"></path>
                                <path d="M79.1719164,0.609287775 C84.2624966,0.609287775 88.3208032,2.8672695 91.015128,5.53078675 L86.2901874,10.2882456 C84.2856051,8.2976758 81.9264986,7.30224366 79.2131606,7.30224366 C76.4448303,7.30224366 74.0857239,8.2976758 72.1355487,10.2882456 C70.171918,12.2652681 69.190249,14.647237 69.190249,17.4341525 C69.190249,20.2213625 70.171918,22.6033315 72.1355487,24.5806485 C74.0719758,26.5573765 76.4310823,27.5457405 79.2131606,27.5457405 C83.4981637,27.5457405 86.8102731,24.8645528 88.2538181,21.7383658 L78.8448884,21.7383658 L78.8448884,15.3749627 L95.7810203,15.3749627 C96.2528416,21.5793323 94.2301235,26.0832209 90.9744689,29.3375183 C87.687808,32.6189103 83.7470911,34.2596063 79.1517331,34.2596063 C74.515131,34.2596063 70.5811418,32.6189103 67.3491806,29.3375183 C64.0768528,26.0702627 62.4402502,22.1020814 62.4402502,17.4341525 C62.4402502,12.8074546 64.0768528,8.83308871 67.3491806,5.5104658 C70.5948899,2.2016847 74.528879,0.547441399 79.1517331,0.547441399 L79.1719164,0.609287775 Z" id="Fill-5" fill="#703B1E"></path>
                                <polygon id="Fill-7" fill="#703B1E" points="118.587013 0.732656569 118.587013 7.38438154 105.332432 7.38438154 105.332432 14.0773374 115.273441 14.0773374 115.273441 20.7293569 105.332432 20.7293569 105.332432 27.4223128 118.587013 27.4223128 118.587013 34.0537168 98.7052885 34.0537168 98.7052885 0.732656569"></polygon>
                                <path d="M136.934104,34.2389614 C132.324998,34.2254141 128.391009,32.5914918 125.131844,29.3374889 C121.859223,26.0422551 120.222913,22.0749573 120.222913,17.4341231 C120.222913,12.8077197 121.859223,8.83305926 125.131844,5.51043635 C128.418505,2.20165525 132.352201,0.547411949 136.934104,0.547411949 L136.913628,0.629579276 C142.005086,0.629579276 146.052569,2.90640942 148.777315,5.55166727 L144.052082,10.3088316 C142.061248,8.33180911 139.695414,7.34315062 136.95458,7.34315062 C134.172794,7.34315062 131.813687,8.33180911 129.87726,10.3088316 C127.91363,12.3132432 126.93196,14.6955067 126.93196,17.4550331 C126.93196,20.2419486 127.91363,22.624212 129.87726,24.60094 C131.827435,26.5644152 134.186249,27.545711 136.95458,27.545711 C139.736365,27.545711 142.108927,26.557347 144.072558,24.5806191 L148.797791,29.3374889 C146.091473,32.0378194 142.077336,34.2389614 136.934104,34.2389614" id="Fill-9" fill="#2A150A"></path>
                                <path d="M167.840095,23.0771926 L164.833367,16.0546839 L161.785981,23.0771926 L167.840095,23.0771926 Z M164.812892,0.135426734 L179.867296,34.0125153 L172.68789,34.0125153 L170.458366,28.9667346 L159.167709,28.9667346 L156.937893,34.0125153 L149.778963,34.0125153 L164.812892,0.135426734 Z" id="Fill-11" fill="#2A150A"></path>
                                <path d="M190.282641,27.4772382 C192.112887,27.4772382 194.132972,25.9466877 194.132972,24.1039602 C194.132972,21.0731933 190.092801,20.6505764 187.812673,19.8551142 C183.792393,18.4756455 180.242179,15.1527281 180.242179,10.631758 C180.242179,5.03348299 184.752416,0.522820652 190.31277,0.522820652 C195.383167,0.522820652 199.583342,4.30870237 200.263431,9.23226289 L193.683089,10.631758 C193.683089,8.80935148 192.162906,7.27909544 190.352552,7.27909544 C188.512653,7.27909544 186.99247,8.80935148 186.99247,10.6517845 C186.99247,13.642204 190.752708,14.4379607 193.043074,15.1223939 C197.203174,16.3310488 200.873318,19.5226163 200.873318,24.1443076 C200.873318,29.7425826 195.883069,34.2635527 190.332661,34.2635527 C185.232135,34.2635527 180.621859,30.4979919 179.871859,25.553816 L186.452201,24.1443076 C186.452201,25.9970483 188.452688,27.5075724 190.31277,27.5075724 L190.282641,27.4772382 Z" id="Fill-13" fill="#2A150A"></path>
                                <polygon id="Fill-15" fill="#2A150A" points="210.343383 0.815206756 210.343383 14.0983357 221.368439 14.0983357 221.368439 0.815206756 227.975107 0.815206756 227.975107 34.0125742 221.368439 34.0125742 221.368439 20.7085353 210.343383 20.7085353 210.343383 34.0125742 203.736715 34.0125742 203.736715 0.815206756"></polygon>
                            </g>
                        </g>
                    </g>
                </g>
                <g id="Group-17" transform="translate(0.000000, 168.049608)">
                    <path d="M7.69253264,0.145691906 L7.69253264,1.44234987 L4.56015666,1.44234987 L4.56015666,10.1401567 L3.13237598,10.1401567 L3.13237598,1.44234987 L0,1.44234987 L0,0.145691906 L7.69253264,0.145691906 Z M18.1373181,0.145691906 L18.1373181,10.1401567 L16.7095374,10.1401567 L16.7095374,5.68198433 L12.1493808,5.68198433 L12.1493808,10.1401567 L10.7216001,10.1401567 L10.7216001,0.145691906 L12.1493808,0.145691906 L12.1493808,4.38532637 L16.7095374,4.38532637 L16.7095374,0.145691906 L18.1373181,0.145691906 Z M28.6986571,0.145691906 L28.5092577,1.44234987 L23.570302,1.44234987 L23.570302,4.38532637 L28.0430436,4.38532637 L28.0430436,5.68198433 L23.570302,5.68198433 L23.570302,8.84349869 L28.5966728,8.84349869 L28.8006415,10.1401567 L22.1425214,10.1401567 L22.1425214,0.145691906 L28.6986571,0.145691906 Z M40.4533456,0.145691906 C41.28865,0.145691906 42.0171023,0.327804967 42.6387242,0.692036554 C43.2603461,1.05626814 43.7411246,1.57589741 44.081074,2.25093995 C44.4210235,2.92598249 44.5909957,3.71999543 44.5909957,4.63300261 L44.5909957,5.65284595 C44.5909957,6.56585313 44.4210235,7.35986608 44.081074,8.03490862 C43.7411246,8.70995116 43.2603461,9.22958042 42.6387242,9.59381201 C42.0171023,9.9580436 41.28865,10.1401567 40.4533456,10.1401567 L36.9858782,10.1401567 L36.9858782,0.145691906 L40.4533456,0.145691906 Z M38.4136589,1.44234987 L38.4136589,8.84349869 L40.4533456,8.84349869 C41.3177886,8.84349869 41.9855364,8.57397136 42.4566093,8.03490862 C42.9276821,7.49584587 43.163215,6.70183292 43.163215,5.65284595 L43.163215,4.63300261 C43.163215,3.60344133 42.9325385,2.81428473 42.4711785,2.26550914 C42.0098185,1.71673355 41.3372142,1.44234987 40.4533456,1.44234987 L38.4136589,1.44234987 Z M51.8305593,0 C52.6561509,0 53.3797468,0.179684887 54.0013687,0.539060052 C54.6229906,0.898435217 55.1061972,1.41563631 55.4510031,2.09067885 C55.795809,2.76572139 55.9682094,3.56459069 55.9682094,4.4873107 L55.9682094,5.79853786 C55.9682094,6.72125788 55.795809,7.52012717 55.4510031,8.19516971 C55.1061972,8.87021225 54.6229906,9.38741335 54.0013687,9.74678851 C53.3797468,10.1061637 52.6561509,10.2858486 51.8305593,10.2858486 C51.0049677,10.2858486 50.2813718,10.1061637 49.6597499,9.74678851 C49.038128,9.38741335 48.5549213,8.87021225 48.2101154,8.19516971 C47.8653095,7.52012717 47.6929091,6.72125788 47.6929091,5.79853786 L47.6929091,4.4873107 C47.6929091,3.56459069 47.8653095,2.76572139 48.2101154,2.09067885 C48.5549213,1.41563631 49.038128,0.898435217 49.6597499,0.539060052 C50.2813718,0.179684887 51.0049677,0 51.8305593,0 Z M51.8305593,1.29665796 C50.9758291,1.29665796 50.3105094,1.56861347 49.8345802,2.11253264 C49.3586509,2.65645181 49.1206898,3.44803658 49.1206898,4.4873107 L49.1206898,5.79853786 C49.1206898,6.83781198 49.3513664,7.62939676 49.8127264,8.17331593 C50.2740864,8.7172351 50.9466906,8.9891906 51.8305593,8.9891906 C52.6852894,8.9891906 53.3506091,8.71966327 53.8265384,8.18060052 C54.3024677,7.64153777 54.5404287,6.84752483 54.5404287,5.79853786 L54.5404287,4.4873107 C54.5404287,3.44803658 54.3097522,2.65645181 53.8483922,2.11253264 C53.3870322,1.56861347 52.7144279,1.29665796 51.8305593,1.29665796 Z M63.1932038,0 C63.9702311,0 64.6476917,0.150546797 65.2256058,0.451644909 C65.80352,0.75274302 66.2478758,1.18010167 66.5586868,1.73373368 C66.8694977,2.28736569 67.0249009,2.92840367 67.0249009,3.65686684 L65.5971202,3.65686684 C65.5971202,2.90897798 65.3907254,2.32864436 64.9779296,1.91584856 C64.5651338,1.50305277 63.9702311,1.29665796 63.1932038,1.29665796 C62.319048,1.29665796 61.6537282,1.56618529 61.1972246,2.10524804 C60.7407211,2.64431079 60.5124727,3.43832374 60.5124727,4.4873107 L60.5124727,5.79853786 C60.5124727,6.84752483 60.7382929,7.64153777 61.1899401,8.18060052 C61.6415872,8.71966327 62.3093351,8.9891906 63.1932038,8.9891906 C64.038221,8.9891906 64.6549773,8.77793945 65.043491,8.35543081 C65.4320047,7.93292217 65.6262586,7.26031793 65.6262586,6.33759791 L65.6262586,6.14819843 L62.7998356,6.14819843 L62.7998356,4.86610966 L67.0249009,4.86610966 L67.0249009,8.27530026 C67.0249009,9.08146617 67.054039,9.70307875 67.112316,10.1401567 L66.267303,10.1401567 C66.141036,9.74193012 66.0439091,9.34370956 65.9759192,8.94548303 C65.3445844,9.83906452 64.4170219,10.2858486 63.1932038,10.2858486 C61.9013957,10.2858486 60.8937035,9.89005618 60.1700967,9.09845953 C59.44649,8.30686288 59.084692,7.20689999 59.084692,5.79853786 L59.084692,4.4873107 C59.084692,3.08866141 59.44649,1.9911267 60.1700967,1.19467363 C60.8937035,0.398220561 61.9013957,0 63.1932038,0 Z M77.2657177,0.145691906 L77.0763182,1.44234987 L72.1373626,1.44234987 L72.1373626,4.38532637 L76.6101041,4.38532637 L76.6101041,5.68198433 L72.1373626,5.68198433 L72.1373626,8.84349869 L77.1637334,8.84349869 L77.367702,10.1401567 L70.7095819,10.1401567 L70.7095819,0.145691906 L77.2657177,0.145691906 Z" id="The-Doge" fill="#703B1E"></path>
                    <path d="M89.1537337,0.145691906 L89.1537337,1.44234987 L87.9881984,1.44234987 L87.9881984,8.84349869 L89.1537337,8.84349869 L89.1537337,10.1401567 L85.3948825,10.1401567 L85.3948825,8.84349869 L86.5604178,8.84349869 L86.5604178,1.44234987 L85.3948825,1.44234987 L85.3948825,0.145691906 L89.1537337,0.145691906 Z M95.8250988,0 C96.92265,0 97.7846518,0.242817415 98.4111301,0.72845953 C99.0376085,1.21410164 99.3508429,1.9037031 99.3508429,2.7972846 L99.3508429,2.97211488 L97.9230622,2.97211488 L97.9230622,2.75357702 C97.9230622,2.28736059 97.7336647,1.92799082 97.3548638,1.67545692 C96.976063,1.42292302 96.4758591,1.29665796 95.8542372,1.29665796 C95.1646254,1.29665796 94.6279989,1.41078215 94.2443416,1.63903394 C93.8606843,1.86728574 93.6688586,2.19508925 93.6688586,2.62245431 C93.6688586,2.9429781 93.7781264,3.20522091 93.9966654,3.4091906 C94.2152043,3.61316029 94.4871598,3.77341978 94.8125401,3.88997389 C95.1379203,4.006528 95.5871325,4.1376494 96.1601902,4.28334204 C96.8983662,4.47759888 97.495697,4.66699647 97.9522006,4.85154047 C98.4087042,5.03608447 98.7996403,5.31289633 99.1250205,5.68198433 C99.4504007,6.05107234 99.6130884,6.54156352 99.6130884,7.15347258 C99.6130884,8.24131092 99.2804285,9.03532387 98.6150988,9.53553525 C97.9497691,10.0357466 97.0149221,10.2858486 95.8105296,10.2858486 C94.6061372,10.2858486 93.6712901,10.0308903 93.0059604,9.52096606 C92.3406307,9.01104184 92.0079709,8.27044872 92.0079709,7.29916449 L92.0225401,7.00778068 L93.4503207,7.00778068 L93.4357515,7.31373368 C93.4357515,7.87707853 93.6470027,8.29715266 94.0695113,8.57396867 C94.49202,8.85078467 95.0772099,8.9891906 95.8250988,8.9891906 C96.553562,8.9891906 97.1290392,8.85564102 97.5515479,8.58853786 C97.9740565,8.3214347 98.1853077,7.9547804 98.1853077,7.48856397 C98.1853077,7.11947596 98.0711835,6.82081054 97.8429317,6.59255875 C97.6146799,6.36430695 97.3281554,6.18705024 96.9833495,6.06078329 C96.6385436,5.93451634 96.1699059,5.79368224 95.5774226,5.63827676 C94.8489594,5.44401992 94.2661976,5.25947868 93.8291197,5.08464752 C93.3920418,4.90981636 93.018103,4.64028903 92.707292,4.27605744 C92.3964811,3.91182586 92.2410779,3.43347555 92.2410779,2.84099217 C92.2410779,1.87942078 92.5664532,1.16553758 93.2172137,0.699321149 C93.8679741,0.233104719 94.7372605,0 95.8250988,0 Z M115.359735,0.145691906 L115.359735,10.1401567 L114.150492,10.1401567 L109.269813,2.82642298 L109.226106,2.84099217 L109.226106,10.1401567 L107.929448,10.1401567 L107.929448,0.145691906 L109.182398,0.145691906 L114.01937,7.37201044 L114.063077,7.35744125 L114.063077,0.145691906 L115.359735,0.145691906 Z M123.050943,0 C123.876535,0 124.600131,0.179684887 125.221753,0.539060052 C125.843375,0.898435217 126.326581,1.41563631 126.671387,2.09067885 C127.016193,2.76572139 127.188594,3.56459069 127.188594,4.4873107 L127.188594,5.79853786 C127.188594,6.72125788 127.016193,7.52012717 126.671387,8.19516971 C126.326581,8.87021225 125.843375,9.38741335 125.221753,9.74678851 C124.600131,10.1061637 123.876535,10.2858486 123.050943,10.2858486 C122.225352,10.2858486 121.501756,10.1061637 120.880134,9.74678851 C120.258512,9.38741335 119.775306,8.87021225 119.4305,8.19516971 C119.085694,7.52012717 118.913293,6.72125788 118.913293,5.79853786 L118.913293,4.4873107 C118.913293,3.56459069 119.085694,2.76572139 119.4305,2.09067885 C119.775306,1.41563631 120.258512,0.898435217 120.880134,0.539060052 C121.501756,0.179684887 122.225352,0 123.050943,0 Z M123.050943,1.29665796 C122.196213,1.29665796 121.530894,1.56861347 121.054964,2.11253264 C120.579035,2.65645181 120.341074,3.44803658 120.341074,4.4873107 L120.341074,5.79853786 C120.341074,6.83781198 120.571751,7.62939676 121.033111,8.17331593 C121.494471,8.7172351 122.167075,8.9891906 123.050943,8.9891906 C123.905674,8.9891906 124.570993,8.71966327 125.046923,8.18060052 C125.522852,7.64153777 125.760813,6.84752483 125.760813,5.79853786 L125.760813,4.4873107 C125.760813,3.44803658 125.530136,2.65645181 125.068776,2.11253264 C124.607416,1.56861347 123.934812,1.29665796 123.050943,1.29665796 Z M142.557766,0.145691906 L139.629358,10.1401567 L138.172439,10.1401567 L136.132752,2.91383812 L136.030768,2.91383812 L133.918236,10.1401567 L132.461316,10.1401567 L129.605755,0.145691906 L131.13552,0.145691906 L133.248053,7.67796345 L133.335468,7.67796345 L135.46257,0.145691906 L136.846643,0.145691906 L138.959175,7.67796345 L139.046591,7.67796345 L141.173692,0.145691906 L142.557766,0.145691906 Z M157.007754,0.145691906 L157.007754,1.44234987 L153.875378,1.44234987 L153.875378,10.1401567 L152.447598,10.1401567 L152.447598,1.44234987 L149.315222,1.44234987 L149.315222,0.145691906 L157.007754,0.145691906 Z M167.45254,0.145691906 L167.45254,10.1401567 L166.024759,10.1401567 L166.024759,5.68198433 L161.464602,5.68198433 L161.464602,10.1401567 L160.036822,10.1401567 L160.036822,0.145691906 L161.464602,0.145691906 L161.464602,4.38532637 L166.024759,4.38532637 L166.024759,0.145691906 L167.45254,0.145691906 Z M178.013879,0.145691906 L177.824479,1.44234987 L172.885524,1.44234987 L172.885524,4.38532637 L177.358265,4.38532637 L177.358265,5.68198433 L172.885524,5.68198433 L172.885524,8.84349869 L177.911894,8.84349869 L178.115863,10.1401567 L171.457743,10.1401567 L171.457743,0.145691906 L178.013879,0.145691906 Z M197.28627,0.145691906 L197.28627,10.1401567 L195.858489,10.1401567 L195.858489,1.82114883 L195.771074,1.82114883 L192.318176,10.1401567 L191.108933,10.1401567 L187.670604,1.82114883 L187.597758,1.82114883 L187.597758,10.1401567 L186.3011,10.1401567 L186.3011,0.145691906 L188.544755,0.145691906 L191.764546,8.01305483 L191.822823,8.01305483 L195.057183,0.145691906 L197.28627,0.145691906 Z M205.4874,0.145691906 L209.391943,10.1401567 L207.847609,10.1401567 L207.002596,7.96934726 L202.223901,7.96934726 L201.393457,10.1401567 L200.009384,10.1401567 L203.913927,0.145691906 L205.4874,0.145691906 Z M204.671525,1.8648564 L204.58411,1.8648564 L202.733823,6.6726893 L206.507243,6.6726893 L204.671525,1.8648564 Z M215.349418,0 C216.446969,0 217.308971,0.242817415 217.935449,0.72845953 C218.561927,1.21410164 218.875162,1.9037031 218.875162,2.7972846 L218.875162,2.97211488 L217.447381,2.97211488 L217.447381,2.75357702 C217.447381,2.28736059 217.257983,1.92799082 216.879183,1.67545692 C216.500382,1.42292302 216.000178,1.29665796 215.378556,1.29665796 C214.688944,1.29665796 214.152318,1.41078215 213.76866,1.63903394 C213.385003,1.86728574 213.193177,2.19508925 213.193177,2.62245431 C213.193177,2.9429781 213.302445,3.20522091 213.520984,3.4091906 C213.739523,3.61316029 214.011479,3.77341978 214.336859,3.88997389 C214.662239,4.006528 215.111451,4.1376494 215.684509,4.28334204 C216.422685,4.47759888 217.020016,4.66699647 217.476519,4.85154047 C217.933023,5.03608447 218.323959,5.31289633 218.649339,5.68198433 C218.974719,6.05107234 219.137407,6.54156352 219.137407,7.15347258 C219.137407,8.24131092 218.804747,9.03532387 218.139418,9.53553525 C217.474088,10.0357466 216.539241,10.2858486 215.334848,10.2858486 C214.130456,10.2858486 213.195609,10.0308903 212.530279,9.52096606 C211.864949,9.01104184 211.53229,8.27044872 211.53229,7.29916449 L211.546859,7.00778068 L212.974639,7.00778068 L212.96007,7.31373368 C212.96007,7.87707853 213.171321,8.29715266 213.59383,8.57396867 C214.016339,8.85078467 214.601529,8.9891906 215.349418,8.9891906 C216.077881,8.9891906 216.653358,8.85564102 217.075867,8.58853786 C217.498375,8.3214347 217.709626,7.9547804 217.709626,7.48856397 C217.709626,7.11947596 217.595502,6.82081054 217.36725,6.59255875 C217.138999,6.36430695 216.852474,6.18705024 216.507668,6.06078329 C216.162862,5.93451634 215.694225,5.79368224 215.101741,5.63827676 C214.373278,5.44401992 213.790516,5.25947868 213.353438,5.08464752 C212.916361,4.90981636 212.542422,4.64028903 212.231611,4.27605744 C211.9208,3.91182586 211.765397,3.43347555 211.765397,2.84099217 C211.765397,1.87942078 212.090772,1.16553758 212.741532,0.699321149 C213.392293,0.233104719 214.261579,0 215.349418,0 Z M229.290809,0.145691906 L229.290809,1.44234987 L226.158433,1.44234987 L226.158433,10.1401567 L224.730652,10.1401567 L224.730652,1.44234987 L221.598276,1.44234987 L221.598276,0.145691906 L229.290809,0.145691906 Z M238.876012,0.145691906 L238.686613,1.44234987 L233.747657,1.44234987 L233.747657,4.38532637 L238.220398,4.38532637 L238.220398,5.68198433 L233.747657,5.68198433 L233.747657,8.84349869 L238.774028,8.84349869 L238.977996,10.1401567 L232.319876,10.1401567 L232.319876,0.145691906 L238.876012,0.145691906 Z M246.538082,0.145691906 C247.421951,0.145691906 248.147975,0.354514883 248.716176,0.772167102 C249.284377,1.18981932 249.568474,1.76286842 249.568474,2.49133159 C249.568474,3.14209203 249.396073,3.69571573 249.051267,4.15221932 C248.706462,4.60872291 248.281531,4.88553476 247.776463,4.98266319 L247.776463,5.05550914 C248.24268,5.24005314 248.626331,5.56057213 248.927429,6.01707572 C249.228527,6.47357931 249.379074,7.02234666 249.379074,7.66339426 C249.379074,8.19760058 249.408212,8.60067749 249.466489,8.87263708 C249.524766,9.14459666 249.602468,9.33399424 249.699596,9.44083551 C249.796725,9.54767677 249.937559,9.6302347 250.122103,9.68851175 L250.122103,10.0964491 C249.90842,10.1838647 249.680172,10.2275718 249.437351,10.2275718 C248.971135,10.2275718 248.606908,10.0891659 248.344662,9.81234987 C248.082415,9.53553386 247.951294,9.01347642 247.951294,8.24616188 C247.951294,7.45942165 247.788606,6.84509359 247.463226,6.40315927 C247.137845,5.96122494 246.73234,5.7402611 246.246698,5.7402611 L243.711659,5.7402611 L243.711659,10.1401567 L242.283878,10.1401567 L242.283878,0.145691906 L246.538082,0.145691906 Z M243.711659,1.44234987 L243.711659,4.44360313 L246.552651,4.44360313 C246.970303,4.44360313 247.339386,4.30276903 247.65991,4.02109661 C247.980434,3.73942418 248.140693,3.3897671 248.140693,2.97211488 L248.140693,2.91383812 C248.140693,2.48647306 247.995003,2.13438781 247.703617,1.8575718 C247.412232,1.5807558 247.028581,1.44234987 246.552651,1.44234987 L243.711659,1.44234987 Z M260.696687,0.145691906 C260.104204,1.06841192 259.642851,2.05910698 259.312614,3.11780679 C258.982377,4.1765066 258.817261,5.23033418 258.817261,6.27932115 C258.817261,7.32830812 258.982377,8.37485118 259.312614,9.41898172 C259.642851,10.4631123 260.104204,11.4659482 260.696687,12.4275196 L259.939089,12.4275196 C259.1912,11.5727895 258.618151,10.6209452 258.219925,9.57195822 C257.821698,8.52297126 257.622588,7.43029289 257.622588,6.29389034 C257.622588,5.15748779 257.821698,4.06238125 258.219925,3.00853786 C258.618151,1.95469447 259.1912,1.00042203 259.939089,0.145691906 L260.696687,0.145691906 Z M271.214318,0.145691906 L271.214318,10.1401567 L270.005076,10.1401567 L265.124397,2.82642298 L265.080689,2.84099217 L265.080689,10.1401567 L263.784031,10.1401567 L263.784031,0.145691906 L265.036982,0.145691906 L269.873953,7.37201044 L269.91766,7.35744125 L269.91766,0.145691906 L271.214318,0.145691906 Z M278.905527,0 C279.731118,0 280.454714,0.179684887 281.076336,0.539060052 C281.697958,0.898435217 282.181165,1.41563631 282.525971,2.09067885 C282.870777,2.76572139 283.043177,3.56459069 283.043177,4.4873107 L283.043177,5.79853786 C283.043177,6.72125788 282.870777,7.52012717 282.525971,8.19516971 C282.181165,8.87021225 281.697958,9.38741335 281.076336,9.74678851 C280.454714,10.1061637 279.731118,10.2858486 278.905527,10.2858486 C278.079935,10.2858486 277.356339,10.1061637 276.734717,9.74678851 C276.113096,9.38741335 275.629889,8.87021225 275.285083,8.19516971 C274.940277,7.52012717 274.767877,6.72125788 274.767877,5.79853786 L274.767877,4.4873107 C274.767877,3.56459069 274.940277,2.76572139 275.285083,2.09067885 C275.629889,1.41563631 276.113096,0.898435217 276.734717,0.539060052 C277.356339,0.179684887 278.079935,0 278.905527,0 Z M278.905527,1.29665796 C278.050797,1.29665796 277.385477,1.56861347 276.909548,2.11253264 C276.433619,2.65645181 276.195657,3.44803658 276.195657,4.4873107 L276.195657,5.79853786 C276.195657,6.83781198 276.426334,7.62939676 276.887694,8.17331593 C277.349054,8.7172351 278.021658,8.9891906 278.905527,8.9891906 C279.760257,8.9891906 280.425577,8.71966327 280.901506,8.18060052 C281.377435,7.64153777 281.615396,6.84752483 281.615396,5.79853786 L281.615396,4.4873107 C281.615396,3.44803658 281.38472,2.65645181 280.92336,2.11253264 C280.462,1.56861347 279.789396,1.29665796 278.905527,1.29665796 Z M290.064203,0.145691906 C290.899507,0.145691906 291.627959,0.327804967 292.249581,0.692036554 C292.871203,1.05626814 293.351982,1.57589741 293.691931,2.25093995 C294.031881,2.92598249 294.201853,3.71999543 294.201853,4.63300261 L294.201853,5.65284595 C294.201853,6.56585313 294.031881,7.35986608 293.691931,8.03490862 C293.351982,8.70995116 292.871203,9.22958042 292.249581,9.59381201 C291.627959,9.9580436 290.899507,10.1401567 290.064203,10.1401567 L286.596735,10.1401567 L286.596735,0.145691906 L290.064203,0.145691906 Z M288.024516,1.44234987 L288.024516,8.84349869 L290.064203,8.84349869 C290.928646,8.84349869 291.596394,8.57397136 292.067466,8.03490862 C292.538539,7.49584587 292.774072,6.70183292 292.774072,5.65284595 L292.774072,4.63300261 C292.774072,3.60344133 292.543396,2.81428473 292.082036,2.26550914 C291.620676,1.71673355 290.948071,1.44234987 290.064203,1.44234987 L288.024516,1.44234987 Z M304.311547,0.145691906 L304.122147,1.44234987 L299.183192,1.44234987 L299.183192,4.38532637 L303.655933,4.38532637 L303.655933,5.68198433 L299.183192,5.68198433 L299.183192,8.84349869 L304.209563,8.84349869 L304.413531,10.1401567 L297.755411,10.1401567 L297.755411,0.145691906 L304.311547,0.145691906 Z M307.559152,0.145691906 C308.307041,1.00042203 308.88009,1.95469447 309.278317,3.00853786 C309.676543,4.06238125 309.875654,5.15263144 309.875654,6.27932115 C309.875654,7.4157237 309.676543,8.51083024 309.278317,9.56467363 C308.88009,10.618517 308.307041,11.5727895 307.559152,12.4275196 L306.801554,12.4275196 C307.384325,11.5047996 307.840822,10.5141045 308.171058,9.4554047 C308.501295,8.39670489 308.666411,7.33802096 308.666411,6.27932115 C308.666411,5.24975987 308.498867,4.20078863 308.163774,3.13237598 C307.828681,2.06396333 307.374612,1.06841192 306.801554,0.145691906 L307.559152,0.145691906 Z" id="IS-NOW-THE-MASTER-(N" fill="#000000"></path>
                </g>
            </g>
        </g>
    </g>
</svg>