<?xml version="1.0" standalone="no"?>
<!DOCTYPE svg PUBLIC "-//W3C//DTD SVG 20010904//EN"
 "http://www.w3.org/TR/2001/REC-SVG-20010904/DTD/svg10.dtd">
<svg version="1.0" xmlns="http://www.w3.org/2000/svg"
 width="512.000000pt" height="512.000000pt" viewBox="0 0 512.000000 512.000000"
 preserveAspectRatio="xMidYMid meet">
<metadata>
Created by potrace 1.11, written by Peter Selinger 2001-2013
</metadata>
<g transform="translate(0.000000,512.000000) scale(0.100000,-0.100000)"
fill="#000000" stroke="none">
<path d="M445 5012 c-55 -15 -105 -30 -111 -34 -5 -4 -36 -45 -68 -92 l-57
-86 4 -362 c2 -200 7 -379 11 -398 3 -19 11 -55 16 -80 5 -25 12 -63 15 -85 7
-53 24 -154 30 -184 2 -14 7 -47 10 -74 4 -34 34 -104 99 -235 82 -165 93
-193 91 -232 -4 -64 -15 -189 -20 -230 -2 -19 -7 -71 -10 -115 -4 -44 -8 -98
-10 -120 -2 -22 -6 -74 -9 -115 -4 -41 -9 -91 -11 -110 -5 -41 -12 -123 -20
-235 -3 -44 -8 -93 -10 -110 -4 -37 -18 -242 -18 -270 0 -21 193 -338 222
-365 23 -22 277 -238 334 -285 39 -33 58 -61 103 -155 31 -63 90 -186 131
-272 l76 -157 266 -189 c284 -202 290 -206 336 -215 23 -5 373 -78 486 -102 8
-2 64 -13 125 -25 l109 -23 365 77 c201 42 374 80 385 85 11 5 142 95 290 200
245 175 272 196 293 239 12 26 71 148 131 272 l108 225 113 95 c62 52 129 109
149 127 20 18 59 52 87 75 28 24 64 66 81 93 16 28 63 103 103 168 l72 119 -6
91 c-4 51 -8 110 -10 132 -2 22 -7 83 -11 135 -3 52 -8 111 -10 130 -2 19 -6
69 -10 110 -3 41 -8 91 -10 110 -2 19 -7 73 -10 120 -3 47 -8 96 -10 110 -3
23 -8 77 -20 230 -2 30 -7 85 -11 122 l-6 67 92 183 c61 123 95 201 101 238 4
30 11 72 15 94 3 21 8 48 10 60 2 11 7 41 9 66 3 25 8 52 11 61 2 9 7 34 9 55
3 22 12 75 19 119 11 59 14 166 14 409 l-1 329 -58 88 c-64 97 -50 89 -234
135 l-71 17 -164 -87 c-179 -96 -168 -88 -511 -358 l-235 -187 -139 41 c-77
22 -211 52 -300 68 -146 26 -191 28 -280 16 -16 -3 -57 -7 -90 -11 -33 -4 -71
-8 -85 -10 -14 -2 -56 -7 -95 -11 -38 -3 -72 -8 -75 -9 -3 -2 -71 5 -150 15
-80 10 -174 21 -210 24 -36 4 -77 9 -91 12 -39 7 -348 -51 -499 -95 l-135 -40
-30 24 c-16 12 -91 71 -165 130 -347 274 -388 303 -526 376 -77 40 -148 78
-159 86 -26 17 -43 16 -160 -15z"/>
</g>
</svg>
